<?xml version="1.0" encoding="UTF-8"?><svg xmlns="http://www.w3.org/2000/svg" xmlns:xlink="http://www.w3.org/1999/xlink" fill-opacity="1" color-rendering="auto" color-interpolation="auto" text-rendering="auto" stroke="black" stroke-linecap="square" width="1420" stroke-miterlimit="10" shape-rendering="auto" stroke-opacity="1" fill="black" stroke-dasharray="none" font-weight="normal" stroke-width="1" height="450" font-family="'Dialog'" font-style="normal" stroke-linejoin="miter" font-size="12px" stroke-dashoffset="0" image-rendering="auto">
  <!--Generated by ySVG 2.5-->
  <defs id="genericDefs"/>
  <g>
    <defs id="defs1">
      <clipPath clipPathUnits="userSpaceOnUse" id="clipPath1">
        <path d="M0 0 L1420 0 L1420 450 L0 450 L0 0 Z"/>
      </clipPath>
      <clipPath clipPathUnits="userSpaceOnUse" id="clipPath2">
        <path d="M-15 -433 L1405 -433 L1405 17 L-15 17 L-15 -433 Z"/>
      </clipPath>
    </defs>
    <g fill="white" text-rendering="geometricPrecision" shape-rendering="geometricPrecision" transform="translate(15,433)" stroke="white">
      <rect x="-15" width="1420" height="450" y="-433" clip-path="url(#clipPath2)" stroke="none"/>
    </g>
    <g text-rendering="geometricPrecision" stroke-miterlimit="1.45" stroke-dasharray="6,2" shape-rendering="geometricPrecision" transform="matrix(1,0,0,1,15,433)" stroke-linecap="butt">
      <path fill="none" d="M828.3049 -407.0393 L980.9532 -407.0393" clip-path="url(#clipPath2)"/>
      <path d="M988.9532 -407.0393 L976.9532 -412.0393 L979.9532 -407.0393 L976.9532 -402.0393 Z" clip-path="url(#clipPath2)" stroke="none"/>
      <text x="926.178" y="-392.176" clip-path="url(#clipPath2)" font-family="sans-serif" stroke-dasharray="none" stroke="none" xml:space="preserve">weak:test</text>
      <path fill="none" stroke-dasharray="none" d="M62.041 -104.3289 L72.041 -104.3289 L81.3088 -102.5611 L89.1121 -97.2578 L93.8766 -92.4932 L101.6799 -87.1899 L110.9477 -85.4222 L238.4375 -85.4222 L249.3412 -86.3259 L249.3412 -86.3259 L260.245 -87.2297 L289.6872 -87.2297" stroke-width="2" clip-path="url(#clipPath2)"/>
      <path stroke-dasharray="none" d="M298.6872 -87.2297 L285.1872 -92.8547 L288.5622 -87.2297 L285.1872 -81.6047 Z" stroke-width="2" clip-path="url(#clipPath2)" stroke="none"/>
      <text x="168.7148" y="-70.5589" clip-path="url(#clipPath2)" font-family="sans-serif" stroke-dasharray="none" stroke="none" xml:space="preserve">feature:default</text>
      <path fill="none" d="M62.041 -111.631 L237.9375 -111.6309 L247.2053 -109.8631 L255.0086 -104.5598 L257.9656 -101.6028 L265.7689 -96.2995 L275.0367 -94.5317 L290.7017 -94.5317" clip-path="url(#clipPath2)"/>
      <path d="M298.7017 -94.5317 L286.7017 -99.5317 L289.7017 -94.5317 L286.7017 -89.5317 Z" clip-path="url(#clipPath2)" stroke="none"/>
      <text x="155.7351" y="-98.9212" clip-path="url(#clipPath2)" font-family="sans-serif" stroke-dasharray="none" stroke="none" xml:space="preserve">weak:feature:std</text>
      <path fill="none" d="M62.041 -118.433 L89.1442 -118.433 L98.4119 -120.2008 L106.2152 -125.5041 L110.4797 -129.7686 L118.283 -135.0719 L127.5508 -136.8396 L232.7288 -136.8396 L241.9966 -135.0719 L249.7999 -129.7686 L271.1635 -108.4049 L278.0243 -103.1016 L284.4646 -101.3338 L290.6945 -101.3338" clip-path="url(#clipPath2)"/>
      <path d="M298.6945 -101.3338 L286.6945 -106.3338 L289.6945 -101.3338 L286.6945 -96.3338 Z" clip-path="url(#clipPath2)" stroke="none"/>
      <text x="166.346" y="-122.9763" clip-path="url(#clipPath2)" font-family="sans-serif" stroke-dasharray="none" stroke="none" xml:space="preserve">weak:optional</text>
      <path fill="none" stroke-dasharray="none" d="M74.7266 -221.3524 L979.9645 -221.3523" stroke-width="2" clip-path="url(#clipPath2)"/>
      <path stroke-dasharray="none" d="M988.9645 -221.3523 L975.4645 -226.9773 L978.8395 -221.3523 L975.4645 -215.7273 Z" stroke-width="2" clip-path="url(#clipPath2)" stroke="none"/>
    </g>
    <g stroke-linecap="butt" transform="matrix(1,0,0,1,15,433)" fill="rgb(191,4,4)" text-rendering="geometricPrecision" shape-rendering="geometricPrecision" stroke="rgb(191,4,4)" stroke-width="2" stroke-miterlimit="1.45">
      <path fill="none" d="M1290.1948 -291.4965 L1279.2358 -291.4965 L1269.968 -289.7288 L1262.1648 -284.4254 L1261.579 -283.8397 L1256.2756 -276.052 L1254.5079 -266.8309 L1254.5079 -266.8309 L1252.7402 -257.6099 L1247.4369 -249.8222 L1233.6735 -236.0588 L1225.8701 -230.7555 L1216.6024 -228.9877 L1110.0432 -228.9877" clip-path="url(#clipPath2)"/>
      <path d="M1101.0432 -228.9877 L1114.5432 -223.3627 L1111.1682 -228.9877 L1114.5432 -234.6127 Z" clip-path="url(#clipPath2)" stroke="none"/>
      <path fill="none" d="M412.8069 -294.6362 L422.8069 -294.6362 L432.0746 -292.8684 L439.8779 -287.5651 L440.4637 -286.9794 L445.767 -279.1761 L447.5348 -269.9083 L447.5348 -255.216 L449.3025 -245.9483 L454.6058 -238.145 L455.1916 -237.5592 L462.9949 -232.2559 L472.2627 -230.4881 L932.6477 -230.4881 L943.6479 -229.4879 L943.6479 -229.4879 L954.6481 -228.4877 L979.9491 -228.4877" clip-path="url(#clipPath2)" stroke="rgb(0,158,255)"/>
      <path fill="rgb(0,158,255)" d="M988.9491 -228.4877 L975.4491 -234.1127 L978.8241 -228.4877 L975.4491 -222.8627 Z" clip-path="url(#clipPath2)" stroke="none"/>
      <path fill="none" d="M781.6233 -272.7161 L791.6233 -272.7161 L800.8911 -270.9483 L808.6943 -265.645 L827.6445 -246.6949 L835.4478 -241.3916 L844.7155 -239.6238 L932.6477 -239.6238 L940.6478 -239.1237 L944.6481 -237.6235 L944.6481 -237.6235 L948.6483 -236.1232 L956.6484 -235.6231 L979.951 -235.6231" clip-path="url(#clipPath2)" stroke="black"/>
      <path fill="black" d="M988.951 -235.6231 L975.451 -241.2481 L978.826 -235.6231 L975.451 -229.9981 Z" clip-path="url(#clipPath2)" stroke="none"/>
      <path fill="none" d="M366.7873 -130.3365 L376.7873 -130.3365 L387.5373 -129.5865 L387.5373 -129.5865 L398.2873 -128.8365 L702.5389 -128.8365" clip-path="url(#clipPath2)" stroke="black"/>
      <path fill="black" d="M711.5389 -128.8365 L698.0389 -134.4615 L701.4139 -128.8365 L698.0389 -123.2115 Z" clip-path="url(#clipPath2)" stroke="none"/>
    </g>
    <g text-rendering="geometricPrecision" stroke-miterlimit="1.45" stroke-dasharray="6,2" shape-rendering="geometricPrecision" transform="matrix(1,0,0,1,15,433)" stroke-linecap="butt">
      <path fill="none" d="M1101.0432 -235.9565 L1111.0432 -235.9565 L1120.311 -237.7242 L1128.1143 -243.0275 L1132.8788 -247.792 L1140.6821 -253.0953 L1149.9498 -254.8631 L1216.1024 -254.8631 L1225.3701 -256.6308 L1233.1735 -261.9341 L1258.7943 -287.5549 L1266.1379 -292.8582 L1274.0269 -294.626 L1282.1882 -294.626" clip-path="url(#clipPath2)"/>
      <path d="M1290.1882 -294.626 L1278.1882 -299.626 L1281.1882 -294.626 L1278.1882 -289.626 Z" clip-path="url(#clipPath2)" stroke="none"/>
      <text x="1172.413" y="-239.9998" clip-path="url(#clipPath2)" font-family="sans-serif" stroke-dasharray="none" stroke="none" xml:space="preserve">weak:test</text>
    </g>
    <g stroke-linecap="butt" transform="matrix(1,0,0,1,15,433)" fill="rgb(0,158,255)" text-rendering="geometricPrecision" shape-rendering="geometricPrecision" stroke="rgb(0,158,255)" stroke-width="2" stroke-miterlimit="1.45">
      <path fill="none" d="M412.8069 -312.413 L422.8069 -312.413 L432.0746 -314.1808 L439.8779 -319.4841 L440.4637 -320.0699 L445.767 -327.8732 L447.5348 -337.1409 L447.5348 -343.405 L449.3025 -352.6728 L454.6058 -360.4761 L455.1916 -361.0619 L462.9949 -366.3652 L472.2627 -368.1329 L1184.2577 -368.1329 L1193.5254 -366.3652 L1201.3287 -361.0619 L1214.6458 -347.7449 L1219.949 -340.3575 L1221.7168 -332.3375 L1221.7168 -332.3375 L1223.4846 -324.3175 L1228.7878 -316.9301 L1229.3737 -316.3444 L1237.177 -311.0411 L1246.4447 -309.2733 L1281.2096 -309.2733" clip-path="url(#clipPath2)"/>
      <path d="M1290.2096 -309.2733 L1276.7096 -314.8983 L1280.0846 -309.2733 L1276.7096 -303.6483 Z" clip-path="url(#clipPath2)" stroke="none"/>
      <path fill="none" d="M781.6233 -277.5973 L1184.2577 -277.5972 L1193.5254 -279.365 L1201.3287 -284.6683 L1207.3448 -290.6844 L1215.1482 -295.9877 L1224.4159 -297.7555 L1281.1989 -297.7555" clip-path="url(#clipPath2)" stroke="black"/>
      <path fill="black" d="M1290.1989 -297.7555 L1276.6989 -303.3805 L1280.0739 -297.7555 L1276.6989 -292.1305 Z" clip-path="url(#clipPath2)" stroke="none"/>
    </g>
    <g text-rendering="geometricPrecision" stroke-miterlimit="1.45" shape-rendering="geometricPrecision" font-family="sans-serif" transform="matrix(1,0,0,1,15,433)" stroke-linecap="butt">
      <text x="1034.3384" xml:space="preserve" y="-262.7339" clip-path="url(#clipPath2)" stroke="none">feature:default</text>
      <path fill="none" stroke-dasharray="6,2" d="M781.6233 -285.8598 L793.742 -285.8598 L803.0098 -287.6276 L810.813 -292.9309 L833.9838 -316.1015 L841.787 -321.4048 L851.0548 -323.1726 L1183.7577 -323.1726 L1193.0254 -321.4048 L1200.8287 -316.1015 L1206.3448 -310.5854 L1214.1482 -305.2821 L1223.4159 -303.5144 L1282.1984 -303.5144" clip-path="url(#clipPath2)"/>
      <path stroke-dasharray="6,2" d="M1290.1984 -303.5144 L1278.1984 -308.5144 L1281.1984 -303.5144 L1278.1984 -298.5144 Z" clip-path="url(#clipPath2)" stroke="none"/>
      <text x="961.707" xml:space="preserve" y="-308.3093" clip-path="url(#clipPath2)" stroke="none">weak:feature:printing</text>
      <path fill="none" stroke-dasharray="6,2" d="M781.6233 -281.9786 L795.8608 -281.9786 L805.1285 -283.7463 L812.9318 -289.0497 L817.6961 -293.8138 L825.4994 -299.1172 L834.7672 -300.8849 L1282.2075 -300.8849" clip-path="url(#clipPath2)"/>
      <path stroke-dasharray="6,2" d="M1290.2075 -300.8849 L1278.2075 -305.8849 L1281.2075 -300.8849 L1278.2075 -295.8849 Z" clip-path="url(#clipPath2)" stroke="none"/>
      <text x="986.5787" xml:space="preserve" y="-286.0216" clip-path="url(#clipPath2)" stroke="none">weak:feature:proc-macro</text>
      <path fill="none" stroke-dasharray="6,2" d="M781.6233 -289.7411 L791.6233 -289.7411 L800.8911 -291.5088 L808.6943 -296.8121 L808.9872 -297.105 L814.2905 -304.9083 L816.0583 -314.1761 L816.0583 -317.7137 L817.826 -326.9815 L823.1293 -334.7848 L826.7339 -338.3893 L834.5372 -343.6926 L843.8049 -345.4603 L1183.7577 -345.4603 L1193.0254 -343.6926 L1200.8287 -338.3893 L1226.0031 -313.2149 L1233.8064 -307.9116 L1243.0741 -306.1439 L1282.208 -306.1439" clip-path="url(#clipPath2)"/>
      <path stroke-dasharray="6,2" d="M1290.208 -306.1439 L1278.208 -311.1439 L1281.208 -306.1439 L1278.208 -301.1439 Z" clip-path="url(#clipPath2)" stroke="none"/>
      <text x="1047.2324" xml:space="preserve" y="-330.597" clip-path="url(#clipPath2)" stroke="none">weak:optional</text>
    </g>
    <g stroke-linecap="butt" transform="matrix(1,0,0,1,15,433)" fill="rgb(191,4,4)" text-rendering="geometricPrecision" shape-rendering="geometricPrecision" stroke-dasharray="6,2" stroke="rgb(191,4,4)" stroke-miterlimit="1.45">
      <path fill="none" d="M711.5303 -139.5397 L623.1848 -139.5397 L612.4348 -140.2897 L612.4348 -140.2897 L601.6848 -141.0397 L374.7873 -141.0397" clip-path="url(#clipPath2)"/>
      <path d="M366.7873 -141.0397 L378.7873 -136.0397 L375.7873 -141.0397 L378.7873 -146.0397 Z" clip-path="url(#clipPath2)" stroke="none"/>
    </g>
    <g text-rendering="geometricPrecision" stroke-miterlimit="1.45" shape-rendering="geometricPrecision" font-family="sans-serif" transform="matrix(1,0,0,1,15,433)" stroke-linecap="butt">
      <text x="557.9953" xml:space="preserve" y="-147.5827" clip-path="url(#clipPath2)" stroke="none">weak:test</text>
    </g>
    <g stroke-linecap="butt" transform="matrix(1,0,0,1,15,433)" fill="rgb(191,4,4)" text-rendering="geometricPrecision" shape-rendering="geometricPrecision" stroke-dasharray="6,2" stroke="rgb(191,4,4)" stroke-miterlimit="1.45">
      <path fill="none" d="M62.7031 -35.8127 L72.7031 -35.8127 L81.9709 -34.045 L89.7742 -28.7417 L94.0384 -24.4774 L101.8417 -19.1741 L111.1095 -17.4063 L638.9141 -17.4063 L648.1818 -19.1741 L655.9851 -24.4774 L684.0073 -52.4996 L690.8681 -57.8029 L697.3083 -59.5707 L703.5383 -59.5707" clip-path="url(#clipPath2)"/>
      <path d="M711.5383 -59.5707 L699.5383 -64.5707 L702.5383 -59.5707 L699.5383 -54.5707 Z" clip-path="url(#clipPath2)" stroke="none"/>
    </g>
    <g text-rendering="geometricPrecision" stroke-miterlimit="1.45" shape-rendering="geometricPrecision" font-family="sans-serif" transform="matrix(1,0,0,1,15,433)" stroke-linecap="butt">
      <text x="296.9766" xml:space="preserve" y="-2.5431" clip-path="url(#clipPath2)" stroke="none">weak:feature:rustc-dep-of-std</text>
    </g>
    <g stroke-linecap="butt" transform="matrix(1,0,0,1,15,433)" fill="rgb(191,4,4)" text-rendering="geometricPrecision" shape-rendering="geometricPrecision" stroke-dasharray="6,2" stroke="rgb(191,4,4)" stroke-miterlimit="1.45">
      <path fill="none" d="M62.7031 -46.5159 L654.3752 -46.5159 L663.6429 -48.2836 L671.4462 -53.5869 L675.7105 -57.8512 L683.5138 -63.1545 L692.7816 -64.9222 L703.5502 -64.9222" clip-path="url(#clipPath2)"/>
      <path d="M711.5502 -64.9222 L699.5502 -69.9222 L702.5502 -64.9222 L699.5502 -59.9222 Z" clip-path="url(#clipPath2)" stroke="none"/>
    </g>
    <g text-rendering="geometricPrecision" stroke-miterlimit="1.45" shape-rendering="geometricPrecision" font-family="sans-serif" transform="matrix(1,0,0,1,15,433)" stroke-linecap="butt">
      <text x="331.4102" xml:space="preserve" y="-31.6526" clip-path="url(#clipPath2)" stroke="none">weak:optional</text>
      <path fill="none" stroke-dasharray="6,2" d="M361.4377 -88.6802 L404.5547 -88.6802 L413.8225 -86.9124 L421.6258 -81.6091 L425.8901 -77.3448 L433.6934 -72.0415 L442.9612 -70.2738 L703.5444 -70.2738" clip-path="url(#clipPath2)"/>
      <path stroke-dasharray="6,2" d="M711.5444 -70.2738 L699.5444 -75.2738 L702.5444 -70.2738 L699.5444 -65.2738 Z" clip-path="url(#clipPath2)" stroke="none"/>
      <text x="489.6721" xml:space="preserve" y="-55.4105" clip-path="url(#clipPath2)" stroke="none">weak:feature:rustc-dep-of-std</text>
      <path fill="none" stroke-dasharray="6,2" d="M361.4377 -99.3833 L645.2657 -99.3833 L654.5334 -97.6155 L662.3367 -92.3122 L671.9526 -82.6964 L679.7559 -77.3931 L689.0236 -75.6254 L703.5466 -75.6254" clip-path="url(#clipPath2)"/>
      <path stroke-dasharray="6,2" d="M711.5466 -75.6254 L699.5466 -80.6254 L702.5466 -75.6254 L699.5466 -70.6254 Z" clip-path="url(#clipPath2)" stroke="none"/>
      <text x="578.8829" xml:space="preserve" y="-85.52" clip-path="url(#clipPath2)" stroke="none">weak:optional</text>
    </g>
    <g stroke-linecap="butt" transform="matrix(1,0,0,1,15,433)" fill="rgb(0,158,255)" text-rendering="geometricPrecision" shape-rendering="geometricPrecision" stroke-dasharray="6,2" stroke="rgb(0,158,255)" stroke-miterlimit="1.45">
      <path fill="none" d="M412.8069 -301.3951 L422.8069 -301.3951 L433.307 -300.895 L433.307 -300.895 L443.8072 -300.3948 L631.0725 -300.3948 L640.3179 -302.1401 L648.0539 -307.3762 L648.0539 -307.3762 L655.7899 -312.6122 L665.0353 -314.3576 L703.5508 -314.3576" clip-path="url(#clipPath2)"/>
      <path d="M711.5508 -314.3576 L699.5508 -319.3576 L702.5508 -314.3576 L699.5508 -309.3576 Z" clip-path="url(#clipPath2)" stroke="none"/>
    </g>
    <g text-rendering="geometricPrecision" stroke-miterlimit="1.45" shape-rendering="geometricPrecision" font-family="sans-serif" transform="matrix(1,0,0,1,15,433)" stroke-linecap="butt">
      <text x="587.3831" xml:space="preserve" y="-285.5315" clip-path="url(#clipPath2)" stroke="none">weak:test</text>
    </g>
    <g stroke-linecap="butt" transform="matrix(1,0,0,1,15,433)" fill="rgb(191,4,4)" text-rendering="geometricPrecision" shape-rendering="geometricPrecision" stroke-dasharray="6,2" stroke="rgb(191,4,4)" stroke-miterlimit="1.45">
      <path fill="none" d="M711.5504 -319.7091 L664.3868 -319.7091 L655.1191 -317.9414 L647.3158 -312.6381 L645.7734 -311.0957 L637.9701 -305.7924 L628.7023 -304.0247 L420.8069 -304.0246" clip-path="url(#clipPath2)"/>
      <path d="M412.8069 -304.0246 L424.8069 -299.0246 L421.8069 -304.0246 L424.8069 -309.0246 Z" clip-path="url(#clipPath2)" stroke="none"/>
    </g>
    <g text-rendering="geometricPrecision" stroke-miterlimit="1.45" shape-rendering="geometricPrecision" font-family="sans-serif" transform="matrix(1,0,0,1,15,433)" stroke-linecap="butt">
      <text x="529.1169" xml:space="preserve" y="-307.7067" clip-path="url(#clipPath2)" stroke="none">weak:feature:derive</text>
    </g>
    <g stroke-linecap="butt" transform="matrix(1,0,0,1,15,433)" fill="rgb(191,4,4)" text-rendering="geometricPrecision" shape-rendering="geometricPrecision" stroke-dasharray="6,2" stroke="rgb(191,4,4)" stroke-miterlimit="1.45">
      <path fill="none" d="M711.5474 -325.0607 L467.9546 -325.0608 L458.6869 -323.293 L450.8835 -317.9897 L446.619 -313.7251 L438.9731 -308.4218 L430.1774 -306.6541 L420.8069 -306.6541" clip-path="url(#clipPath2)"/>
      <path d="M412.8069 -306.6541 L424.8069 -301.6541 L421.8069 -306.6541 L424.8069 -311.6541 Z" clip-path="url(#clipPath2)" stroke="none"/>
    </g>
    <g text-rendering="geometricPrecision" stroke-miterlimit="1.45" shape-rendering="geometricPrecision" font-family="sans-serif" transform="matrix(1,0,0,1,15,433)" stroke-linecap="butt">
      <text x="543.5126" xml:space="preserve" y="-331.6037" clip-path="url(#clipPath2)" stroke="none">weak:optional</text>
    </g>
    <g stroke-linecap="butt" transform="matrix(1,0,0,1,15,433)" fill="rgb(191,4,4)" text-rendering="geometricPrecision" shape-rendering="geometricPrecision" stroke-dasharray="6,2" stroke="rgb(191,4,4)" stroke-miterlimit="1.45">
      <path fill="none" d="M711.5482 -330.4123 L659.721 -330.4123 L650.4532 -332.18 L642.65 -337.4833 L641.1074 -339.0258 L633.3041 -344.3291 L624.0364 -346.0969 L482.9907 -346.0969 L473.723 -344.3291 L465.9196 -339.0258 L443.2484 -316.3546 L436.0238 -311.0513 L428.4921 -309.2835 L420.8069 -309.2835" clip-path="url(#clipPath2)"/>
      <path d="M412.8069 -309.2835 L424.8069 -304.2835 L421.8069 -309.2835 L424.8069 -314.2835 Z" clip-path="url(#clipPath2)" stroke="none"/>
    </g>
    <g text-rendering="geometricPrecision" stroke-miterlimit="1.45" shape-rendering="geometricPrecision" font-family="sans-serif" transform="matrix(1,0,0,1,15,433)" stroke-linecap="butt">
      <text x="528.1688" xml:space="preserve" y="-352.6398" clip-path="url(#clipPath2)" stroke="none">weak:test</text>
      <path fill="none" stroke-dasharray="6,2" d="M74.7148 -296.3892 L84.7148 -296.3892 L93.9826 -294.6214 L101.7859 -289.3181 L106.0501 -285.054 L113.8534 -279.7506 L123.1211 -277.9829 L246.2754 -277.9829 L255.5432 -279.7506 L263.3465 -285.054 L267.6106 -289.3181 L274.9147 -294.6214 L282.6846 -296.3892 L290.6876 -296.3892" clip-path="url(#clipPath2)"/>
      <path stroke-dasharray="6,2" d="M298.6876 -296.3892 L286.6876 -301.3892 L289.6876 -296.3892 L286.6876 -291.3892 Z" clip-path="url(#clipPath2)" stroke="none"/>
      <text x="148.5508" xml:space="preserve" y="-263.1196" clip-path="url(#clipPath2)" stroke="none">weak:feature:derive</text>
      <path fill="none" stroke-dasharray="6,2" d="M74.7148 -303.5246 L290.7072 -303.5246" clip-path="url(#clipPath2)"/>
      <path stroke-dasharray="6,2" d="M298.7072 -303.5246 L286.7072 -308.5246 L289.7072 -303.5246 L286.7072 -298.5246 Z" clip-path="url(#clipPath2)" stroke="none"/>
      <text x="150.0333" xml:space="preserve" y="-288.6613" clip-path="url(#clipPath2)" stroke="none">weak:optional</text>
      <path fill="none" stroke-dasharray="6,2" d="M74.7148 -310.66 L84.7148 -310.66 L93.9826 -312.4278 L101.7859 -317.7311 L106.05 -321.9951 L113.8533 -327.2985 L123.121 -329.0662 L225.0628 -329.0662 L234.3306 -327.2985 L242.1339 -321.9951 L246.3979 -317.7311 L254.2013 -312.4278 L263.469 -310.66 L290.6904 -310.66" clip-path="url(#clipPath2)"/>
      <path stroke-dasharray="6,2" d="M298.6904 -310.66 L286.6904 -315.66 L289.6904 -310.66 L286.6904 -305.66 Z" clip-path="url(#clipPath2)" stroke="none"/>
      <text x="180.8734" xml:space="preserve" y="-315.703" clip-path="url(#clipPath2)" stroke="none">weak:test</text>
    </g>
    <g stroke-linecap="butt" transform="matrix(1,0,0,1,15,433)" fill="rgb(0,158,255)" text-rendering="geometricPrecision" shape-rendering="geometricPrecision" stroke="rgb(0,158,255)" stroke-width="2" stroke-miterlimit="1.45">
      <path fill="none" d="M412.8069 -298.2657 L426.1774 -298.2657 L435.4451 -296.4979 L443.2484 -291.1946 L449.0132 -285.4298 L456.8166 -280.1265 L466.0843 -278.3587 L626.5825 -278.3587 L634.41 -278.6862 L637.8925 -279.6686 L637.8925 -279.6686 L641.3749 -280.6511 L649.2023 -280.9786 L702.543 -280.9786" clip-path="url(#clipPath2)"/>
      <path d="M711.543 -280.9786 L698.043 -286.6036 L701.418 -280.9786 L698.043 -275.3536 Z" clip-path="url(#clipPath2)" stroke="none"/>
      <path fill="none" d="M112.0508 -179.946 L1184.2577 -179.946 L1195.2577 -180.946 L1195.2577 -180.946 L1206.2577 -181.9461 L1281.1899 -181.9461" clip-path="url(#clipPath2)" stroke="black"/>
      <path fill="black" d="M1290.1899 -181.9461 L1276.6899 -187.5711 L1280.0649 -181.9461 L1276.6899 -176.3211 Z" clip-path="url(#clipPath2)" stroke="none"/>
      <path fill="none" d="M1101.0432 -221.519 L1111.0432 -221.519 L1120.311 -219.7512 L1128.1143 -214.4479 L1142.8419 -199.7203 L1150.6453 -194.417 L1159.913 -192.6492 L1281.2017 -192.6492" clip-path="url(#clipPath2)" stroke="black"/>
      <path fill="black" d="M1290.2017 -192.6492 L1276.7017 -198.2742 L1280.0767 -192.6492 L1276.7017 -187.0242 Z" clip-path="url(#clipPath2)" stroke="none"/>
      <path fill="none" d="M816.9553 -133.9381 L979.9504 -133.9381" clip-path="url(#clipPath2)" stroke="rgb(191,4,4)"/>
      <path fill="rgb(191,4,4)" d="M988.9504 -133.9381 L975.4504 -139.5631 L978.8254 -133.9381 L975.4504 -128.3131 Z" clip-path="url(#clipPath2)" stroke="none"/>
    </g>
    <g fill="rgb(255,204,0)" text-rendering="geometricPrecision" shape-rendering="geometricPrecision" transform="matrix(1,0,0,1,15,433)" stroke="rgb(255,204,0)">
      <rect x="988.9924" width="110.7148" height="21.4062" y="-417.7424" clip-path="url(#clipPath2)" stroke="none"/>
      <rect x="988.9924" y="-417.7424" clip-path="url(#clipPath2)" fill="yellow" width="1" height="21.4062" stroke="none"/>
      <rect x="989.9924" y="-417.7424" clip-path="url(#clipPath2)" fill="yellow" width="108.7148" height="1" stroke="none"/>
      <rect x="989.9924" y="-397.3362" clip-path="url(#clipPath2)" fill="rgb(178,142,0)" width="109.7148" height="1" stroke="none"/>
      <rect x="1098.7073" y="-417.7424" clip-path="url(#clipPath2)" fill="rgb(178,142,0)" width="1" height="20.4062" stroke="none"/>
    </g>
    <g text-rendering="geometricPrecision" stroke-miterlimit="1.45" shape-rendering="geometricPrecision" font-family="sans-serif" transform="matrix(1,0,0,1,15,433)" stroke-linecap="butt">
      <text x="992.9924" xml:space="preserve" y="-402.8791" clip-path="url(#clipPath2)" stroke="none">doc-comment 0.3.1</text>
    </g>
    <g fill="rgb(255,204,0)" text-rendering="geometricPrecision" shape-rendering="geometricPrecision" transform="matrix(1,0,0,1,15,433)" stroke="rgb(255,204,0)">
      <rect x="0" width="62.7031" height="21.4062" y="-51.8674" clip-path="url(#clipPath2)" stroke="none"/>
      <rect x="0" y="-51.8674" clip-path="url(#clipPath2)" fill="yellow" width="1" height="21.4062" stroke="none"/>
      <rect x="1" y="-51.8674" clip-path="url(#clipPath2)" fill="yellow" width="60.7031" height="1" stroke="none"/>
      <rect x="1" y="-31.4612" clip-path="url(#clipPath2)" fill="rgb(178,142,0)" width="61.7031" height="1" stroke="none"/>
      <rect x="61.7031" y="-51.8674" clip-path="url(#clipPath2)" fill="rgb(178,142,0)" width="1" height="20.4062" stroke="none"/>
    </g>
    <g text-rendering="geometricPrecision" stroke-miterlimit="1.45" shape-rendering="geometricPrecision" font-family="sans-serif" transform="matrix(1,0,0,1,15,433)" stroke-linecap="butt">
      <text x="4" xml:space="preserve" y="-37.0041" clip-path="url(#clipPath2)" stroke="none">libc 0.2.50</text>
    </g>
    <g fill="rgb(255,204,0)" text-rendering="geometricPrecision" shape-rendering="geometricPrecision" transform="matrix(1,0,0,1,15,433)" stroke="rgb(255,204,0)">
      <rect x="298.7346" width="62.7031" height="21.4062" y="-104.7349" clip-path="url(#clipPath2)" stroke="none"/>
      <rect x="298.7346" y="-104.7349" clip-path="url(#clipPath2)" fill="yellow" width="1" height="21.4062" stroke="none"/>
      <rect x="299.7346" y="-104.7349" clip-path="url(#clipPath2)" fill="yellow" width="60.7031" height="1" stroke="none"/>
      <rect x="299.7346" y="-84.3286" clip-path="url(#clipPath2)" fill="rgb(178,142,0)" width="61.7031" height="1" stroke="none"/>
      <rect x="360.4377" y="-104.7349" clip-path="url(#clipPath2)" fill="rgb(178,142,0)" width="1" height="20.4062" stroke="none"/>
    </g>
    <g text-rendering="geometricPrecision" stroke-miterlimit="1.45" shape-rendering="geometricPrecision" font-family="sans-serif" transform="matrix(1,0,0,1,15,433)" stroke-linecap="butt">
      <text x="302.7346" xml:space="preserve" y="-89.8716" clip-path="url(#clipPath2)" stroke="none">libc 0.2.62</text>
    </g>
    <g fill="rgb(255,204,0)" text-rendering="geometricPrecision" shape-rendering="geometricPrecision" transform="matrix(1,0,0,1,15,433)" stroke="rgb(255,204,0)">
      <rect x="0" width="112.0508" height="21.4062" y="-190.6492" clip-path="url(#clipPath2)" stroke="none"/>
      <rect x="0" y="-190.6492" clip-path="url(#clipPath2)" fill="yellow" width="1" height="21.4062" stroke="none"/>
      <rect x="1" y="-190.6492" clip-path="url(#clipPath2)" fill="yellow" width="110.0508" height="1" stroke="none"/>
      <rect x="1" y="-170.2429" clip-path="url(#clipPath2)" fill="rgb(178,142,0)" width="111.0508" height="1" stroke="none"/>
      <rect x="111.0508" y="-190.6492" clip-path="url(#clipPath2)" fill="rgb(178,142,0)" width="1" height="20.4062" stroke="none"/>
    </g>
    <g text-rendering="geometricPrecision" stroke-miterlimit="1.45" shape-rendering="geometricPrecision" font-family="sans-serif" transform="matrix(1,0,0,1,15,433)" stroke-linecap="butt">
      <text x="4" xml:space="preserve" y="-175.7859" clip-path="url(#clipPath2)" stroke="none">proc-macro2 0.4.27</text>
    </g>
    <g fill="rgb(255,204,0)" text-rendering="geometricPrecision" shape-rendering="geometricPrecision" transform="matrix(1,0,0,1,15,433)" stroke="rgb(255,204,0)">
      <rect x="988.9924" width="112.0508" height="21.4062" y="-239.1908" clip-path="url(#clipPath2)" stroke="none"/>
      <rect x="988.9924" y="-239.1908" clip-path="url(#clipPath2)" fill="yellow" width="1" height="21.4062" stroke="none"/>
      <rect x="989.9924" y="-239.1908" clip-path="url(#clipPath2)" fill="yellow" width="110.0508" height="1" stroke="none"/>
      <rect x="989.9924" y="-218.7846" clip-path="url(#clipPath2)" fill="rgb(178,142,0)" width="111.0508" height="1" stroke="none"/>
      <rect x="1100.0432" y="-239.1908" clip-path="url(#clipPath2)" fill="rgb(178,142,0)" width="1" height="20.4062" stroke="none"/>
    </g>
    <g text-rendering="geometricPrecision" stroke-miterlimit="1.45" shape-rendering="geometricPrecision" font-family="sans-serif" transform="matrix(1,0,0,1,15,433)" stroke-linecap="butt">
      <text x="992.9924" xml:space="preserve" y="-224.3275" clip-path="url(#clipPath2)" stroke="none">proc-macro2 0.4.30</text>
    </g>
    <g fill="rgb(255,204,0)" text-rendering="geometricPrecision" shape-rendering="geometricPrecision" transform="matrix(1,0,0,1,15,433)" stroke="rgb(255,204,0)">
      <rect x="711.5784" width="105.377" height="21.4062" y="-144.6412" clip-path="url(#clipPath2)" stroke="none"/>
      <rect x="711.5784" y="-144.6412" clip-path="url(#clipPath2)" fill="yellow" width="1" height="21.4062" stroke="none"/>
      <rect x="712.5784" y="-144.6412" clip-path="url(#clipPath2)" fill="yellow" width="103.377" height="1" stroke="none"/>
      <rect x="712.5784" y="-124.235" clip-path="url(#clipPath2)" fill="rgb(178,142,0)" width="104.377" height="1" stroke="none"/>
      <rect x="815.9553" y="-144.6412" clip-path="url(#clipPath2)" fill="rgb(178,142,0)" width="1" height="20.4062" stroke="none"/>
    </g>
    <g text-rendering="geometricPrecision" stroke-miterlimit="1.45" shape-rendering="geometricPrecision" font-family="sans-serif" transform="matrix(1,0,0,1,15,433)" stroke-linecap="butt">
      <text x="715.5784" xml:space="preserve" y="-129.7779" clip-path="url(#clipPath2)" stroke="none">proc-macro2 1.0.5</text>
    </g>
    <g fill="rgb(255,204,0)" text-rendering="geometricPrecision" shape-rendering="geometricPrecision" transform="matrix(1,0,0,1,15,433)" stroke="rgb(255,204,0)">
      <rect x="0" width="74.7266" height="21.4062" y="-232.0555" clip-path="url(#clipPath2)" stroke="none"/>
      <rect x="0" y="-232.0555" clip-path="url(#clipPath2)" fill="yellow" width="1" height="21.4062" stroke="none"/>
      <rect x="1" y="-232.0555" clip-path="url(#clipPath2)" fill="yellow" width="72.7266" height="1" stroke="none"/>
      <rect x="1" y="-211.6493" clip-path="url(#clipPath2)" fill="rgb(178,142,0)" width="73.7266" height="1" stroke="none"/>
      <rect x="73.7266" y="-232.0555" clip-path="url(#clipPath2)" fill="rgb(178,142,0)" width="1" height="20.4062" stroke="none"/>
    </g>
    <g text-rendering="geometricPrecision" stroke-miterlimit="1.45" shape-rendering="geometricPrecision" font-family="sans-serif" transform="matrix(1,0,0,1,15,433)" stroke-linecap="butt">
      <text x="4" xml:space="preserve" y="-217.1922" clip-path="url(#clipPath2)" stroke="none">quote 0.6.11</text>
    </g>
    <g fill="rgb(255,204,0)" text-rendering="geometricPrecision" shape-rendering="geometricPrecision" transform="matrix(1,0,0,1,15,433)" stroke="rgb(255,204,0)">
      <rect x="1290.2359" width="74.7266" height="21.4062" y="-311.088" clip-path="url(#clipPath2)" stroke="none"/>
      <rect x="1290.2359" y="-311.088" clip-path="url(#clipPath2)" fill="yellow" width="1" height="21.4062" stroke="none"/>
      <rect x="1291.2359" y="-311.088" clip-path="url(#clipPath2)" fill="yellow" width="72.7266" height="1" stroke="none"/>
      <rect x="1291.2359" y="-290.6818" clip-path="url(#clipPath2)" fill="rgb(178,142,0)" width="73.7266" height="1" stroke="none"/>
      <rect x="1363.9624" y="-311.088" clip-path="url(#clipPath2)" fill="rgb(178,142,0)" width="1" height="20.4062" stroke="none"/>
    </g>
    <g text-rendering="geometricPrecision" stroke-miterlimit="1.45" shape-rendering="geometricPrecision" font-family="sans-serif" transform="matrix(1,0,0,1,15,433)" stroke-linecap="butt">
      <text x="1294.2358" xml:space="preserve" y="-296.2248" clip-path="url(#clipPath2)" stroke="none">quote 0.6.13</text>
    </g>
    <g fill="rgb(255,204,0)" text-rendering="geometricPrecision" shape-rendering="geometricPrecision" transform="matrix(1,0,0,1,15,433)" stroke="rgb(255,204,0)">
      <rect x="298.7346" width="68.0527" height="21.4062" y="-146.1412" clip-path="url(#clipPath2)" stroke="none"/>
      <rect x="298.7346" y="-146.1412" clip-path="url(#clipPath2)" fill="yellow" width="1" height="21.4062" stroke="none"/>
      <rect x="299.7346" y="-146.1412" clip-path="url(#clipPath2)" fill="yellow" width="66.0527" height="1" stroke="none"/>
      <rect x="299.7346" y="-125.735" clip-path="url(#clipPath2)" fill="rgb(178,142,0)" width="67.0527" height="1" stroke="none"/>
      <rect x="365.7873" y="-146.1412" clip-path="url(#clipPath2)" fill="rgb(178,142,0)" width="1" height="20.4062" stroke="none"/>
    </g>
    <g text-rendering="geometricPrecision" stroke-miterlimit="1.45" shape-rendering="geometricPrecision" font-family="sans-serif" transform="matrix(1,0,0,1,15,433)" stroke-linecap="butt">
      <text x="302.7346" xml:space="preserve" y="-131.2779" clip-path="url(#clipPath2)" stroke="none">quote 1.0.2</text>
    </g>
    <g fill="rgb(255,204,0)" text-rendering="geometricPrecision" shape-rendering="geometricPrecision" transform="matrix(1,0,0,1,15,433)" stroke="rgb(255,204,0)">
      <rect x="0" width="62.041" height="21.4062" y="-121.8341" clip-path="url(#clipPath2)" stroke="none"/>
      <rect x="0" y="-121.8341" clip-path="url(#clipPath2)" fill="yellow" width="1" height="21.4062" stroke="none"/>
      <rect x="1" y="-121.8341" clip-path="url(#clipPath2)" fill="yellow" width="60.041" height="1" stroke="none"/>
      <rect x="1" y="-101.4278" clip-path="url(#clipPath2)" fill="rgb(178,142,0)" width="61.041" height="1" stroke="none"/>
      <rect x="61.041" y="-121.8341" clip-path="url(#clipPath2)" fill="rgb(178,142,0)" width="1" height="20.4062" stroke="none"/>
    </g>
    <g text-rendering="geometricPrecision" stroke-miterlimit="1.45" shape-rendering="geometricPrecision" font-family="sans-serif" transform="matrix(1,0,0,1,15,433)" stroke-linecap="butt">
      <text x="4" xml:space="preserve" y="-106.9708" clip-path="url(#clipPath2)" stroke="none">rand 0.4.6</text>
    </g>
    <g fill="rgb(255,204,0)" text-rendering="geometricPrecision" shape-rendering="geometricPrecision" transform="matrix(1,0,0,1,15,433)" stroke="rgb(255,204,0)">
      <rect x="711.5784" width="116.7266" height="21.4062" y="-417.7424" clip-path="url(#clipPath2)" stroke="none"/>
      <rect x="711.5784" y="-417.7424" clip-path="url(#clipPath2)" fill="yellow" width="1" height="21.4062" stroke="none"/>
      <rect x="712.5784" y="-417.7424" clip-path="url(#clipPath2)" fill="yellow" width="114.7266" height="1" stroke="none"/>
      <rect x="712.5784" y="-397.3362" clip-path="url(#clipPath2)" fill="rgb(178,142,0)" width="115.7266" height="1" stroke="none"/>
      <rect x="827.3049" y="-417.7424" clip-path="url(#clipPath2)" fill="rgb(178,142,0)" width="1" height="20.4062" stroke="none"/>
    </g>
    <g text-rendering="geometricPrecision" stroke-miterlimit="1.45" shape-rendering="geometricPrecision" font-family="sans-serif" transform="matrix(1,0,0,1,15,433)" stroke-linecap="butt">
      <text x="715.5784" xml:space="preserve" y="-402.8791" clip-path="url(#clipPath2)" stroke="none">remove_dir_all 0.5.2</text>
    </g>
    <g fill="rgb(255,204,0)" text-rendering="geometricPrecision" shape-rendering="geometricPrecision" transform="matrix(1,0,0,1,15,433)" stroke="rgb(255,204,0)">
      <rect x="711.5784" width="172.7246" height="21.4062" y="-78.3011" clip-path="url(#clipPath2)" stroke="none"/>
      <rect x="711.5784" y="-78.3011" clip-path="url(#clipPath2)" fill="yellow" width="1" height="21.4062" stroke="none"/>
      <rect x="712.5784" y="-78.3011" clip-path="url(#clipPath2)" fill="yellow" width="170.7246" height="1" stroke="none"/>
      <rect x="712.5784" y="-57.8949" clip-path="url(#clipPath2)" fill="rgb(178,142,0)" width="171.7246" height="1" stroke="none"/>
      <rect x="883.303" y="-78.3011" clip-path="url(#clipPath2)" fill="rgb(178,142,0)" width="1" height="20.4062" stroke="none"/>
    </g>
    <g text-rendering="geometricPrecision" stroke-miterlimit="1.45" shape-rendering="geometricPrecision" font-family="sans-serif" transform="matrix(1,0,0,1,15,433)" stroke-linecap="butt">
      <text x="715.5784" xml:space="preserve" y="-63.4379" clip-path="url(#clipPath2)" stroke="none">rustc-std-workspace-core 1.0.0</text>
    </g>
    <g fill="rgb(255,204,0)" text-rendering="geometricPrecision" shape-rendering="geometricPrecision" transform="matrix(1,0,0,1,15,433)" stroke="rgb(255,204,0)">
      <rect x="711.5784" width="81.3887" height="21.4062" y="-333.088" clip-path="url(#clipPath2)" stroke="none"/>
      <rect x="711.5784" y="-333.088" clip-path="url(#clipPath2)" fill="yellow" width="1" height="21.4062" stroke="none"/>
      <rect x="712.5784" y="-333.088" clip-path="url(#clipPath2)" fill="yellow" width="79.3887" height="1" stroke="none"/>
      <rect x="712.5784" y="-312.6818" clip-path="url(#clipPath2)" fill="rgb(178,142,0)" width="80.3887" height="1" stroke="none"/>
      <rect x="791.967" y="-333.088" clip-path="url(#clipPath2)" fill="rgb(178,142,0)" width="1" height="20.4062" stroke="none"/>
    </g>
    <g text-rendering="geometricPrecision" stroke-miterlimit="1.45" shape-rendering="geometricPrecision" font-family="sans-serif" transform="matrix(1,0,0,1,15,433)" stroke-linecap="butt">
      <text x="715.5784" xml:space="preserve" y="-318.2248" clip-path="url(#clipPath2)" stroke="none">serde 1.0.101</text>
    </g>
    <g fill="rgb(255,204,0)" text-rendering="geometricPrecision" shape-rendering="geometricPrecision" transform="matrix(1,0,0,1,15,433)" stroke="rgb(255,204,0)">
      <rect x="0" width="74.7148" height="21.4062" y="-314.2277" clip-path="url(#clipPath2)" stroke="none"/>
      <rect x="0" y="-314.2277" clip-path="url(#clipPath2)" fill="yellow" width="1" height="21.4062" stroke="none"/>
      <rect x="1" y="-314.2277" clip-path="url(#clipPath2)" fill="yellow" width="72.7148" height="1" stroke="none"/>
      <rect x="1" y="-293.8215" clip-path="url(#clipPath2)" fill="rgb(178,142,0)" width="73.7148" height="1" stroke="none"/>
      <rect x="73.7148" y="-314.2277" clip-path="url(#clipPath2)" fill="rgb(178,142,0)" width="1" height="20.4062" stroke="none"/>
    </g>
    <g text-rendering="geometricPrecision" stroke-miterlimit="1.45" shape-rendering="geometricPrecision" font-family="sans-serif" transform="matrix(1,0,0,1,15,433)" stroke-linecap="butt">
      <text x="4" xml:space="preserve" y="-299.3644" clip-path="url(#clipPath2)" stroke="none">serde 1.0.89</text>
    </g>
    <g fill="rgb(255,204,0)" text-rendering="geometricPrecision" shape-rendering="geometricPrecision" transform="matrix(1,0,0,1,15,433)" stroke="rgb(255,204,0)">
      <rect x="298.7346" width="114.0723" height="21.4062" y="-314.2277" clip-path="url(#clipPath2)" stroke="none"/>
      <rect x="298.7346" y="-314.2277" clip-path="url(#clipPath2)" fill="yellow" width="1" height="21.4062" stroke="none"/>
      <rect x="299.7346" y="-314.2277" clip-path="url(#clipPath2)" fill="yellow" width="112.0723" height="1" stroke="none"/>
      <rect x="299.7346" y="-293.8215" clip-path="url(#clipPath2)" fill="rgb(178,142,0)" width="113.0723" height="1" stroke="none"/>
      <rect x="411.8068" y="-314.2277" clip-path="url(#clipPath2)" fill="rgb(178,142,0)" width="1" height="20.4062" stroke="none"/>
    </g>
    <g text-rendering="geometricPrecision" stroke-miterlimit="1.45" shape-rendering="geometricPrecision" font-family="sans-serif" transform="matrix(1,0,0,1,15,433)" stroke-linecap="butt">
      <text x="302.7346" xml:space="preserve" y="-299.3644" clip-path="url(#clipPath2)" stroke="none">serde_derive 1.0.89</text>
    </g>
    <g fill="rgb(255,204,0)" text-rendering="geometricPrecision" shape-rendering="geometricPrecision" transform="matrix(1,0,0,1,15,433)" stroke="rgb(255,204,0)">
      <rect x="711.5784" width="70.0449" height="21.4062" y="-291.6817" clip-path="url(#clipPath2)" stroke="none"/>
      <rect x="711.5784" y="-291.6817" clip-path="url(#clipPath2)" fill="yellow" width="1" height="21.4062" stroke="none"/>
      <rect x="712.5784" y="-291.6817" clip-path="url(#clipPath2)" fill="yellow" width="68.0449" height="1" stroke="none"/>
      <rect x="712.5784" y="-271.2754" clip-path="url(#clipPath2)" fill="rgb(178,142,0)" width="69.0449" height="1" stroke="none"/>
      <rect x="780.6233" y="-291.6817" clip-path="url(#clipPath2)" fill="rgb(178,142,0)" width="1" height="20.4062" stroke="none"/>
    </g>
    <g text-rendering="geometricPrecision" stroke-miterlimit="1.45" shape-rendering="geometricPrecision" font-family="sans-serif" transform="matrix(1,0,0,1,15,433)" stroke-linecap="butt">
      <text x="715.5784" xml:space="preserve" y="-276.8184" clip-path="url(#clipPath2)" stroke="none">syn 0.15.29</text>
    </g>
    <g fill="rgb(255,204,0)" text-rendering="geometricPrecision" shape-rendering="geometricPrecision" transform="matrix(1,0,0,1,15,433)" stroke="rgb(255,204,0)">
      <rect x="1290.2359" width="99.3945" height="21.4062" y="-198.0007" clip-path="url(#clipPath2)" stroke="none"/>
      <rect x="1290.2359" y="-198.0007" clip-path="url(#clipPath2)" fill="yellow" width="1" height="21.4062" stroke="none"/>
      <rect x="1291.2359" y="-198.0007" clip-path="url(#clipPath2)" fill="yellow" width="97.3945" height="1" stroke="none"/>
      <rect x="1291.2359" y="-177.5945" clip-path="url(#clipPath2)" fill="rgb(178,142,0)" width="98.3945" height="1" stroke="none"/>
      <rect x="1388.6304" y="-198.0007" clip-path="url(#clipPath2)" fill="rgb(178,142,0)" width="1" height="20.4062" stroke="none"/>
    </g>
    <g text-rendering="geometricPrecision" stroke-miterlimit="1.45" shape-rendering="geometricPrecision" font-family="sans-serif" transform="matrix(1,0,0,1,15,433)" stroke-linecap="butt">
      <text x="1294.2358" xml:space="preserve" y="-183.1375" clip-path="url(#clipPath2)" stroke="none">unicode-xid 0.1.0</text>
    </g>
    <g fill="rgb(255,204,0)" text-rendering="geometricPrecision" shape-rendering="geometricPrecision" transform="matrix(1,0,0,1,15,433)" stroke="rgb(255,204,0)">
      <rect x="988.9924" width="99.3945" height="21.4062" y="-144.6412" clip-path="url(#clipPath2)" stroke="none"/>
      <rect x="988.9924" y="-144.6412" clip-path="url(#clipPath2)" fill="yellow" width="1" height="21.4062" stroke="none"/>
      <rect x="989.9924" y="-144.6412" clip-path="url(#clipPath2)" fill="yellow" width="97.3945" height="1" stroke="none"/>
      <rect x="989.9924" y="-124.235" clip-path="url(#clipPath2)" fill="rgb(178,142,0)" width="98.3945" height="1" stroke="none"/>
      <rect x="1087.387" y="-144.6412" clip-path="url(#clipPath2)" fill="rgb(178,142,0)" width="1" height="20.4062" stroke="none"/>
    </g>
    <g text-rendering="geometricPrecision" stroke-miterlimit="1.45" shape-rendering="geometricPrecision" font-family="sans-serif" transform="matrix(1,0,0,1,15,433)" stroke-linecap="butt">
      <text x="992.9924" xml:space="preserve" y="-129.7779" clip-path="url(#clipPath2)" stroke="none">unicode-xid 0.2.0</text>
    </g>
  </g>
</svg>
