<?xml version="1.0" encoding="UTF-8"?><svg xmlns="http://www.w3.org/2000/svg" xmlns:xlink="http://www.w3.org/1999/xlink" fill-opacity="1" color-rendering="auto" color-interpolation="auto" text-rendering="auto" stroke="black" stroke-linecap="square" width="1248" stroke-miterlimit="10" shape-rendering="auto" stroke-opacity="1" fill="black" stroke-dasharray="none" font-weight="normal" stroke-width="1" height="360" font-family="'Dialog'" font-style="normal" stroke-linejoin="miter" font-size="12px" stroke-dashoffset="0" image-rendering="auto">
  <!--Generated by ySVG 2.5-->
  <defs id="genericDefs"/>
  <g>
    <defs id="defs1">
      <clipPath clipPathUnits="userSpaceOnUse" id="clipPath1">
        <path d="M0 0 L1248 0 L1248 360 L0 360 L0 0 Z"/>
      </clipPath>
      <clipPath clipPathUnits="userSpaceOnUse" id="clipPath2">
        <path d="M-15 -345 L1233 -345 L1233 15 L-15 15 L-15 -345 Z"/>
      </clipPath>
    </defs>
    <g fill="white" text-rendering="geometricPrecision" shape-rendering="geometricPrecision" transform="translate(15,345)" stroke="white">
      <rect x="-15" width="1248" height="360" y="-345" clip-path="url(#clipPath2)" stroke="none"/>
    </g>
    <g text-rendering="geometricPrecision" stroke-miterlimit="1.45" stroke-width="2" shape-rendering="geometricPrecision" transform="matrix(1,0,0,1,15,345)" stroke-linecap="butt">
      <path fill="none" d="M867.9693 -142.3298 L877.9693 -142.3298 L887.2371 -144.0975 L895.0403 -149.4008 L895.6262 -149.9866 L900.9294 -157.4231 L902.6972 -165.5904 L902.6972 -165.5904 L904.465 -173.7578 L909.7683 -181.1942 L910.3541 -181.78 L918.1574 -187.0833 L927.4252 -188.8511 L976.9339 -188.8511" clip-path="url(#clipPath2)"/>
      <path d="M985.9339 -188.8511 L972.4339 -194.4761 L975.8089 -188.8511 L972.4339 -183.2261 Z" clip-path="url(#clipPath2)" stroke="none"/>
      <path fill="none" d="M114.0723 -100.1416 L124.0723 -100.1416 L133.34 -101.9093 L141.1433 -107.2126 L141.7291 -107.7984 L147.0324 -115.6017 L148.8002 -124.8695 L148.8002 -180.3943 L150.5679 -189.6621 L155.8712 -197.4654 L156.457 -198.0511 L164.2603 -203.3545 L173.5281 -205.1222 L875.605 -205.1222 L886.6052 -204.1221 L886.6052 -204.1221 L897.6053 -203.1219 L976.9193 -203.1219" clip-path="url(#clipPath2)" stroke="rgb(191,4,4)"/>
      <path fill="rgb(191,4,4)" d="M985.9193 -203.1219 L972.4193 -208.7469 L975.7943 -203.1219 L972.4193 -197.4969 Z" clip-path="url(#clipPath2)" stroke="none"/>
      <path fill="none" d="M508.9795 -174.58 L518.9796 -174.58 L528.2473 -176.3477 L536.0506 -181.651 L543.3151 -188.9155 L551.1183 -194.2188 L560.3861 -195.9865 L976.9407 -195.9865" clip-path="url(#clipPath2)" stroke="rgb(0,158,255)"/>
      <path fill="rgb(0,158,255)" d="M985.9407 -195.9865 L972.4407 -201.6115 L975.8157 -195.9865 L972.4407 -190.3615 Z" clip-path="url(#clipPath2)" stroke="none"/>
      <path fill="none" d="M114.0723 -93.4541 L151.2999 -93.4541 L162.05 -94.2042 L162.05 -94.2042 L172.8002 -94.9544 L706.5441 -94.9544 L715.8118 -96.7221 L723.6151 -102.0254 L748.2859 -126.6962 L756.0892 -131.9995 L765.357 -133.7673 L784.2057 -133.7673" clip-path="url(#clipPath2)" stroke="rgb(191,4,4)"/>
      <path fill="rgb(191,4,4)" d="M793.2057 -133.7673 L779.7057 -139.3923 L783.0807 -133.7673 L779.7057 -128.1423 Z" clip-path="url(#clipPath2)" stroke="none"/>
      <path fill="none" d="M508.9795 -170.2987 L521.6983 -170.2987 L530.9661 -172.0665 L538.7693 -177.3698 L544.0336 -182.634 L551.8369 -187.9373 L561.1047 -189.7051 L696.1378 -189.7051 L705.4055 -187.9373 L713.2088 -182.634 L737.8796 -157.9633 L745.6829 -152.66 L754.9506 -150.8923 L784.1956 -150.8923" clip-path="url(#clipPath2)" stroke="rgb(0,158,255)"/>
      <path fill="rgb(0,158,255)" d="M793.1956 -150.8923 L779.6956 -156.5173 L783.0706 -150.8923 L779.6956 -145.2673 Z" clip-path="url(#clipPath2)" stroke="none"/>
      <text x="626.4151" y="-175.8418" clip-path="url(#clipPath2)" font-family="sans-serif" stroke="none" stroke-width="1" xml:space="preserve">feature:default</text>
      <path fill="none" d="M508.9795 -157.455 L518.9796 -157.455 L528.2473 -155.6872 L536.0506 -150.3839 L560.7214 -125.7131 L568.5247 -120.4098 L577.7925 -118.642 L716.5132 -118.642 L725.7809 -120.4098 L733.5842 -125.7131 L738.8486 -130.9774 L746.6519 -136.2807 L755.9197 -138.0485 L784.1965 -138.0485" clip-path="url(#clipPath2)" stroke="rgb(0,158,255)"/>
      <path fill="rgb(0,158,255)" d="M793.1965 -138.0485 L779.6965 -143.6735 L783.0715 -138.0485 L779.6965 -132.4235 Z" clip-path="url(#clipPath2)" stroke="none"/>
      <text x="591.4536" y="-103.7787" clip-path="url(#clipPath2)" font-family="sans-serif" stroke="none" stroke-width="1" xml:space="preserve">weak:feature:printing</text>
      <path fill="none" d="M508.9795 -161.7362 L521.6983 -161.7362 L530.9661 -159.9684 L538.7693 -154.6651 L544.0338 -149.4008 L551.837 -144.0975 L561.1048 -142.3297 L784.2132 -142.3298" clip-path="url(#clipPath2)" stroke="rgb(0,158,255)"/>
      <path fill="rgb(0,158,255)" d="M793.2132 -142.3298 L779.7132 -147.9548 L783.0882 -142.3298 L779.7132 -136.7048 Z" clip-path="url(#clipPath2)" stroke="none"/>
      <text x="601.2509" y="-127.4664" clip-path="url(#clipPath2)" font-family="sans-serif" stroke="none" stroke-width="1" xml:space="preserve">weak:feature:proc-macro</text>
      <path fill="none" d="M508.9795 -166.0175 L712.8255 -166.0174 L722.0933 -164.2496 L729.8965 -158.9463 L735.1608 -153.6821 L742.9641 -148.3788 L752.2319 -146.611 L784.1929 -146.611" clip-path="url(#clipPath2)" stroke="rgb(0,158,255)"/>
      <path fill="rgb(0,158,255)" d="M793.1929 -146.611 L779.6929 -152.236 L783.0679 -146.611 L779.6929 -140.986 Z" clip-path="url(#clipPath2)" stroke="none"/>
      <text x="646.4427" y="-152.1541" clip-path="url(#clipPath2)" font-family="sans-serif" stroke="none" stroke-width="1" xml:space="preserve">weak:optional</text>
      <path fill="none" d="M501.6377 -299.3961 L728.188 -299.396 L737.4557 -297.6282 L745.259 -292.3249 L750.5233 -287.0608 L758.3265 -281.7574 L767.5943 -279.9897 L784.2079 -279.9897" clip-path="url(#clipPath2)"/>
      <path d="M793.2079 -279.9897 L779.7079 -285.6147 L783.0829 -279.9897 L779.7079 -274.3647 Z" clip-path="url(#clipPath2)" stroke="none"/>
      <text x="579.1177" y="-285.5327" clip-path="url(#clipPath2)" font-family="sans-serif" stroke="none" stroke-width="1" xml:space="preserve">weak:feature:rustc-dep-of-std</text>
      <path fill="none" d="M501.6377 -310.0992 L511.6378 -310.0992 L520.9055 -311.8669 L528.7088 -317.1703 L533.973 -322.4344 L541.7763 -327.7377 L551.0441 -329.5055 L718.0785 -329.5055 L727.3463 -327.7377 L735.1495 -322.4344 L765.1717 -292.4123 L771.9698 -287.109 L778.2222 -285.3412 L784.2017 -285.3412" clip-path="url(#clipPath2)"/>
      <path d="M793.2017 -285.3412 L779.7017 -290.9662 L783.0767 -285.3412 L779.7017 -279.7162 Z" clip-path="url(#clipPath2)" stroke="none"/>
      <text x="597.8699" y="-314.6422" clip-path="url(#clipPath2)" font-family="sans-serif" stroke="none" stroke-width="1" xml:space="preserve">weak:optional</text>
      <path fill="none" d="M501.6377 -244.5286 L728.188 -244.5285 L737.4557 -246.2963 L745.259 -251.5996 L755.8749 -262.2155 L763.6782 -267.5188 L772.946 -269.2866 L784.2131 -269.2866" clip-path="url(#clipPath2)"/>
      <path d="M793.2131 -269.2866 L779.7131 -274.9116 L783.0881 -269.2866 L779.7131 -263.6616 Z" clip-path="url(#clipPath2)" stroke="none"/>
      <text x="579.1177" y="-229.6652" clip-path="url(#clipPath2)" font-family="sans-serif" stroke="none" stroke-width="1" xml:space="preserve">weak:feature:rustc-dep-of-std</text>
      <path fill="none" d="M501.6377 -255.2317 L511.6378 -255.2317 L520.9055 -256.9995 L528.7088 -262.3028 L533.973 -267.567 L541.7763 -272.8703 L551.0441 -274.638 L784.212 -274.6381" clip-path="url(#clipPath2)"/>
      <path d="M793.212 -274.6381 L779.712 -280.2631 L783.087 -274.6381 L779.712 -269.0131 Z" clip-path="url(#clipPath2)" stroke="none"/>
      <text x="625.8895" y="-259.7748" clip-path="url(#clipPath2)" font-family="sans-serif" stroke="none" stroke-width="1" xml:space="preserve">weak:optional</text>
    </g>
    <g stroke-linecap="butt" transform="matrix(1,0,0,1,15,345)" fill="rgb(191,4,4)" text-rendering="geometricPrecision" shape-rendering="geometricPrecision" stroke-dasharray="6,2" stroke="rgb(191,4,4)" stroke-miterlimit="1.45">
      <path fill="none" d="M114.0723 -90.6103 L379.5645 -90.6103 L388.8323 -88.8425 L396.6356 -83.5392 L396.9285 -83.2463 L402.2318 -75.723 L403.9996 -67.2954 L403.9996 -67.2954 L405.7673 -58.8677 L411.0706 -51.3445 L411.3635 -51.0516 L418.2243 -45.7483 L424.6646 -43.9805 L430.8946 -43.9805" clip-path="url(#clipPath2)"/>
      <path d="M438.8946 -43.9805 L426.8946 -48.9805 L429.8946 -43.9805 L426.8946 -38.9805 Z" clip-path="url(#clipPath2)" stroke="none"/>
    </g>
    <g text-rendering="geometricPrecision" stroke-miterlimit="1.45" shape-rendering="geometricPrecision" font-family="sans-serif" transform="matrix(1,0,0,1,15,345)" stroke-linecap="butt">
      <text x="333.3895" xml:space="preserve" y="-79.2326" clip-path="url(#clipPath2)" stroke="none">weak:test</text>
      <path fill="none" d="M438.9071 -32.7774 L336.402 -32.7774 L327.5237 -31.399 L320.8885 -27.2639 L320.8885 -27.2639 L314.2534 -23.1288 L305.3751 -21.7504 L179.7352 -21.7504 L170.4675 -23.5182 L162.6642 -28.8215 L162.0784 -29.4073 L156.7751 -37.2106 L155.0073 -46.4784 L155.0073 -57.144 L153.2395 -66.4118 L147.9362 -74.2151 L144.7996 -77.3518 L137.6642 -82.6551 L130.4004 -84.4228 L123.0723 -84.4228" stroke-width="2" clip-path="url(#clipPath2)"/>
      <path d="M114.0723 -84.4228 L127.5723 -78.7978 L124.1973 -84.4228 L127.5723 -90.0478 Z" stroke-width="2" clip-path="url(#clipPath2)" stroke="none"/>
      <text x="203.4608" xml:space="preserve" y="-23.1038" clip-path="url(#clipPath2)" stroke="none">weak:feature:derive</text>
      <path fill="none" d="M438.9059 -38.629 L331.247 -38.629 L323.013 -39.3629 L318.311 -41.5649 L318.311 -41.5649 L313.6091 -43.7669 L305.3751 -44.5008 L194.6505 -44.5008 L185.3827 -46.2686 L177.5794 -51.5719 L148.4558 -80.6955 L140.8635 -85.9988 L132.2285 -87.7666 L123.0723 -87.7666" stroke-width="2" clip-path="url(#clipPath2)"/>
      <path d="M114.0723 -87.7666 L127.5723 -82.1416 L124.1973 -87.7666 L127.5723 -93.3916 Z" stroke-width="2" clip-path="url(#clipPath2)" stroke="none"/>
      <text x="213.3214" xml:space="preserve" y="-51.0438" clip-path="url(#clipPath2)" stroke="none">weak:optional</text>
      <path fill="none" stroke-dasharray="6,2" d="M438.8866 -27.4258 L350.5505 -27.4258 L341.2827 -25.6581 L333.4794 -20.3548 L320.1958 -7.0711 L312.3925 -1.7678 L303.1247 -0 L172.9423 -0 L163.6746 -1.7678 L155.8713 -7.0711 L155.5784 -7.364 L150.2751 -15.1673 L148.5073 -24.4351 L148.5073 -57.144 L146.7395 -66.4118 L141.4362 -74.2151 L141.1433 -74.508 L134.34 -79.8113 L128.0723 -81.5791 L122.0723 -81.5791" clip-path="url(#clipPath2)"/>
      <path stroke-dasharray="6,2" d="M114.0723 -81.5791 L126.0723 -76.5791 L123.0723 -81.5791 L126.0723 -86.5791 Z" clip-path="url(#clipPath2)" stroke="none"/>
      <text x="212.6888" xml:space="preserve" y="-6.543" clip-path="url(#clipPath2)" stroke="none">weak:test</text>
    </g>
    <g stroke-linecap="butt" transform="matrix(1,0,0,1,15,345)" fill="rgb(191,4,4)" text-rendering="geometricPrecision" shape-rendering="geometricPrecision" stroke="rgb(191,4,4)" stroke-width="2" stroke-miterlimit="1.45">
      <path fill="none" d="M114.0723 -96.7978 L127.7285 -96.7978 L136.9963 -98.5656 L144.7996 -103.8689 L148.7291 -107.7984 L154.0324 -115.6017 L155.8002 -124.8695 L155.8002 -141.2895 L157.5679 -150.5573 L162.8712 -158.3606 L163.457 -158.9464 L171.2603 -164.2497 L180.5281 -166.0175 L429.9019 -166.0175" clip-path="url(#clipPath2)"/>
      <path d="M438.9019 -166.0175 L425.4019 -171.6425 L428.7769 -166.0175 L425.4019 -160.3925 Z" clip-path="url(#clipPath2)" stroke="none"/>
      <path fill="none" d="M1098.0181 -195.9865 L1108.979 -195.9865" clip-path="url(#clipPath2)" stroke="black"/>
      <path fill="black" d="M1117.979 -195.9865 L1104.479 -201.6115 L1107.854 -195.9865 L1104.479 -190.3615 Z" clip-path="url(#clipPath2)" stroke="none"/>
    </g>
    <g fill="rgb(255,204,0)" text-rendering="geometricPrecision" shape-rendering="geometricPrecision" transform="matrix(1,0,0,1,15,345)" stroke="rgb(255,204,0)">
      <rect x="438.9346" width="62.7031" height="21.4062" y="-315.4507" clip-path="url(#clipPath2)" stroke="none"/>
      <rect x="438.9346" y="-315.4507" clip-path="url(#clipPath2)" fill="yellow" width="1" height="21.4062" stroke="none"/>
      <rect x="439.9346" y="-315.4507" clip-path="url(#clipPath2)" fill="yellow" width="60.7031" height="1" stroke="none"/>
      <rect x="439.9346" y="-295.0445" clip-path="url(#clipPath2)" fill="rgb(178,142,0)" width="61.7031" height="1" stroke="none"/>
      <rect x="500.6377" y="-315.4507" clip-path="url(#clipPath2)" fill="rgb(178,142,0)" width="1" height="20.4062" stroke="none"/>
    </g>
    <g text-rendering="geometricPrecision" stroke-miterlimit="1.45" shape-rendering="geometricPrecision" font-family="sans-serif" transform="matrix(1,0,0,1,15,345)" stroke-linecap="butt">
      <text x="442.9346" xml:space="preserve" y="-300.5875" clip-path="url(#clipPath2)" stroke="none">libc 0.2.50</text>
    </g>
    <g fill="rgb(255,204,0)" text-rendering="geometricPrecision" shape-rendering="geometricPrecision" transform="matrix(1,0,0,1,15,345)" stroke="rgb(255,204,0)">
      <rect x="438.9346" width="62.7031" height="21.4062" y="-260.5833" clip-path="url(#clipPath2)" stroke="none"/>
      <rect x="438.9346" y="-260.5833" clip-path="url(#clipPath2)" fill="yellow" width="1" height="21.4062" stroke="none"/>
      <rect x="439.9346" y="-260.5833" clip-path="url(#clipPath2)" fill="yellow" width="60.7031" height="1" stroke="none"/>
      <rect x="439.9346" y="-240.177" clip-path="url(#clipPath2)" fill="rgb(178,142,0)" width="61.7031" height="1" stroke="none"/>
      <rect x="500.6377" y="-260.5833" clip-path="url(#clipPath2)" fill="rgb(178,142,0)" width="1" height="20.4062" stroke="none"/>
    </g>
    <g text-rendering="geometricPrecision" stroke-miterlimit="1.45" shape-rendering="geometricPrecision" font-family="sans-serif" transform="matrix(1,0,0,1,15,345)" stroke-linecap="butt">
      <text x="442.9346" xml:space="preserve" y="-245.72" clip-path="url(#clipPath2)" stroke="none">libc 0.2.62</text>
    </g>
    <g fill="rgb(255,204,0)" text-rendering="geometricPrecision" shape-rendering="geometricPrecision" transform="matrix(1,0,0,1,15,345)" stroke="rgb(255,204,0)">
      <rect x="985.9673" width="112.0508" height="21.4062" y="-206.6896" clip-path="url(#clipPath2)" stroke="none"/>
      <rect x="985.9673" y="-206.6896" clip-path="url(#clipPath2)" fill="yellow" width="1" height="21.4062" stroke="none"/>
      <rect x="986.9673" y="-206.6896" clip-path="url(#clipPath2)" fill="yellow" width="110.0508" height="1" stroke="none"/>
      <rect x="986.9673" y="-186.2834" clip-path="url(#clipPath2)" fill="rgb(178,142,0)" width="111.0508" height="1" stroke="none"/>
      <rect x="1097.0181" y="-206.6896" clip-path="url(#clipPath2)" fill="rgb(178,142,0)" width="1" height="20.4062" stroke="none"/>
    </g>
    <g text-rendering="geometricPrecision" stroke-miterlimit="1.45" shape-rendering="geometricPrecision" font-family="sans-serif" transform="matrix(1,0,0,1,15,345)" stroke-linecap="butt">
      <text x="989.9673" xml:space="preserve" y="-191.8264" clip-path="url(#clipPath2)" stroke="none">proc-macro2 0.4.27</text>
    </g>
    <g fill="rgb(255,204,0)" text-rendering="geometricPrecision" shape-rendering="geometricPrecision" transform="matrix(1,0,0,1,15,345)" stroke="rgb(255,204,0)">
      <rect x="793.2427" width="74.7266" height="21.4062" y="-153.0329" clip-path="url(#clipPath2)" stroke="none"/>
      <rect x="793.2427" y="-153.0329" clip-path="url(#clipPath2)" fill="yellow" width="1" height="21.4062" stroke="none"/>
      <rect x="794.2427" y="-153.0329" clip-path="url(#clipPath2)" fill="yellow" width="72.7266" height="1" stroke="none"/>
      <rect x="794.2427" y="-132.6266" clip-path="url(#clipPath2)" fill="rgb(178,142,0)" width="73.7266" height="1" stroke="none"/>
      <rect x="866.9693" y="-153.0329" clip-path="url(#clipPath2)" fill="rgb(178,142,0)" width="1" height="20.4062" stroke="none"/>
    </g>
    <g text-rendering="geometricPrecision" stroke-miterlimit="1.45" shape-rendering="geometricPrecision" font-family="sans-serif" transform="matrix(1,0,0,1,15,345)" stroke-linecap="butt">
      <text x="797.2427" xml:space="preserve" y="-138.1696" clip-path="url(#clipPath2)" stroke="none">quote 0.6.11</text>
    </g>
    <g fill="rgb(255,204,0)" text-rendering="geometricPrecision" shape-rendering="geometricPrecision" transform="matrix(1,0,0,1,15,345)" stroke="rgb(255,204,0)">
      <rect x="793.2427" width="172.7246" height="21.4062" y="-288.017" clip-path="url(#clipPath2)" stroke="none"/>
      <rect x="793.2427" y="-288.017" clip-path="url(#clipPath2)" fill="yellow" width="1" height="21.4062" stroke="none"/>
      <rect x="794.2427" y="-288.017" clip-path="url(#clipPath2)" fill="yellow" width="170.7246" height="1" stroke="none"/>
      <rect x="794.2427" y="-267.6108" clip-path="url(#clipPath2)" fill="rgb(178,142,0)" width="171.7246" height="1" stroke="none"/>
      <rect x="964.9673" y="-288.017" clip-path="url(#clipPath2)" fill="rgb(178,142,0)" width="1" height="20.4062" stroke="none"/>
    </g>
    <g text-rendering="geometricPrecision" stroke-miterlimit="1.45" shape-rendering="geometricPrecision" font-family="sans-serif" transform="matrix(1,0,0,1,15,345)" stroke-linecap="butt">
      <text x="797.2427" xml:space="preserve" y="-273.1537" clip-path="url(#clipPath2)" stroke="none">rustc-std-workspace-core 1.0.0</text>
    </g>
    <g fill="rgb(255,204,0)" text-rendering="geometricPrecision" shape-rendering="geometricPrecision" transform="matrix(1,0,0,1,15,345)" stroke="rgb(255,204,0)">
      <rect x="438.9346" width="74.7148" height="21.4062" y="-46.4063" clip-path="url(#clipPath2)" stroke="none"/>
      <rect x="438.9346" y="-46.4063" clip-path="url(#clipPath2)" fill="yellow" width="1" height="21.4062" stroke="none"/>
      <rect x="439.9346" y="-46.4063" clip-path="url(#clipPath2)" fill="yellow" width="72.7148" height="1" stroke="none"/>
      <rect x="439.9346" y="-26" clip-path="url(#clipPath2)" fill="rgb(178,142,0)" width="73.7148" height="1" stroke="none"/>
      <rect x="512.6495" y="-46.4063" clip-path="url(#clipPath2)" fill="rgb(178,142,0)" width="1" height="20.4062" stroke="none"/>
    </g>
    <g text-rendering="geometricPrecision" stroke-miterlimit="1.45" shape-rendering="geometricPrecision" font-family="sans-serif" transform="matrix(1,0,0,1,15,345)" stroke-linecap="butt">
      <text x="442.9346" xml:space="preserve" y="-31.543" clip-path="url(#clipPath2)" stroke="none">serde 1.0.89</text>
    </g>
    <g fill="rgb(255,204,0)" text-rendering="geometricPrecision" shape-rendering="geometricPrecision" transform="matrix(1,0,0,1,15,345)" stroke="rgb(255,204,0)">
      <rect x="0" width="114.0723" height="21.4062" y="-101.8134" clip-path="url(#clipPath2)" stroke="none"/>
      <rect x="0" y="-101.8134" clip-path="url(#clipPath2)" fill="yellow" width="1" height="21.4062" stroke="none"/>
      <rect x="1" y="-101.8134" clip-path="url(#clipPath2)" fill="yellow" width="112.0723" height="1" stroke="none"/>
      <rect x="1" y="-81.4072" clip-path="url(#clipPath2)" fill="rgb(178,142,0)" width="113.0723" height="1" stroke="none"/>
      <rect x="113.0723" y="-101.8134" clip-path="url(#clipPath2)" fill="rgb(178,142,0)" width="1" height="20.4062" stroke="none"/>
    </g>
    <g text-rendering="geometricPrecision" stroke-miterlimit="1.45" shape-rendering="geometricPrecision" font-family="sans-serif" transform="matrix(1,0,0,1,15,345)" stroke-linecap="butt">
      <text x="4" xml:space="preserve" y="-86.9502" clip-path="url(#clipPath2)" stroke="none">serde_derive 1.0.89</text>
    </g>
    <g fill="rgb(255,204,0)" text-rendering="geometricPrecision" shape-rendering="geometricPrecision" transform="matrix(1,0,0,1,15,345)" stroke="rgb(255,204,0)">
      <rect x="438.9346" width="70.0449" height="21.4062" y="-176.7206" clip-path="url(#clipPath2)" stroke="none"/>
      <rect x="438.9346" y="-176.7206" clip-path="url(#clipPath2)" fill="yellow" width="1" height="21.4062" stroke="none"/>
      <rect x="439.9346" y="-176.7206" clip-path="url(#clipPath2)" fill="yellow" width="68.0449" height="1" stroke="none"/>
      <rect x="439.9346" y="-156.3143" clip-path="url(#clipPath2)" fill="rgb(178,142,0)" width="69.0449" height="1" stroke="none"/>
      <rect x="507.9795" y="-176.7206" clip-path="url(#clipPath2)" fill="rgb(178,142,0)" width="1" height="20.4062" stroke="none"/>
    </g>
    <g text-rendering="geometricPrecision" stroke-miterlimit="1.45" shape-rendering="geometricPrecision" font-family="sans-serif" transform="matrix(1,0,0,1,15,345)" stroke-linecap="butt">
      <text x="442.9346" xml:space="preserve" y="-161.8573" clip-path="url(#clipPath2)" stroke="none">syn 0.15.29</text>
    </g>
    <g fill="rgb(255,204,0)" text-rendering="geometricPrecision" shape-rendering="geometricPrecision" transform="matrix(1,0,0,1,15,345)" stroke="rgb(255,204,0)">
      <rect x="1118.0181" width="99.3945" height="21.4062" y="-206.6896" clip-path="url(#clipPath2)" stroke="none"/>
      <rect x="1118.0181" y="-206.6896" clip-path="url(#clipPath2)" fill="yellow" width="1" height="21.4062" stroke="none"/>
      <rect x="1119.0181" y="-206.6896" clip-path="url(#clipPath2)" fill="yellow" width="97.3945" height="1" stroke="none"/>
      <rect x="1119.0181" y="-186.2834" clip-path="url(#clipPath2)" fill="rgb(178,142,0)" width="98.3945" height="1" stroke="none"/>
      <rect x="1216.4127" y="-206.6896" clip-path="url(#clipPath2)" fill="rgb(178,142,0)" width="1" height="20.4062" stroke="none"/>
    </g>
    <g text-rendering="geometricPrecision" stroke-miterlimit="1.45" shape-rendering="geometricPrecision" font-family="sans-serif" transform="matrix(1,0,0,1,15,345)" stroke-linecap="butt">
      <text x="1122.0181" xml:space="preserve" y="-191.8264" clip-path="url(#clipPath2)" stroke="none">unicode-xid 0.1.0</text>
    </g>
  </g>
</svg>
