<?xml version="1.0" encoding="UTF-8"?><svg xmlns="http://www.w3.org/2000/svg" xmlns:xlink="http://www.w3.org/1999/xlink" fill-opacity="1" color-rendering="auto" color-interpolation="auto" text-rendering="auto" stroke="black" stroke-linecap="square" width="2184" stroke-miterlimit="10" shape-rendering="auto" stroke-opacity="1" fill="black" stroke-dasharray="none" font-weight="normal" stroke-width="1" height="955" font-family="'Dialog'" font-style="normal" stroke-linejoin="miter" font-size="12px" stroke-dashoffset="0" image-rendering="auto">
  <!--Generated by ySVG 2.5-->
  <defs id="genericDefs"/>
  <g>
    <defs id="defs1">
      <clipPath clipPathUnits="userSpaceOnUse" id="clipPath1">
        <path d="M0 0 L2184 0 L2184 955 L0 955 L0 0 Z"/>
      </clipPath>
      <clipPath clipPathUnits="userSpaceOnUse" id="clipPath2">
        <path d="M-1270 -445 L914 -445 L914 510 L-1270 510 L-1270 -445 Z"/>
      </clipPath>
    </defs>
    <g fill="white" text-rendering="geometricPrecision" shape-rendering="geometricPrecision" transform="translate(1270,445)" stroke="white">
      <rect x="-1270" width="2184" height="955" y="-445" clip-path="url(#clipPath2)" stroke="none"/>
    </g>
    <g text-rendering="geometricPrecision" stroke-miterlimit="1.45" stroke-width="2" shape-rendering="geometricPrecision" transform="matrix(1,0,0,1,1270,445)" stroke-linecap="butt">
      <path fill="none" d="M-1121.6145 135.3246 L-1168.5968 140.9931" clip-path="url(#clipPath2)"/>
      <path d="M-1177.532 142.0712 L-1163.4554 146.0386 L-1167.4799 140.8584 L-1164.803 134.8696 Z" clip-path="url(#clipPath2)" stroke="none"/>
      <path fill="none" d="M-1055.1143 270.1415 L-1071.7163 259.4878 L-1088.3683 248.4151 L-1099.8446 240.5115 L-1116.1285 228.9042 L-1127.647 220.4097 L-1143.5485 208.2837 L-1155.087 199.1879 L-1170.5923 186.5591 L-1182.1288 176.8526 L-1196.4092 164.5628 L-1196.4092 164.5628 L-1203.7437 158.0678 L-1204.4495 157.4245" clip-path="url(#clipPath2)" stroke="rgb(191,4,4)"/>
      <path fill="rgb(191,4,4)" d="M-1204.4495 157.4245 L-1198.261 170.6756 L-1196.9663 164.2448 L-1190.6827 162.361 Z" clip-path="url(#clipPath2)" stroke="none"/>
      <path fill="none" stroke-dasharray="6,2" d="M-104.6103 -124.6358 L-106.4718 -127.4625 L-113.4901 -138.6326 L-113.4901 -138.6326 L-123.5718 -155.4809 L-123.5718 -155.4809 L-133.1863 -172.6474 L-133.1863 -172.6474 L-142.3266 -190.1222 L-142.3266 -190.1222 L-150.9857 -207.8949 L-150.9857 -207.8949 L-159.1571 -225.9554 L-159.1571 -225.9554 L-166.8342 -244.2931 L-166.8342 -244.2931 L-170.6425 -253.7849 L-170.7368 -254.0398" stroke-width="1" clip-path="url(#clipPath2)"/>
      <path stroke-dasharray="6,2" d="M-173.5103 -261.5437 L-174.0399 -248.5545 L-170.3901 -253.1019 L-164.6601 -252.0214 Z" stroke-width="1" clip-path="url(#clipPath2)" stroke="none"/>
      <text x="-142.5861" y="-111.7755" clip-path="url(#clipPath2)" font-family="sans-serif" stroke="none" stroke-width="1" xml:space="preserve">weak:test</text>
      <path fill="none" stroke-dasharray="6,2" d="M-266.0597 -408.1676 L-188.8274 -289.684" stroke-width="1" clip-path="url(#clipPath2)"/>
      <path stroke-dasharray="6,2" d="M-184.4588 -282.9821 L-186.823 -295.7653 L-189.3734 -290.5217 L-195.2003 -290.3046 Z" stroke-width="1" clip-path="url(#clipPath2)" stroke="none"/>
      <text x="-215.5813" y="-341.4071" clip-path="url(#clipPath2)" font-family="sans-serif" stroke="none" stroke-width="1" xml:space="preserve">weak:test</text>
      <path fill="none" d="M-41.707 0.6084 L-110.6114 1.6135" clip-path="url(#clipPath2)"/>
      <path d="M-119.6104 1.7448 L-106.0298 7.1723 L-109.4865 1.5971 L-106.1939 -4.0765 Z" clip-path="url(#clipPath2)" stroke="none"/>
      <path fill="none" d="M136.1876 -107.0061 L141.6797 -109.551 L155.5278 -115.5213 L155.5278 -115.5213 L172.4337 -122.0132 L172.4337 -122.0132 L189.7148 -127.7806 L189.7148 -127.7806 L207.3465 -132.8096 L207.3465 -132.8096 L225.3038 -137.0875 L225.3038 -137.0875 L243.5614 -140.6019 L243.5614 -140.6019 L257.1907 -142.7243 L261.6194 -143.2819" clip-path="url(#clipPath2)"/>
      <path d="M261.6194 -143.2819 L247.5225 -147.1766 L251.5737 -142.0172 L248.9277 -136.0147 Z" clip-path="url(#clipPath2)" stroke="none"/>
      <path fill="none" d="M-9.1704 -10.7093 L-82.5382 -96.3888" clip-path="url(#clipPath2)"/>
      <path d="M-88.392 -103.2249 L-83.8838 -89.3121 L-81.8064 -95.5343 L-75.3387 -96.6293 Z" clip-path="url(#clipPath2)" stroke="none"/>
      <path fill="none" d="M-810.592 313.666 L-809.8431 309.7968 L-807.1111 296.8336 L-807.1111 296.8336 L-802.9493 278.7692 L-802.9493 278.7692 L-798.4001 260.9569 L-798.4001 260.9569 L-793.4713 243.4046 L-793.4713 243.4046 L-788.171 226.1203 L-788.171 226.1203 L-782.5073 209.1116 L-782.5073 209.1116 L-776.4884 192.386 L-776.4884 192.386 L-770.1229 175.9506 L-770.1229 175.9506 L-763.4194 159.8126 L-763.4194 159.8126 L-756.3866 143.9786 L-756.3866 143.9786 L-749.0334 128.4554 L-749.0334 128.4554 L-741.3688 113.2492 L-741.3688 113.2492 L-733.402 98.3662 L-733.402 98.3662 L-725.1421 83.8123 L-725.1421 83.8123 L-716.5986 69.5932 L-716.5986 69.5932 L-707.781 55.7144 L-707.781 55.7144 L-698.6987 42.1809 L-698.6987 42.1809 L-689.3616 28.9979 L-689.3616 28.9979 L-683.882 21.5187 L-683.1335 20.5429" clip-path="url(#clipPath2)"/>
      <path d="M-683.1335 20.5429 L-695.8131 27.8311 L-689.2958 28.5766 L-686.8867 34.6781 Z" clip-path="url(#clipPath2)" stroke="none"/>
      <path fill="none" d="M-850.705 141.9088 L-849.4656 140.6879 L-841.4507 133.0636 L-841.4507 133.0636 L-827.8075 120.4353 L-827.8075 120.4353 L-813.9829 108.165 L-813.9829 108.165 L-799.9839 96.2554 L-799.9839 96.2554 L-785.817 84.7087 L-785.817 84.7087 L-771.4893 73.5274 L-771.4893 73.5274 L-757.0076 62.7135 L-757.0076 62.7135 L-742.3787 52.2692 L-742.3787 52.2692 L-727.6097 42.1964 L-727.6097 42.1964 L-712.7074 32.497 L-712.7074 32.497 L-703.1345 26.4758 L-701.0452 25.2108" clip-path="url(#clipPath2)"/>
      <path d="M-693.3464 20.5495 L-707.8079 22.7297 L-702.0076 25.7935 L-701.9813 32.3532 Z" clip-path="url(#clipPath2)" stroke="none"/>
      <path fill="none" d="M-531.0043 7.7459 L-634.5512 9.2564" clip-path="url(#clipPath2)"/>
      <path d="M-643.5502 9.3877 L-629.9696 14.8152 L-633.4263 9.24 L-630.1337 3.5664 Z" clip-path="url(#clipPath2)" stroke="none"/>
      <text x="-625.6333" y="24.0188" clip-path="url(#clipPath2)" font-family="sans-serif" stroke="none" stroke-width="1" xml:space="preserve">feature:default</text>
      <path fill="none" stroke-dasharray="6,2" d="M-531.0043 2.7454 L-635.5511 4.2705" stroke-width="1" clip-path="url(#clipPath2)"/>
      <path stroke-dasharray="6,2" d="M-643.5502 4.3872 L-631.4786 9.2116 L-634.5512 4.2559 L-631.6245 -0.7873 Z" stroke-width="1" clip-path="url(#clipPath2)" stroke="none"/>
      <text x="-631.2964" y="19.1009" clip-path="url(#clipPath2)" font-family="sans-serif" stroke="none" stroke-width="1" xml:space="preserve">weak:feature:std</text>
      <path fill="none" stroke-dasharray="6,2" d="M-531.0043 12.7465 L-635.5511 14.2715" stroke-width="1" clip-path="url(#clipPath2)"/>
      <path stroke-dasharray="6,2" d="M-643.5502 14.3882 L-631.4786 19.2127 L-634.5512 14.257 L-631.6245 9.2137 Z" stroke-width="1" clip-path="url(#clipPath2)" stroke="none"/>
      <text x="-623.9634" y="28.995" clip-path="url(#clipPath2)" font-family="sans-serif" stroke="none" stroke-width="1" xml:space="preserve">weak:optional</text>
      <path fill="none" d="M-840.9086 -19.0904 L-824.6742 -15.6979 L-805.0544 -11.8228 L-764.8271 -4.3371 L-745.1196 -0.9392 L-715.1969 3.8128" clip-path="url(#clipPath2)"/>
      <path d="M-706.3083 5.2244 L-718.759 -2.4484 L-716.308 3.6364 L-720.5234 8.6624 Z" clip-path="url(#clipPath2)" stroke="none"/>
      <path fill="none" d="M-898.9597 149.7621 L-926.3682 147.3918 L-946.2645 145.3784 L-982.5099 141.1756 L-998.2245 139.1826 L-1004.0056 138.3413" clip-path="url(#clipPath2)"/>
      <path d="M-1012.9117 137.0453 L-1000.3625 144.5557 L-1002.8923 138.5033 L-998.7424 133.423 Z" clip-path="url(#clipPath2)" stroke="none"/>
      <path fill="none" d="M-878.7941 163.32 L-898.6082 176.1404 L-915.2472 187.2341 L-928.5521 196.3718 L-944.8804 207.918 L-958.0869 217.5307 L-974.0937 229.5185 L-987.1916 239.6093 L-1002.8666 252.0277 L-1015.8453 262.5994 L-1024.3267 269.5328 L-1025.0547 270.1507" clip-path="url(#clipPath2)"/>
      <path d="M-1025.0547 270.1507 L-1011.1222 265.7037 L-1017.3351 263.599 L-1018.4018 257.1265 Z" clip-path="url(#clipPath2)" stroke="none"/>
      <path fill="none" d="M-1096.5698 139.4654 L-1097.5806 139.9903 L-1105.0122 146.1953 L-1105.0122 146.1953 L-1111.0703 152.2586 L-1116.4031 159.0881 L-1116.4031 159.0881 L-1120.9358 166.5915 L-1124.5935 174.6764 L-1124.5935 174.6764 L-1127.3263 183.226 L-1129.0837 192.1238 L-1129.0837 192.1238 L-1129.8448 201.237 L-1129.589 210.4329 L-1129.589 210.4329 L-1128.3269 219.5733 L-1128.3269 219.5733 M-1127.0043 224.815 L-1126.0693 228.52 L-1126.0693 228.52 L-1122.858 237.1408 L-1118.7349 245.3035 L-1118.7349 245.3035 L-1113.769 252.8929 L-1108.0295 259.7938 L-1108.0295 259.7938 L-1101.6068 265.917 L-1094.5912 271.1731 L-1094.5912 271.1731 L-1085.3059 276.6934 L-1083.3326 277.3911" clip-path="url(#clipPath2)"/>
      <path d="M-1083.3326 277.3911 L-1094.1853 267.5874 L-1092.8785 274.0158 L-1097.9355 278.1939 Z" clip-path="url(#clipPath2)" stroke="none"/>
      <path fill="none" d="M634.3779 76.7751 L625.785 78.9463 L608.0719 83.2263 L608.0719 83.2263 L589.8228 87.251 L589.8228 87.251 L571.5599 90.8901 L571.5599 90.8901 L558.3522 93.2957 L554.2786 93.9781" clip-path="url(#clipPath2)"/>
      <path d="M545.4023 95.4652 L559.6461 98.7823 L555.3881 93.7923 L557.7874 87.687 Z" clip-path="url(#clipPath2)" stroke="none"/>
      <path fill="none" d="M476.4362 245.4303 L476.4537 245.4337 L485.4097 245.0362 L485.4097 245.0362 L494.228 244.0865 L502.8058 242.0391 L502.8058 242.0391 L511.0208 238.9177 L518.7507 234.7456 L518.7507 234.7456 L525.8748 229.5911 L532.2719 223.5219 L532.2719 223.5219 L537.8354 216.6495 L542.4589 209.085 L542.4589 209.085 L546.0653 200.9732 L548.5779 192.4589 L548.5779 192.4589 L549.9614 183.702 L550.1804 174.8625 L550.1804 174.8625 L549.244 166.0944 L547.1613 157.5514 L547.1613 157.5514 L543.9801 149.3637 L539.7487 141.6614 L539.7487 141.6614 L534.5447 134.5419 L528.446 128.1021 L528.446 128.1021 L518.0829 119.841 L514.2657 117.6796" clip-path="url(#clipPath2)"/>
      <path d="M506.4341 113.2451 L515.41 124.7917 L515.2447 118.2339 L520.9532 115.0021 Z" clip-path="url(#clipPath2)" stroke="none"/>
      <path fill="none" d="M367.4774 101.8051 L368.5009 101.8835 L379.4452 102.5175 L379.4452 102.5175 L399.3176 103.4268 L399.3176 103.4268 L419.2483 103.9316 L419.2483 103.9316 L431.279 104.0722 L433.3305 104.0616" clip-path="url(#clipPath2)" stroke="rgb(191,4,4)"/>
      <path fill="rgb(191,4,4)" d="M433.3305 104.0616 L419.8015 98.5066 L423.2056 104.114 L419.8598 109.7564 Z" clip-path="url(#clipPath2)" stroke="none"/>
      <path fill="none" d="M406.0841 329.1923 L409.7403 330.3714 L421.7868 332.0669 L421.7868 332.0669 L430.3279 332.0662 L439.1704 331.0313 L439.1704 331.0313 L457.4152 325.7862 L457.4152 325.7862 L475.1023 316.7228 L476.4473 315.8666 L492.2877 303.7755 L494.5487 301.7233 L508.2047 287.1972 L510.7845 283.976 L522.0341 267.5095 L524.3805 263.4437 L533.0297 245.4727 L534.7435 241.1024 L540.5945 222.0377 L541.5025 218.0119 L542.2288 212.9535 M543.65 203.055 L544.3359 198.277 L544.5292 195.2296 L544.0968 175.3066 L543.9269 173.7213 L539.976 154.2439 L539.976 154.2439 L532.6932 136.7127 L532.6932 136.7127 L527.9855 129.1563 L527.9855 129.1563 M522.6577 122.4807 L522.6577 122.4807 L522.6577 122.4807 L514.7689 114.7543 L512.5182 113.263" clip-path="url(#clipPath2)" stroke="rgb(191,4,4)"/>
      <path fill="rgb(191,4,4)" d="M512.5182 113.263 L520.665 125.4088 L520.9586 118.8555 L526.879 116.0306 Z" clip-path="url(#clipPath2)" stroke="none"/>
      <path fill="none" d="M-77.8773 137.567 L-79.0211 141.563 L-82.1335 154.3445 L-82.1335 154.3445 L-85.5725 172.0962 L-85.5725 172.0962 L-88.0061 190.1866 L-88.0061 190.1866 L-89.4172 208.5713 L-89.4172 208.5713 L-89.7903 227.205 L-89.7903 227.205 L-89.1116 246.0417 L-89.1116 246.0417 L-87.3693 265.0348 L-87.3693 265.0348 L-84.5535 284.137 L-84.5535 284.137 L-82.7681 294.1759 L-82.6602 294.6423" clip-path="url(#clipPath2)"/>
      <path d="M-80.6306 303.4105 L-78.1948 288.9898 L-82.9139 293.5463 L-89.1551 291.5267 Z" clip-path="url(#clipPath2)" stroke="none"/>
      <path fill="none" d="M-212.5608 262.5577 L-214.4202 265.334 L-219.8515 277.0809 L-219.8515 277.0809 L-222.8512 286.1705 L-224.7061 295.4981 L-224.7061 295.4981 L-225.3536 304.9372 L-224.7305 314.3611 L-224.7305 314.3611 L-222.8303 323.617 L-219.6461 332.5522 L-219.6461 332.5522 L-215.2349 341.0041 L-209.6532 348.8099 L-209.6532 348.8099 L-203.019 355.8188 L-195.4503 361.8799 L-195.4503 361.8799 L-187.113 366.8765 L-178.1731 370.6916 L-178.1731 370.6916 L-168.8228 373.2595 L-159.254 374.5143 L-159.254 374.5143 L-149.6581 374.4493 L-140.2264 373.0576 L-140.2264 373.0576 L-131.124 370.3887 L-122.5158 366.4922 L-122.5158 366.4922 L-114.5216 361.4633 L-107.261 355.397 L-107.261 355.397 L-100.7997 348.4187 L-95.2031 340.6536 L-95.2031 340.6536 L-88.6325 328.679 L-87.2259 324.863" clip-path="url(#clipPath2)"/>
      <path d="M-87.2259 324.863 L-97.1727 335.5847 L-90.7276 334.3633 L-86.6169 339.4753 Z" clip-path="url(#clipPath2)" stroke="none"/>
      <path fill="none" d="M-283.4793 189.6773 L-287.6948 195.7858 L-291.5604 202.3579 L-294.7261 209.857 L-294.7261 209.857 L-297.0476 218.1329 L-298.3805 227.0356 L-298.3805 227.0356 L-298.6731 236.4249 L-297.8736 246.1607 L-297.8152 246.5912 L-295.9769 256.3815 L-293.1531 265.9343 L-292.359 268.1931 L-284.0421 286.2872 L-281.9805 289.8574 L-270.557 306.1819 L-267.0873 310.3222 L-253.0546 324.4745 L-248.4276 328.4195 L-232.245 340.0557 L-227.0323 343.1861 L-209.1488 351.9833 L-209.1488 351.9833 M-204.1194 353.9544 L-204.1194 353.9544 L-185.0075 359.5867 L-180.9667 360.4043 L-161.1664 362.5283 L-158.7722 362.562 L-148.8175 362.1977 L-138.9514 360.8235 L-138.5247 360.7419 L-129.0409 358.4003 L-120.2332 355.1339 L-120.2332 355.1339 L-112.218 351.0361 L-105.1117 346.2008 L-105.1117 346.2008 L-98.9389 340.7167 L-93.7244 334.6728 L-93.7244 334.6728 L-88.2805 326.588 L-87.5721 324.8269" clip-path="url(#clipPath2)" stroke="rgb(0,158,255)"/>
      <path fill="rgb(0,158,255)" d="M-87.5721 324.8269 L-97.8288 335.2523 L-91.3507 334.2204 L-87.3916 339.4507 Z" clip-path="url(#clipPath2)" stroke="none"/>
      <path fill="none" stroke-dasharray="6,2" d="M526.7751 113.271 L527.3146 113.5764 L535.17 120.6992 L535.4238 120.9357 L542.255 128.1566 L548.1164 136.1846 L548.2701 136.4256 L553.0537 145.1338 L556.6514 154.3952 L556.7496 154.707 L559.1054 164.3583 L560.1631 174.2365 L560.1806 174.663 L559.9371 184.5955 L558.3892 194.4096 L558.2778 194.9032 L555.4655 204.4329 L551.429 213.512 L551.1938 213.96 L546.0103 222.4361 L539.7568 230.1567 L539.467 230.4701 L539.467 230.4701 M533.7789 235.8636 L532.2579 237.3058 L524.2076 243.1272 L523.9306 243.301 L515.1874 248.0204 L505.8999 251.5499 L505.6267 251.6337 L495.9594 253.9466 L486.077 255.0163 L485.7304 255.0318 L475.7829 254.8955 L465.9205 253.5904 L465.453 253.5004 L453.5844 250.7416 L451.5357 249.8723" stroke-width="1" clip-path="url(#clipPath2)"/>
      <path stroke-dasharray="6,2" d="M451.5357 249.8723 L460.6292 259.1625 L459.8207 253.3879 L464.5355 249.9571 Z" stroke-width="1" clip-path="url(#clipPath2)" stroke="none"/>
      <text x="559.8809" y="217.8962" clip-path="url(#clipPath2)" font-family="sans-serif" stroke="none" stroke-width="1" xml:space="preserve">weak:test</text>
      <path fill="none" d="M323.9337 106.929 L330.3646 112.3881 L343.1663 123.6335 L343.1663 123.6335 L355.7516 135.4538 L355.7516 135.4538 L368.0175 147.7658 L368.0175 147.7658 L379.9504 160.5618 L379.9504 160.5618 L391.5371 173.8337 L391.5371 173.8337 L402.7641 187.5732 L402.7641 187.5732 L413.6185 201.7713 L413.6185 201.7713 L424.0875 216.4193 L424.0875 216.4193 L430.6984 226.1414 L432.1729 228.4284" clip-path="url(#clipPath2)" stroke="rgb(191,4,4)"/>
      <path fill="rgb(191,4,4)" d="M432.1729 228.4284 L429.585 214.0341 L426.6863 219.9188 L420.1299 220.1304 Z" clip-path="url(#clipPath2)" stroke="none"/>
      <path fill="none" d="M408.2704 329.2033 L408.2704 329.2033 M415.643 332.7192 L416.5986 333.1749 L434.1807 339.3608 L434.1807 339.3608 L443.2093 340.9591 L451.7872 341.3257 L451.7872 341.3257 L459.7504 340.4947 L466.935 338.4998 L466.935 338.4998 L473.2227 335.4315 L478.4954 331.3798 L478.4954 331.3798 L482.6799 326.4437 L485.7032 320.7222 L485.7032 320.7222 L487.5006 314.3201 L488.0075 307.342 L488.0075 307.342 L488.0075 307.342 M487.4246 302.0966 L487.184 299.9313 L484.9906 292.2311 L484.9906 292.2311 L481.4567 284.4063 L476.6119 276.6219 L476.6119 276.6219 L470.6478 269.1051 L463.7561 262.083 L463.0578 261.4398 L451.9911 252.2652 L448.28 249.8653" clip-path="url(#clipPath2)" stroke="rgb(191,4,4)"/>
      <path fill="rgb(191,4,4)" d="M448.28 249.8653 L456.5617 261.9195 L456.7822 255.3634 L462.6707 252.4727 Z" clip-path="url(#clipPath2)" stroke="none"/>
      <text x="352.4213" y="320.6458" clip-path="url(#clipPath2)" font-family="sans-serif" stroke="none" stroke-width="1" xml:space="preserve">feature:default</text>
    </g>
    <g stroke-linecap="butt" transform="matrix(1,0,0,1,1270,445)" fill="rgb(191,4,4)" text-rendering="geometricPrecision" shape-rendering="geometricPrecision" stroke-dasharray="6,2" stroke="rgb(191,4,4)" stroke-miterlimit="1.45">
      <path fill="none" d="M379.8145 329.2018 L389.7316 336.2112 L406.924 346.2874 L410.5365 348.0102 L419.7375 351.8203 L429.2881 354.6418 L432.0573 355.3043 L441.8503 356.9751 L451.7783 357.3331 L453.3059 357.2876 L463.1402 356.1775 L472.6518 353.4438 L473.0787 353.2819 L481.891 348.907 L489.6271 342.8733 L489.6271 342.8733 L495.948 335.4171 L500.5149 326.7745 L500.5149 326.7745 L503.2346 317.3483 L504.0142 307.5407 L504.0055 307.0842 L503.0014 297.2386 L503.0014 297.2386 M500.7112 288.9341 L500.3704 287.698 L499.8439 286.2632 L495.8153 277.1823 L490.6187 268.7153 L488.9728 266.3919 L481.6 256.7655 L480.0078 255.299" clip-path="url(#clipPath2)"/>
      <path d="M474.1234 249.8792 L479.5626 261.6866 L480.7433 255.9765 L486.3373 254.3311 Z" clip-path="url(#clipPath2)" stroke="none"/>
    </g>
    <g text-rendering="geometricPrecision" stroke-miterlimit="1.45" shape-rendering="geometricPrecision" font-family="sans-serif" transform="matrix(1,0,0,1,1270,445)" stroke-linecap="butt">
      <text x="430.9802" xml:space="preserve" y="351.309" clip-path="url(#clipPath2)" stroke="none">weak:feature:printing</text>
    </g>
    <g stroke-linecap="butt" transform="matrix(1,0,0,1,1270,445)" fill="rgb(191,4,4)" text-rendering="geometricPrecision" shape-rendering="geometricPrecision" stroke-dasharray="6,2" stroke="rgb(191,4,4)" stroke-miterlimit="1.45">
      <path fill="none" d="M393.6469 329.1819 L397.8022 332.119 L410.9838 339.3604 L413.2186 340.4261 L422.4196 344.2362 L431.9702 347.0576 L432.8832 347.2761 L442.5663 348.9501 L452.1646 349.3181 L452.1646 349.3181 L461.3765 348.3288 L469.9001 345.9313 L469.9001 345.9313 L477.5302 342.1793 L484.0612 337.1265 L484.0612 337.1265 L489.314 330.9304 L493.1091 323.7484 L493.1091 323.7484 L495.3671 315.8057 L496.0087 307.3273 L496.0087 307.3273 L495.8525 305.8773 M495.0604 298.5238 L495.0604 298.5238 L492.5489 289.6059 L492.5489 289.6059 L488.6339 280.8345 L483.4752 272.4708 L482.9325 271.7048 L472.6514 259.3997 L468.1509 255.2546" clip-path="url(#clipPath2)"/>
      <path d="M462.2665 249.8348 L467.7058 261.6422 L468.8865 255.9321 L474.4805 254.2867 Z" clip-path="url(#clipPath2)" stroke="none"/>
    </g>
    <g text-rendering="geometricPrecision" stroke-miterlimit="1.45" shape-rendering="geometricPrecision" font-family="sans-serif" transform="matrix(1,0,0,1,1270,445)" stroke-linecap="butt">
      <text x="472.7995" xml:space="preserve" y="351.3271" clip-path="url(#clipPath2)" stroke="none">weak:feature:proc-macro</text>
    </g>
    <g stroke-linecap="butt" transform="matrix(1,0,0,1,1270,445)" fill="rgb(191,4,4)" text-rendering="geometricPrecision" shape-rendering="geometricPrecision" stroke-dasharray="6,2" stroke="rgb(191,4,4)" stroke-miterlimit="1.45">
      <path fill="none" d="M420.4525 326.1497 L424.0308 327.8561 L430.8218 329.966 M435.9347 331.5546 L435.9347 331.5546 L435.9347 331.5546 L443.9663 332.9954 L451.4097 333.3334 L451.4097 333.3334 L458.1244 332.6605 L463.9698 331.0684 L463.9698 331.0684 L468.9152 328.6837 L472.9295 325.633 L472.9295 325.633 L476.0458 321.957 L478.2974 317.696 L478.2974 317.696 L478.2974 317.696 M479.6342 312.8346 L479.6342 312.8346 L480.0063 307.3569 L480.0063 307.3569 L479.3077 301.3388 L477.4324 294.8564 L477.4324 294.8564 L474.3474 288.0739 L470.02 281.1561 L470.02 281.1561 L457.928 267.5913 L457.928 267.5913 L445.5144 257.6039 L440.2441 254.1957" clip-path="url(#clipPath2)"/>
      <path d="M433.5263 249.8515 L440.8878 260.5664 L441.0838 254.7388 L446.3181 252.1692 Z" clip-path="url(#clipPath2)" stroke="none"/>
    </g>
    <g text-rendering="geometricPrecision" stroke-miterlimit="1.45" shape-rendering="geometricPrecision" font-family="sans-serif" transform="matrix(1,0,0,1,1270,445)" stroke-linecap="butt">
      <text x="352.4213" xml:space="preserve" y="320.6458" clip-path="url(#clipPath2)" stroke="none">weak:optional</text>
    </g>
    <g stroke-linecap="butt" transform="matrix(1,0,0,1,1270,445)" fill="rgb(191,4,4)" text-rendering="geometricPrecision" shape-rendering="geometricPrecision" stroke-dasharray="6,2" stroke="rgb(191,4,4)" stroke-miterlimit="1.45">
      <path fill="none" d="M-90.8863 303.4482 L-91.7829 299.5748 L-94.4037 285.8616 L-94.4037 285.8616 L-97.2989 266.2195 L-97.2989 266.2195 L-99.0914 246.6771 L-99.0914 246.6771 L-99.7899 227.2834 L-99.7899 227.2834 L-99.4055 208.0869 L-99.4055 208.0869 L-97.9507 189.1355 L-97.9507 189.1355 L-95.4405 170.4765 L-95.4405 170.4765 L-91.8912 152.1569 L-91.8912 152.1569 L-89.066 140.3169 L-88.2729 137.5461" clip-path="url(#clipPath2)"/>
      <path d="M-88.2729 137.5461 L-96.3821 147.7069 L-90.7496 146.1986 L-86.7681 150.4587 Z" clip-path="url(#clipPath2)" stroke="none"/>
    </g>
    <g text-rendering="geometricPrecision" stroke-miterlimit="1.45" shape-rendering="geometricPrecision" font-family="sans-serif" transform="matrix(1,0,0,1,1270,445)" stroke-linecap="butt">
      <text x="-92.2593" xml:space="preserve" y="270.3796" clip-path="url(#clipPath2)" stroke="none">weak:test</text>
      <path fill="none" d="M-200.0783 241.1597 L-196.5818 238.3438 L-185.573 229.1436 L-185.573 229.1436 L-170.7392 216.1955 L-170.7392 216.1955 L-156.2905 202.8925 L-156.2905 202.8925 L-142.2336 189.2425 L-142.2336 189.2425 L-128.5752 175.2538 L-128.5752 175.2538 L-115.3218 160.9346 L-115.3218 160.9346 L-102.4798 146.2932 L-102.4798 146.2932 L-95.6216 138.2241 L-95.0808 137.5551" stroke-width="2" clip-path="url(#clipPath2)"/>
      <path d="M-95.0808 137.5551 L-107.9422 144.5175 L-101.446 145.4291 L-99.1933 151.59 Z" stroke-width="2" clip-path="url(#clipPath2)" stroke="none"/>
    </g>
    <g stroke-linecap="butt" transform="matrix(1,0,0,1,1270,445)" fill="rgb(0,158,255)" text-rendering="geometricPrecision" shape-rendering="geometricPrecision" stroke="rgb(0,158,255)" stroke-width="2" stroke-miterlimit="1.45">
      <path fill="none" d="M-242.9771 177.9769 L-238.9189 177.9704 L-226.0333 177.4302 L-226.0333 177.4302 L-208.5714 175.8558 L-208.5714 175.8558 L-191.5198 173.2806 L-191.5198 173.2806 L-174.9269 169.7323 L-174.9269 169.7323 L-158.8396 165.2409 L-158.8396 165.2409 L-143.3033 159.8383 L-143.3033 159.8383 L-128.3618 153.5583 L-128.3618 153.5583 L-114.0569 146.4371 L-114.0569 146.4371 L-106.8234 142.517 L-106.578 142.3633" clip-path="url(#clipPath2)"/>
      <path d="M-98.9504 137.5862 L-113.3774 139.9846 L-107.5314 142.9604 L-107.406 149.519 Z" clip-path="url(#clipPath2)" stroke="none"/>
    </g>
    <g text-rendering="geometricPrecision" stroke-miterlimit="1.45" shape-rendering="geometricPrecision" font-family="sans-serif" transform="matrix(1,0,0,1,1270,445)" stroke-linecap="butt">
      <text x="-246.9328" xml:space="preserve" y="195.5839" clip-path="url(#clipPath2)" stroke="none">feature:default</text>
    </g>
    <g stroke-linecap="butt" transform="matrix(1,0,0,1,1270,445)" fill="rgb(0,158,255)" text-rendering="geometricPrecision" shape-rendering="geometricPrecision" stroke-dasharray="6,2" stroke="rgb(0,158,255)" stroke-miterlimit="1.45">
      <path fill="none" d="M-242.9399 185.9769 L-238.7763 185.9702 L-225.549 185.4155 L-225.549 185.4155 L-207.6125 183.7981 L-207.6125 183.7981 L-190.0835 181.1506 L-190.0835 181.1506 L-173.012 177.4998 L-173.012 177.4998 L-156.4471 172.8748 L-156.4471 172.8748 L-140.4364 167.3069 L-140.4364 167.3069 L-125.0259 160.8297 L-125.0259 160.8297 L-110.2599 153.4786 L-110.2599 153.4786 L-110.2599 153.4786 M-102.9213 149.2109 L-96.1812 145.2913 L-96.1812 145.2913 L-93.354 143.4515 M-86.9708 139.2976 L-86.9708 139.2976 L-84.6226 137.6017" clip-path="url(#clipPath2)"/>
      <path d="M-84.6226 137.6017 L-97.2782 140.5742 L-91.9187 142.8711 L-91.4232 148.681 Z" clip-path="url(#clipPath2)" stroke="none"/>
    </g>
    <g text-rendering="geometricPrecision" stroke-miterlimit="1.45" shape-rendering="geometricPrecision" font-family="sans-serif" transform="matrix(1,0,0,1,1270,445)" stroke-linecap="butt">
      <text x="-263.3117" xml:space="preserve" y="205.6159" clip-path="url(#clipPath2)" stroke="none">weak:feature:printing</text>
    </g>
    <g stroke-linecap="butt" transform="matrix(1,0,0,1,1270,445)" fill="rgb(0,158,255)" text-rendering="geometricPrecision" shape-rendering="geometricPrecision" stroke-dasharray="6,2" stroke="rgb(0,158,255)" stroke-miterlimit="1.45">
      <path fill="none" d="M-242.9585 181.9769 L-238.8476 181.9703 L-225.7911 181.4229 L-225.7911 181.4229 L-208.092 179.8269 L-208.092 179.8269 L-190.8016 177.2156 L-190.8016 177.2156 L-173.9694 173.6161 L-173.9694 173.6161 L-157.6434 169.0578 L-157.6434 169.0578 L-141.8699 163.5726 L-141.8699 163.5726 L-126.6938 157.194 L-126.6938 157.194 L-112.1584 149.9578 L-112.1584 149.9578 L-103.5018 144.9238 M-98.305 141.9017 L-98.305 141.9017 L-98.305 141.9017 L-91.4809 137.6208 L-91.4079 137.5681" clip-path="url(#clipPath2)"/>
      <path d="M-91.4079 137.5681 L-104.0634 140.5408 L-98.7039 142.8376 L-98.2084 148.6475 Z" clip-path="url(#clipPath2)" stroke="none"/>
    </g>
    <g text-rendering="geometricPrecision" stroke-miterlimit="1.45" shape-rendering="geometricPrecision" font-family="sans-serif" transform="matrix(1,0,0,1,1270,445)" stroke-linecap="butt">
      <text x="-274.4523" xml:space="preserve" y="202.9298" clip-path="url(#clipPath2)" stroke="none">weak:feature:proc-macro</text>
    </g>
    <g stroke-linecap="butt" transform="matrix(1,0,0,1,1270,445)" fill="rgb(0,158,255)" text-rendering="geometricPrecision" shape-rendering="geometricPrecision" stroke-dasharray="6,2" stroke="rgb(0,158,255)" stroke-miterlimit="1.45">
      <path fill="none" d="M-242.9264 173.9768 L-238.9555 173.9704 L-226.2755 173.4375 L-226.2755 173.4375 L-209.0509 171.8846 L-209.0509 171.8846 L-192.238 169.3456 L-192.238 169.3456 L-175.8843 165.8486 L-175.8843 165.8486 L-160.0358 161.424 L-160.0358 161.424 L-144.7367 156.1039 L-144.7367 156.1039 L-130.0297 149.9227 L-130.0297 149.9227 L-115.9554 142.9163 L-115.9554 142.9163 L-107.768 138.3889 L-106.4546 137.5663" clip-path="url(#clipPath2)"/>
      <path d="M-106.4546 137.5663 L-119.2786 139.6983 L-114.0821 142.3434 L-113.9706 148.1733 Z" clip-path="url(#clipPath2)" stroke="none"/>
    </g>
    <g text-rendering="geometricPrecision" stroke-miterlimit="1.45" shape-rendering="geometricPrecision" font-family="sans-serif" transform="matrix(1,0,0,1,1270,445)" stroke-linecap="butt">
      <text x="-245.7423" xml:space="preserve" y="191.4114" clip-path="url(#clipPath2)" stroke="none">weak:optional</text>
      <path fill="none" d="M-363.9688 5.3093 L-459.9079 6.7088" stroke-width="2" clip-path="url(#clipPath2)"/>
      <path d="M-468.9069 6.8401 L-455.3263 12.2676 L-458.783 6.6924 L-455.4904 1.0188 Z" stroke-width="2" clip-path="url(#clipPath2)" stroke="none"/>
      <path fill="none" d="M-340.524 -5.9343 L-342.5422 -7.6377 L-349.1151 -14.5703 L-349.1151 -14.5703 L-357.8016 -26.192 L-357.8016 -26.192 L-365.4844 -40.1107 L-365.4844 -40.1107 L-371.8456 -56.2238 L-371.8456 -56.2238 L-376.574 -74.3408 L-376.574 -74.3408 L-379.3553 -93.8334 L-379.4158 -94.532 L-380.0644 -114.4924 L-380.0258 -116.2859 L-378.555 -136.2044 L-378.2192 -138.8564 L-374.7055 -158.5191 L-373.9605 -161.7344 L-368.4892 -180.9458 L-367.3174 -184.3985 L-360.2664 -203.1024 L-349.6374 -228.6812 L-341.6321 -247.0056 L-303.0191 -331.2172 L-294.9177 -349.322 L-294.9177 -349.322 L-287.6043 -366.8164 L-287.6043 -366.8164 L-281.5258 -383.1959 L-281.5258 -383.1959 L-276.9286 -398.3725 L-276.9286 -398.3725 L-274.8409 -406.9016 L-274.652 -408.1539" stroke-width="2" clip-path="url(#clipPath2)"/>
      <path d="M-274.652 -408.1539 L-282.2277 -395.644 L-276.1622 -398.1422 L-271.1035 -393.9659 Z" stroke-width="2" clip-path="url(#clipPath2)" stroke="none"/>
      <path fill="none" stroke-dasharray="6,2" d="M-1012.5465 -252.136 L-888.4202 -221.6058" clip-path="url(#clipPath2)"/>
      <path stroke-dasharray="6,2" d="M-880.6517 -219.695 L-891.1102 -227.4164 L-889.3912 -221.8446 L-893.4986 -217.7059 Z" clip-path="url(#clipPath2)" stroke="none"/>
      <text x="-921.1866" xml:space="preserve" y="-235.1919" clip-path="url(#clipPath2)" stroke="none">weak:feature:rustc-dep-of-std</text>
      <path fill="none" stroke-dasharray="6,2" d="M-1012.9258 -246.0504 L-913.5218 -221.601" clip-path="url(#clipPath2)"/>
      <path stroke-dasharray="6,2" d="M-905.7533 -219.6902 L-916.2118 -227.4116 L-914.4928 -221.8398 L-918.6002 -217.701 Z" clip-path="url(#clipPath2)" stroke="none"/>
      <text x="-933.7473" xml:space="preserve" y="-232.1024" clip-path="url(#clipPath2)" stroke="none">weak:optional</text>
    </g>
    <g stroke-linecap="butt" transform="matrix(1,0,0,1,1270,445)" fill="rgb(191,4,4)" text-rendering="geometricPrecision" shape-rendering="geometricPrecision" stroke-dasharray="6,2" stroke="rgb(191,4,4)" stroke-miterlimit="1.45">
      <path fill="none" d="M-694.8304 -0.8491 L-699.062 -4.6749 L-709.4431 -14.3448 L-709.4431 -14.3448 L-721.6431 -26.2305 L-721.6431 -26.2305 L-733.6404 -38.5095 L-733.6404 -38.5095 L-745.4258 -51.1783 L-745.4258 -51.1783 L-756.9896 -64.2332 L-756.9896 -64.2332 L-768.3228 -77.6702 L-768.3228 -77.6702 L-779.4158 -91.4854 L-779.4158 -91.4854 L-790.2598 -105.6743 L-790.2598 -105.6743 L-800.8455 -120.2324 L-800.8455 -120.2324 L-811.164 -135.1552 L-811.164 -135.1552 L-821.2063 -150.4376 L-821.2063 -150.4376 L-830.9636 -166.0746 L-830.9636 -166.0746 L-840.4272 -182.061 L-840.4272 -182.061 L-845.3883 -190.6973 L-845.692 -191.2537" clip-path="url(#clipPath2)"/>
      <path d="M-849.5253 -198.2756 L-848.1641 -185.347 L-845.2128 -190.376 L-839.3867 -190.1386 Z" clip-path="url(#clipPath2)" stroke="none"/>
    </g>
    <g text-rendering="geometricPrecision" stroke-miterlimit="1.45" shape-rendering="geometricPrecision" font-family="sans-serif" transform="matrix(1,0,0,1,1270,445)" stroke-linecap="butt">
      <text x="-704.2798" xml:space="preserve" y="12.0056" clip-path="url(#clipPath2)" stroke="none">weak:feature:rustc-dep-of-std</text>
    </g>
    <g stroke-linecap="butt" transform="matrix(1,0,0,1,1270,445)" fill="rgb(191,4,4)" text-rendering="geometricPrecision" shape-rendering="geometricPrecision" stroke-dasharray="6,2" stroke="rgb(191,4,4)" stroke-miterlimit="1.45">
      <path fill="none" d="M-679.7274 -0.8739 L-681.9599 -2.7931 L-690.3436 -10.2738 L-690.3436 -10.2738 L-702.5546 -21.5938 L-702.5546 -21.5938 L-714.5775 -33.307 L-714.5775 -33.307 L-726.4031 -45.4102 L-726.4031 -45.4102 L-738.0219 -57.9001 L-738.0219 -57.9001 L-749.4245 -70.773 L-749.4245 -70.773 L-760.6017 -84.0252 L-760.6017 -84.0252 L-771.5442 -97.6528 L-771.5442 -97.6528 L-782.2429 -111.6517 L-782.2429 -111.6517 L-792.6887 -126.0174 L-792.6887 -126.0174 L-802.8725 -140.7454 L-802.8725 -140.7454 L-812.7855 -155.8311 L-812.7855 -155.8311 L-822.4188 -171.2693 L-822.4188 -171.2693 L-831.7635 -187.0551 L-831.7635 -187.0551 L-837.2479 -196.6557 L-838.1331 -198.2771" clip-path="url(#clipPath2)"/>
      <path d="M-838.1331 -198.2771 L-836.7717 -185.3486 L-833.8206 -190.3777 L-827.9944 -190.1404 Z" clip-path="url(#clipPath2)" stroke="none"/>
    </g>
    <g text-rendering="geometricPrecision" stroke-miterlimit="1.45" shape-rendering="geometricPrecision" font-family="sans-serif" transform="matrix(1,0,0,1,1270,445)" stroke-linecap="butt">
      <text x="-704.2798" xml:space="preserve" y="12.0056" clip-path="url(#clipPath2)" stroke="none">weak:optional</text>
      <path fill="none" stroke-dasharray="6,2" d="M-82.2208 137.5535 L-85.3453 141.4187 L-87.702 144.2301 M-94.1262 151.8936 L-94.8742 152.7859 L-94.8742 152.7859 L-107.8927 167.6284 L-107.8927 167.6284 L-121.3275 182.1436 L-121.3275 182.1436 L-135.1721 196.3231 L-135.1721 196.3231 L-149.4198 210.1584 L-149.4198 210.1584 L-164.0638 223.6412 L-164.0638 223.6412 L-174.8446 233.1495 L-178.2053 236.0056" clip-path="url(#clipPath2)"/>
      <path stroke-dasharray="6,2" d="M-184.3013 241.1862 L-171.9194 237.2252 L-177.4433 235.358 L-178.3952 229.6053 Z" clip-path="url(#clipPath2)" stroke="none"/>
      <text x="-158.2689" xml:space="preserve" y="235.3254" clip-path="url(#clipPath2)" stroke="none">weak:test</text>
      <path fill="none" d="M123.1765 -106.9855 L124.5244 -108.7477 L131.0018 -117.8913 L131.0018 -117.8913 L140.9467 -132.921 L140.9467 -132.921 L150.2534 -148.4736 L150.2534 -148.4736 L158.9031 -164.5273 L158.9031 -164.5273 L166.8776 -181.0598 L166.8776 -181.0598 L174.1594 -198.0481 L174.1594 -198.0481 L180.7318 -215.4688 L180.7318 -215.4688 L186.5786 -233.2977 L186.5786 -233.2977 L190.3122 -246.1741 L191.3057 -250.037" stroke-width="2" clip-path="url(#clipPath2)"/>
      <path d="M191.3057 -250.037 L182.4953 -238.3636 L188.7837 -240.2311 L193.3907 -235.5614 Z" stroke-width="2" clip-path="url(#clipPath2)" stroke="none"/>
    </g>
    <g stroke-linecap="butt" transform="matrix(1,0,0,1,1270,445)" fill="rgb(0,158,255)" text-rendering="geometricPrecision" shape-rendering="geometricPrecision" stroke-dasharray="6,2" stroke="rgb(0,158,255)" stroke-miterlimit="1.45">
      <path fill="none" d="M187.3749 251.9229 L187.7834 247.3101 L188.4118 233.2028 L188.4118 233.2028 L188.232 214.4196 L188.232 214.4196 L186.8314 196.083 L186.8314 196.083 L184.2484 178.2615 L184.2484 178.2615 L180.525 161.0208 L180.525 161.0208 L175.7065 144.424 L175.7065 144.424 L169.8416 128.5313 L169.8416 128.5313 L162.9819 113.3999 L162.9819 113.3999 L155.1819 99.0836 L155.1819 99.0836 L146.4989 85.6329 L146.4989 85.6329 L140.0326 76.8004 L138.1212 74.4708" clip-path="url(#clipPath2)"/>
      <path d="M138.1212 74.4708 L141.8671 86.9194 L143.8298 81.4287 L149.5981 80.5766 Z" clip-path="url(#clipPath2)" stroke="none"/>
    </g>
    <g text-rendering="geometricPrecision" stroke-miterlimit="1.45" shape-rendering="geometricPrecision" font-family="sans-serif" transform="matrix(1,0,0,1,1270,445)" stroke-linecap="butt">
      <text x="192.6133" xml:space="preserve" y="237.363" clip-path="url(#clipPath2)" stroke="none">weak:feature:serde-1</text>
    </g>
    <g stroke-linecap="butt" transform="matrix(1,0,0,1,1270,445)" fill="rgb(0,158,255)" text-rendering="geometricPrecision" shape-rendering="geometricPrecision" stroke-dasharray="6,2" stroke="rgb(0,158,255)" stroke-miterlimit="1.45">
      <path fill="none" d="M197.4143 251.9196 L197.798 247.5872 L198.4091 233.4319 L198.4091 233.4319 L198.2227 213.9872 L198.2227 213.9872 L196.7705 194.9809 L196.7705 194.9809 L194.0892 176.4842 L194.0892 176.4842 L190.2191 158.5663 L190.2191 158.5663 L185.2039 141.2935 L185.2039 141.2935 L179.091 124.7301 L179.091 124.7301 L171.9309 108.9372 L171.9309 108.9372 L163.7775 93.9733 L163.7775 93.9733 L157.458 83.8483 L155.4566 80.9909" clip-path="url(#clipPath2)"/>
      <path d="M150.8668 74.4385 L153.6562 87.1357 L156.0303 81.81 L161.8467 81.3986 Z" clip-path="url(#clipPath2)" stroke="none"/>
    </g>
    <g text-rendering="geometricPrecision" stroke-miterlimit="1.45" shape-rendering="geometricPrecision" font-family="sans-serif" transform="matrix(1,0,0,1,1270,445)" stroke-linecap="butt">
      <text x="202.5971" xml:space="preserve" y="218.1473" clip-path="url(#clipPath2)" stroke="none">weak:optional</text>
    </g>
    <g stroke-linecap="butt" transform="matrix(1,0,0,1,1270,445)" fill="rgb(191,4,4)" text-rendering="geometricPrecision" shape-rendering="geometricPrecision" stroke-dasharray="6,2" stroke="rgb(191,4,4)" stroke-miterlimit="1.45">
      <path fill="none" d="M253.3581 96.9685 L251.6649 96.7577 L240.09 95.0131 L240.0687 95.0098 L220.3734 91.6482 L220.3734 91.6482 L200.8315 87.7019 L200.8315 87.7019 L181.4672 83.1769 L181.4672 83.1769 L162.2936 78.0778 L162.2936 78.0778 L151.2601 74.9133 L149.7641 74.4414" clip-path="url(#clipPath2)"/>
      <path d="M149.7641 74.4414 L159.7036 82.8202 L158.347 77.1492 L162.7124 73.2835 Z" clip-path="url(#clipPath2)" stroke="none"/>
    </g>
    <g text-rendering="geometricPrecision" stroke-miterlimit="1.45" shape-rendering="geometricPrecision" font-family="sans-serif" transform="matrix(1,0,0,1,1270,445)" stroke-linecap="butt">
      <text x="195.0286" xml:space="preserve" y="111.6048" clip-path="url(#clipPath2)" stroke="none">weak:test</text>
      <path fill="none" d="M132.5508 -107.0137 L139.094 -109.3111 L139.1734 -109.3313 M146.2675 -111.1298 L146.2675 -111.1298 L154.7014 -111.9908 L154.7014 -111.9908 L163.8693 -111.6367 L173.2447 -109.8096 L173.2447 -109.8096 L182.4768 -106.5666 L191.2151 -101.9644 L192.5989 -101.1037 L200.6598 -95.3023 L207.8596 -88.4615 L210.3521 -85.7514 L216.6072 -78.026 L221.8337 -69.5708 L224.3514 -64.8585 L228.5004 -55.8202 L231.523 -46.3456 L233.0637 -40.2731 L234.9326 -30.5036 L235.6206 -20.5808 L235.6817 -14.3162 L235.1789 -4.3838 L233.4756 5.4143 L232.2448 10.6133 L229.3508 20.1229 L225.276 29.1895 L223.5583 32.4463 L218.3441 40.8989 L212.0321 48.5664 L210.9139 49.752 L203.6407 56.4331 L195.5428 61.9263 L195.5428 61.9263 L186.1494 67.0194 L185.2661 67.2133" stroke-width="2" clip-path="url(#clipPath2)"/>
      <path d="M176.4754 69.143 L190.8674 71.7426 L186.3649 66.9721 L188.4554 60.7543 Z" stroke-width="2" clip-path="url(#clipPath2)" stroke="none"/>
      <path fill="none" d="M39.1064 156.4794 L40.4574 160.356 L47.0869 172.3779 L47.0869 172.3779 L52.9204 180.0647 L59.8638 186.8344 L59.8638 186.8344 L67.8132 192.4852 L76.6646 196.8149 L77.024 196.9567 L86.4973 199.8435 L96.312 201.1654 L97.9278 201.2527 L107.8383 201.0352 L117.5988 199.304 L120.3566 198.5954 L129.7621 195.439 L138.6074 190.9462 L141.693 189.0869 L149.8083 183.3752 L157.024 176.5622 L159.4614 173.9095 L165.6283 166.1381 L170.5974 157.5513 L171.8418 154.9901 L175.4852 145.7711 L175.4852 145.7711 M176.8582 139.7096 L177.6751 136.1032 L177.9118 134.5024 L178.5742 124.6212 L178.5742 124.6212 M177.9756 118.3385 L177.635 114.7626 L177.5678 114.3821 L175.0906 104.8449 L171.139 95.9281 L171.139 95.9281 L163.0993 84.0342 L159.7483 80.7468" stroke-width="2" clip-path="url(#clipPath2)"/>
      <path d="M153.3236 74.4441 L159.0214 87.9135 L160.5514 81.5346 L166.8998 79.8827 Z" stroke-width="2" clip-path="url(#clipPath2)" stroke="none"/>
      <path fill="none" d="M22.7743 10.6906 L104.8199 49.2041" stroke-width="2" clip-path="url(#clipPath2)"/>
      <path d="M112.9669 53.0285 L103.1366 42.2 L103.8015 48.7261 L98.3561 52.3838 Z" stroke-width="2" clip-path="url(#clipPath2)" stroke="none"/>
    </g>
    <g stroke-linecap="butt" transform="matrix(1,0,0,1,1270,445)" fill="rgb(0,158,255)" text-rendering="geometricPrecision" shape-rendering="geometricPrecision" stroke-dasharray="6,2" stroke="rgb(0,158,255)" stroke-miterlimit="1.45">
      <path fill="none" d="M209.6917 273.3182 L213.2926 275.7838 L223.9351 280.873 L223.9351 280.873 L238.999 284.436 L238.999 284.436 L255.7655 284.4158 L255.7655 284.4158 L273.5902 280.4728 L273.5902 280.4728 L291.3992 272.6096 L291.8259 272.3711 L308.2639 261.1222 L309.4338 260.1557 L323.635 246.1802 L324.9766 244.6083 L336.5664 228.399 L337.6199 226.6211 L346.2513 208.6632 L346.7875 207.2435 L352.1154 188.0509 L352.2031 187.57 L353.8839 168.175 L353.8839 168.175 L351.85 150.0331 L351.85 150.0331 L346.4465 134.1612 L346.4465 134.1612 L338.2029 121.0592 L338.2029 121.0592 L331.0817 113.4827 L328.7206 111.7208" clip-path="url(#clipPath2)"/>
      <path d="M322.309 106.9364 L328.9362 118.1203 L329.5221 112.3189 L334.9167 110.1058 Z" clip-path="url(#clipPath2)" stroke="none"/>
    </g>
    <g text-rendering="geometricPrecision" stroke-miterlimit="1.45" shape-rendering="geometricPrecision" font-family="sans-serif" transform="matrix(1,0,0,1,1270,445)" stroke-linecap="butt">
      <text x="353.8065" xml:space="preserve" y="212.1135" clip-path="url(#clipPath2)" stroke="none">weak:feature:serde-1</text>
    </g>
    <g stroke-linecap="butt" transform="matrix(1,0,0,1,1270,445)" fill="rgb(0,158,255)" text-rendering="geometricPrecision" shape-rendering="geometricPrecision" stroke-dasharray="6,2" stroke="rgb(0,158,255)" stroke-miterlimit="1.45">
      <path fill="none" d="M194.4274 273.3308 L196.4268 275.5275 L205.3403 282.4583 L205.3403 282.4583 L212.571 286.7708 L220.435 290.2404 L220.435 290.2404 L228.8666 292.7953 L237.8002 294.3639 L237.8002 294.3639 L247.1454 294.9009 L256.8118 294.361 L256.8118 294.361 L266.5571 292.7719 L276.1391 290.1613 L277.2081 289.8101 L295.437 281.8089 L297.4965 280.6575 L313.9345 269.4087 L316.4746 267.3102 L330.6758 253.3347 L333.1412 250.446 L344.731 234.2367 L346.667 230.9696 L355.2984 213.0117 L356.4626 209.9294 L361.7904 190.7367 L362.2138 188.4155 L363.8894 168.5786 L363.876 167.4535 L363.2473 157.5421 L361.5991 147.8066 L361.5991 147.8066 L360.4176 143.5956 M358.9836 138.4851 L358.9836 138.4851 L355.4531 129.8159 L355.4531 129.8159 L351.0795 121.8697 L345.9349 114.7176 L345.9349 114.7176 L339.7097 107.4437 L339.0145 106.9249" clip-path="url(#clipPath2)"/>
      <path d="M339.0145 106.9249 L345.6417 118.1088 L346.2276 112.3074 L351.6222 110.0942 Z" clip-path="url(#clipPath2)" stroke="none"/>
    </g>
    <g text-rendering="geometricPrecision" stroke-miterlimit="1.45" shape-rendering="geometricPrecision" font-family="sans-serif" transform="matrix(1,0,0,1,1270,445)" stroke-linecap="butt">
      <text x="363.1676" xml:space="preserve" y="215.6307" clip-path="url(#clipPath2)" stroke="none">weak:optional</text>
    </g>
    <g stroke-linecap="butt" transform="matrix(1,0,0,1,1270,445)" fill="rgb(191,4,4)" text-rendering="geometricPrecision" shape-rendering="geometricPrecision" stroke-dasharray="6,2" stroke="rgb(191,4,4)" stroke-miterlimit="1.45">
      <path fill="none" d="M176.453 73.6789 L184.6885 75.7357 L202.5338 79.8851 L202.5338 79.8851 L221.8384 83.7835 L221.8384 83.7835 L241.3065 87.1061 L241.3065 87.1061 L252.2527 88.7691 L253.4257 88.9152" clip-path="url(#clipPath2)"/>
      <path d="M253.4257 88.9152 L242.1356 82.4705 L244.4947 87.803 L240.8998 92.3939 Z" clip-path="url(#clipPath2)" stroke="none"/>
    </g>
    <g text-rendering="geometricPrecision" stroke-miterlimit="1.45" shape-rendering="geometricPrecision" font-family="sans-serif" transform="matrix(1,0,0,1,1270,445)" stroke-linecap="butt">
      <text x="185.539" xml:space="preserve" y="109.8784" clip-path="url(#clipPath2)" stroke="none">weak:feature:derive</text>
    </g>
    <g stroke-linecap="butt" transform="matrix(1,0,0,1,1270,445)" fill="rgb(191,4,4)" text-rendering="geometricPrecision" shape-rendering="geometricPrecision" stroke-dasharray="6,2" stroke="rgb(191,4,4)" stroke-miterlimit="1.45">
      <path fill="none" d="M164.1579 74.4478 L168.5086 75.676 L182.4365 79.2961 L182.4365 79.2961 L201.6827 83.7935 L201.6827 83.7935 L221.1059 87.7158 L221.1059 87.7158 L240.6929 91.0588 L240.6929 91.0588 L251.9767 92.7656 L253.4276 92.9463" clip-path="url(#clipPath2)"/>
      <path d="M253.4276 92.9463 L242.1374 86.5017 L244.4965 91.8341 L240.9016 96.425 Z" clip-path="url(#clipPath2)" stroke="none"/>
    </g>
    <g text-rendering="geometricPrecision" stroke-miterlimit="1.45" shape-rendering="geometricPrecision" font-family="sans-serif" transform="matrix(1,0,0,1,1270,445)" stroke-linecap="butt">
      <text x="97.0897" xml:space="preserve" y="65.8994" clip-path="url(#clipPath2)" stroke="none">weak:optional</text>
    </g>
    <g stroke-linecap="butt" transform="matrix(1,0,0,1,1270,445)" fill="rgb(191,4,4)" text-rendering="geometricPrecision" shape-rendering="geometricPrecision" stroke-dasharray="6,2" stroke="rgb(191,4,4)" stroke-miterlimit="1.45">
      <path fill="none" d="M176.5046 69.5689 L185.1695 71.733 L203.385 75.9767 L203.385 75.9767 L222.571 79.8511 L222.571 79.8511 L241.9201 83.1535 L241.9201 83.1535 L255.0549 85.0872 L258.476 85.5132" clip-path="url(#clipPath2)"/>
      <path d="M258.476 85.5132 L247.1859 79.0686 L249.545 84.401 L245.9501 88.9919 Z" clip-path="url(#clipPath2)" stroke="none"/>
    </g>
    <g text-rendering="geometricPrecision" stroke-miterlimit="1.45" shape-rendering="geometricPrecision" font-family="sans-serif" transform="matrix(1,0,0,1,1270,445)" stroke-linecap="butt">
      <text x="212.8932" xml:space="preserve" y="101.6894" clip-path="url(#clipPath2)" stroke="none">weak:test</text>
      <path fill="none" stroke-dasharray="6,2" d="M489.664 -32.0339 L488.1718 -30.1531 L480.7297 -21.3653 L480.7297 -21.3653 L468.639 -7.8905 L468.639 -7.8905 L456.1803 4.9009 L456.1803 4.9009 L443.382 16.9993 L443.382 16.9993 L430.273 28.3957 L430.273 28.3957 L416.8822 39.0827 L416.8822 39.0827 L403.2387 49.0535 L403.2387 49.0535 L389.3718 58.3026 L389.3718 58.3026 L375.3109 66.8255 L375.3109 66.8255 L361.0855 74.6189 L361.0855 74.6189 L346.725 81.6803 L346.725 81.6803 L338.9337 85.2666 L338.3527 85.5052" clip-path="url(#clipPath2)"/>
      <path stroke-dasharray="6,2" d="M338.3527 85.5052 L351.3525 85.5702 L346.6776 82.0853 L347.5526 76.3203 Z" clip-path="url(#clipPath2)" stroke="none"/>
      <text x="480.7764" xml:space="preserve" y="-3.7304" clip-path="url(#clipPath2)" stroke="none">weak:feature:derive</text>
      <path fill="none" stroke-dasharray="6,2" d="M476.7215 -32.0343 L472.0289 -26.5868 L461.3351 -14.7209 L461.3351 -14.7209 L449.1632 -2.2237 L449.1632 -2.2237 L436.6664 9.5898 L436.6664 9.5898 L423.8734 20.7117 L423.8734 20.7117 L410.8129 31.1351 L410.8129 31.1351 L397.5139 40.8542 L397.5139 40.8542 L384.0056 49.8644 L384.0056 49.8644 L370.3169 58.1618 L370.3169 58.1618 L356.477 65.7441 L356.477 65.7441 L342.5151 72.6097 L342.5151 72.6097 L328.4601 78.7583 L328.4601 78.7583 L319.8064 82.2298 L318.1997 82.8062" clip-path="url(#clipPath2)"/>
      <path stroke-dasharray="6,2" d="M310.6697 85.5078 L323.6533 86.1617 L319.141 82.4685 L320.2763 76.7492 Z" clip-path="url(#clipPath2)" stroke="none"/>
      <text x="473.4725" xml:space="preserve" y="-10.5607" clip-path="url(#clipPath2)" stroke="none">weak:optional</text>
      <path fill="none" stroke-dasharray="6,2" d="M502.4509 -32.0611 L498.4193 -26.9799 L488.3057 -14.8381 L488.3057 -14.8381 L475.9429 -1.0602 L475.9429 -1.0602 L463.1974 12.0256 L463.1974 12.0256 L450.0977 24.4087 L450.0977 24.4087 L436.6727 36.0798 L436.6727 36.0798 L422.9515 47.0302 L422.9515 47.0302 L408.9634 57.2527 L408.9634 57.2527 L394.738 66.7408 L394.738 66.7408 L380.3049 75.4892 L380.3049 75.4892 L370.9798 80.7481 L368.9194 81.8183" clip-path="url(#clipPath2)"/>
      <path stroke-dasharray="6,2" d="M361.82 85.5059 L374.7738 84.4117 L369.8068 81.3574 L370.1644 75.5374 Z" clip-path="url(#clipPath2)" stroke="none"/>
      <text x="499.8027" xml:space="preserve" y="-10.6779" clip-path="url(#clipPath2)" stroke="none">weak:test</text>
      <path fill="none" d="M12.7751 -10.6976 L95.3005 -79.8021" stroke-width="2" clip-path="url(#clipPath2)"/>
      <path d="M102.2008 -85.5801 L88.2391 -81.2257 L94.438 -79.0798 L95.4617 -72.6003 Z" stroke-width="2" clip-path="url(#clipPath2)" stroke="none"/>
      <path fill="none" stroke-dasharray="6,2" d="M-124.0183 -124.6493 L-127.4725 -126.6442 L-139.035 -132.7208 L-139.035 -132.7208 L-155.5506 -140.452 L-155.5506 -140.452 L-172.6459 -147.304 L-172.6459 -147.304 L-190.2831 -153.2493 L-190.2831 -153.2493 L-208.4232 -158.2617 L-208.4232 -158.2617 L-227.0259 -162.3163 L-227.0259 -162.3163 L-236.7351 -164.1411 L-237.0323 -164.1809" clip-path="url(#clipPath2)"/>
      <path stroke-dasharray="6,2" d="M-244.9613 -165.2441 L-233.7322 -158.6937 L-236.0412 -164.048 L-232.4033 -168.605 Z" clip-path="url(#clipPath2)" stroke="none"/>
      <text x="-142.5861" xml:space="preserve" y="-111.7755" clip-path="url(#clipPath2)" stroke="none">weak:feature:spin_no_std</text>
      <path fill="none" stroke-dasharray="6,2" d="M-104.7486 -124.6421 L-107.421 -126.3987 L-118.1337 -132.7987 L-118.1337 -132.7987 L-134.5374 -141.6523 L-134.5374 -141.6523 L-151.5677 -149.6246 L-151.5677 -149.6246 L-169.1858 -156.6863 L-169.1858 -156.6863 L-187.3517 -162.81 L-187.3517 -162.81 L-206.0242 -167.9697 L-206.0242 -167.9697 L-225.1613 -172.1409 L-225.1613 -172.1409 L-235.9508 -174.1254 L-237.0609 -174.2742" clip-path="url(#clipPath2)"/>
      <path stroke-dasharray="6,2" d="M-244.9899 -175.3374 L-233.7609 -168.787 L-236.0698 -174.1413 L-232.4319 -178.6983 Z" clip-path="url(#clipPath2)" stroke="none"/>
      <text x="-272.0294" xml:space="preserve" y="-153.9919" clip-path="url(#clipPath2)" stroke="none">weak:optional</text>
    </g>
    <g stroke-linecap="butt" transform="matrix(1,0,0,1,1270,445)" fill="rgb(191,4,4)" text-rendering="geometricPrecision" shape-rendering="geometricPrecision" stroke="rgb(191,4,4)" stroke-width="2" stroke-miterlimit="1.45">
      <path fill="none" d="M318.0685 106.9084 L318.7653 107.8836 L323.7415 115.4668 L323.7415 115.4668 L332.0518 128.9615 L332.0518 128.9615 L339.8524 143.0053 L339.8524 143.0053 L347.1195 157.58 L347.1195 157.58 L351.5173 167.4677 M353.8295 172.6664 L353.8295 172.6664 L353.8295 172.6664 L359.9597 188.2447 L359.9597 188.2447 L359.9597 188.2447 M362.985 197.0271 L365.4881 204.2939 L365.4881 204.2939 L370.3932 220.7925 L370.3932 220.7925 L374.6546 237.7179 L374.6546 237.7179 L378.2523 255.0469 L378.2523 255.0469 L381.1673 272.7553 L381.1673 272.7553 L383.3815 290.8183 L383.3815 290.8183 L384.5511 303.8665 L384.7911 307.7975" clip-path="url(#clipPath2)"/>
      <path d="M384.7911 307.7975 L389.5829 293.9798 L384.1741 297.6913 L378.3539 294.6654 Z" clip-path="url(#clipPath2)" stroke="none"/>
      <path fill="none" d="M-215.6127 262.5384 L-218.3576 265.407 L-229.2296 274.1024 L-230.6847 275.1457 L-239.0938 280.4623 L-248.0672 284.7588 L-248.3289 284.8659 L-257.5861 287.9358 L-266.8466 289.5727 L-266.8466 289.5727 L-275.8803 289.7396 L-277.7204 289.452 M-284.4569 288.3992 L-284.4569 288.3992 L-284.4569 288.3992 L-292.3717 285.6136 L-299.4199 281.4448 L-299.4199 281.4448 L-305.4232 276.0317 L-310.2034 269.5131 L-310.2034 269.5131 L-313.6402 262.0804 L-315.6135 253.9251 L-315.6135 253.9251 L-316.0822 245.257 L-315.0052 236.2862 L-315.0052 236.2862 L-312.4428 227.2379 L-308.4551 218.3375 L-308.3222 218.088 L-303.1428 209.5936 L-297.0052 201.7634 L-295.8206 200.421 L-287.1226 191.2997 L-285.0412 189.6764" clip-path="url(#clipPath2)" stroke="black"/>
      <path fill="black" d="M-285.0412 189.6764 L-299.1458 193.543 L-293.0252 195.9031 L-292.2273 202.4142 Z" clip-path="url(#clipPath2)" stroke="none"/>
    </g>
    <g text-rendering="geometricPrecision" stroke-miterlimit="1.45" stroke-dasharray="6,2" shape-rendering="geometricPrecision" transform="matrix(1,0,0,1,1270,445)" stroke-linecap="butt">
      <path fill="none" d="M-180.358 2.6309 L-277.9547 4.0546" clip-path="url(#clipPath2)"/>
      <path d="M-285.9539 4.1713 L-273.8822 8.9958 L-276.9548 4.04 L-274.0281 -1.0032 Z" clip-path="url(#clipPath2)" stroke="none"/>
      <text x="-258.4879" y="18.6631" clip-path="url(#clipPath2)" font-family="sans-serif" stroke-dasharray="none" stroke="none" xml:space="preserve">weak:test</text>
      <path fill="none" stroke-dasharray="none" d="M0.706 -10.7067 L8.573 -130.0072" stroke-width="2" clip-path="url(#clipPath2)"/>
      <path stroke-dasharray="none" d="M9.1652 -138.9877 L2.6641 -125.8871 L8.499 -128.8846 L13.8897 -125.1468 Z" stroke-width="2" clip-path="url(#clipPath2)" stroke="none"/>
      <path fill="none" stroke-dasharray="none" d="M2.5995 10.7121 L30.6509 126.3069" stroke-width="2" clip-path="url(#clipPath2)"/>
      <path stroke-dasharray="none" d="M32.7734 135.0531 L35.0561 120.6073 L30.3856 125.2137 L24.1234 123.2604 Z" stroke-width="2" clip-path="url(#clipPath2)" stroke="none"/>
      <path fill="none" d="M-73.2779 116.1882 L-11.0122 17.4607" clip-path="url(#clipPath2)"/>
      <path d="M-6.7446 10.6941 L-17.3751 18.1768 L-11.5456 18.3066 L-8.9168 23.5113 Z" clip-path="url(#clipPath2)" stroke="none"/>
      <text x="-30.5199" y="67.5975" clip-path="url(#clipPath2)" font-family="sans-serif" stroke-dasharray="none" stroke="none" xml:space="preserve">weak:test</text>
      <path fill="none" stroke-dasharray="none" d="M804.2437 226.7427 L696.3369 196.3203" stroke-width="2" clip-path="url(#clipPath2)"/>
      <path stroke-dasharray="none" d="M687.6746 193.8781 L699.1417 202.9553 L697.4197 196.6255 L702.1945 192.1274 Z" stroke-width="2" clip-path="url(#clipPath2)" stroke="none"/>
      <path fill="none" stroke-dasharray="none" d="M513.8259 113.2454 L534.6235 122.7544 L534.6877 122.785 M543.7197 127.0774 L552.6853 131.3384 L570.4965 140.1292 L588.2963 149.2439 L605.9581 158.6198 L619.049 165.6911 L623.3073 168.0737" stroke-width="2" clip-path="url(#clipPath2)"/>
      <path stroke-dasharray="none" d="M631.1614 172.4682 L622.1267 160.9676 L622.3255 167.5244 L616.6336 170.7853 Z" stroke-width="2" clip-path="url(#clipPath2)" stroke="none"/>
    </g>
    <g stroke-linecap="butt" transform="matrix(1,0,0,1,1270,445)" fill="rgb(191,4,4)" text-rendering="geometricPrecision" shape-rendering="geometricPrecision" stroke="rgb(191,4,4)" stroke-width="2" stroke-miterlimit="1.45">
      <path fill="none" d="M-86.1126 324.8458 L-122.9718 463.8912" clip-path="url(#clipPath2)"/>
      <path d="M-125.2779 472.5907 L-116.3815 460.9828 L-122.6835 462.8037 L-127.2559 458.1001 Z" clip-path="url(#clipPath2)" stroke="none"/>
      <path fill="none" d="M-274.1271 189.6684 L-274.4416 190.8574 L-275.9185 199.0841 L-275.9185 199.0841 L-277.5858 213.6014 L-277.5858 213.6014 L-277.8618 228.9326 L-277.8618 228.9326 L-276.6115 244.9183 L-276.6115 244.9183 L-273.7386 261.3641 L-273.7386 261.3641 L-269.1937 278.0475 L-269.1937 278.0475 L-266.7658 284.5645 M-263.2748 293.9353 L-262.9797 294.7275 L-262.9797 294.7275 L-255.1553 311.1564 L-255.1553 311.1564 L-245.8346 327.0922 L-245.8346 327.0922 L-244.3761 329.2294 M-238.7393 337.4893 L-234.9669 343.017 L-224.4389 357.609 L-212.4779 373.6349 L-144.3055 461.9624 L-137.1819 471.2294 L-136.1683 472.5801" clip-path="url(#clipPath2)" stroke="rgb(0,158,255)"/>
      <path fill="rgb(0,158,255)" d="M-136.1683 472.5801 L-139.772 458.4061 L-142.2454 464.4817 L-148.7703 465.1584 Z" clip-path="url(#clipPath2)" stroke="none"/>
    </g>
    <g fill="rgb(255,204,0)" text-rendering="geometricPrecision" shape-rendering="geometricPrecision" transform="matrix(1,0,0,1,1270,445)" stroke="rgb(255,204,0)">
      <rect x="-844.6809" width="64.0391" height="21.4062" y="313.6524" clip-path="url(#clipPath2)" stroke="none"/>
      <rect x="-844.6809" y="313.6524" clip-path="url(#clipPath2)" fill="yellow" width="1" height="21.4062" stroke="none"/>
      <rect x="-843.6809" y="313.6524" clip-path="url(#clipPath2)" fill="yellow" width="62.0391" height="1" stroke="none"/>
      <rect x="-843.6809" y="334.0587" clip-path="url(#clipPath2)" fill="rgb(178,142,0)" width="63.0391" height="1" stroke="none"/>
      <rect x="-781.6418" y="313.6524" clip-path="url(#clipPath2)" fill="rgb(178,142,0)" width="1" height="20.4062" stroke="none"/>
    </g>
    <g text-rendering="geometricPrecision" stroke-miterlimit="1.45" shape-rendering="geometricPrecision" font-family="sans-serif" transform="matrix(1,0,0,1,1270,445)" stroke-linecap="butt">
      <text x="-840.6809" xml:space="preserve" y="328.5157" clip-path="url(#clipPath2)" stroke="none">atty 0.2.13</text>
    </g>
    <g fill="rgb(255,204,0)" text-rendering="geometricPrecision" shape-rendering="geometricPrecision" transform="matrix(1,0,0,1,1270,445)" stroke="rgb(255,204,0)">
      <rect x="-1254.8735" width="77.3867" height="21.4062" y="136.031" clip-path="url(#clipPath2)" stroke="none"/>
      <rect x="-1254.8735" y="136.031" clip-path="url(#clipPath2)" fill="yellow" width="1" height="21.4062" stroke="none"/>
      <rect x="-1253.8735" y="136.031" clip-path="url(#clipPath2)" fill="yellow" width="75.3867" height="1" stroke="none"/>
      <rect x="-1253.8735" y="156.4373" clip-path="url(#clipPath2)" fill="rgb(178,142,0)" width="76.3867" height="1" stroke="none"/>
      <rect x="-1178.4868" y="136.031" clip-path="url(#clipPath2)" fill="rgb(178,142,0)" width="1" height="20.4062" stroke="none"/>
    </g>
    <g text-rendering="geometricPrecision" stroke-miterlimit="1.45" shape-rendering="geometricPrecision" font-family="sans-serif" transform="matrix(1,0,0,1,1270,445)" stroke-linecap="butt">
      <text x="-1250.8735" xml:space="preserve" y="150.8943" clip-path="url(#clipPath2)" stroke="none">autocfg 0.1.6</text>
    </g>
    <g fill="rgb(255,204,0)" text-rendering="geometricPrecision" shape-rendering="geometricPrecision" transform="matrix(1,0,0,1,1270,445)" stroke="rgb(255,204,0)">
      <rect x="-898.943" width="74.7148" height="21.4062" y="141.9245" clip-path="url(#clipPath2)" stroke="none"/>
      <rect x="-898.943" y="141.9245" clip-path="url(#clipPath2)" fill="yellow" width="1" height="21.4062" stroke="none"/>
      <rect x="-897.943" y="141.9245" clip-path="url(#clipPath2)" fill="yellow" width="72.7148" height="1" stroke="none"/>
      <rect x="-897.943" y="162.3308" clip-path="url(#clipPath2)" fill="rgb(178,142,0)" width="73.7148" height="1" stroke="none"/>
      <rect x="-825.2282" y="141.9245" clip-path="url(#clipPath2)" fill="rgb(178,142,0)" width="1" height="20.4062" stroke="none"/>
    </g>
    <g text-rendering="geometricPrecision" stroke-miterlimit="1.45" shape-rendering="geometricPrecision" font-family="sans-serif" transform="matrix(1,0,0,1,1270,445)" stroke-linecap="butt">
      <text x="-894.9431" xml:space="preserve" y="156.7878" clip-path="url(#clipPath2)" stroke="none">chrono 0.4.9</text>
    </g>
    <g fill="rgb(255,204,0)" text-rendering="geometricPrecision" shape-rendering="geometricPrecision" transform="matrix(1,0,0,1,1270,445)" stroke="rgb(255,204,0)">
      <rect x="155.0911" width="72.7109" height="21.4062" y="251.9244" clip-path="url(#clipPath2)" stroke="none"/>
      <rect x="155.0911" y="251.9244" clip-path="url(#clipPath2)" fill="yellow" width="1" height="21.4062" stroke="none"/>
      <rect x="156.0911" y="251.9244" clip-path="url(#clipPath2)" fill="yellow" width="70.7109" height="1" stroke="none"/>
      <rect x="156.0911" y="272.3307" clip-path="url(#clipPath2)" fill="rgb(178,142,0)" width="71.7109" height="1" stroke="none"/>
      <rect x="226.802" y="251.9244" clip-path="url(#clipPath2)" fill="rgb(178,142,0)" width="1" height="20.4062" stroke="none"/>
    </g>
    <g text-rendering="geometricPrecision" stroke-miterlimit="1.45" shape-rendering="geometricPrecision" font-family="sans-serif" transform="matrix(1,0,0,1,1270,445)" stroke-linecap="butt">
      <text x="159.091" xml:space="preserve" y="266.7877" clip-path="url(#clipPath2)" stroke="none">ci_info 0.3.1</text>
    </g>
    <g fill="rgb(255,204,0)" text-rendering="geometricPrecision" shape-rendering="geometricPrecision" transform="matrix(1,0,0,1,1270,445)" stroke="rgb(255,204,0)">
      <rect x="-232.8305" width="110.7148" height="21.4062" y="-282.9683" clip-path="url(#clipPath2)" stroke="none"/>
      <rect x="-232.8305" y="-282.9683" clip-path="url(#clipPath2)" fill="yellow" width="1" height="21.4062" stroke="none"/>
      <rect x="-231.8305" y="-282.9683" clip-path="url(#clipPath2)" fill="yellow" width="108.7148" height="1" stroke="none"/>
      <rect x="-231.8305" y="-262.562" clip-path="url(#clipPath2)" fill="rgb(178,142,0)" width="109.7148" height="1" stroke="none"/>
      <rect x="-123.1157" y="-282.9683" clip-path="url(#clipPath2)" fill="rgb(178,142,0)" width="1" height="20.4062" stroke="none"/>
    </g>
    <g text-rendering="geometricPrecision" stroke-miterlimit="1.45" shape-rendering="geometricPrecision" font-family="sans-serif" transform="matrix(1,0,0,1,1270,445)" stroke-linecap="butt">
      <text x="-228.8305" xml:space="preserve" y="-268.105" clip-path="url(#clipPath2)" stroke="none">doc-comment 0.3.1</text>
    </g>
    <g fill="rgb(255,204,0)" text-rendering="geometricPrecision" shape-rendering="geometricPrecision" transform="matrix(1,0,0,1,1270,445)" stroke="rgb(255,204,0)">
      <rect x="-180.3395" width="60.7109" height="21.4062" y="-8.5153" clip-path="url(#clipPath2)" stroke="none"/>
      <rect x="-180.3395" y="-8.5153" clip-path="url(#clipPath2)" fill="yellow" width="1" height="21.4062" stroke="none"/>
      <rect x="-179.3395" y="-8.5153" clip-path="url(#clipPath2)" fill="yellow" width="58.7109" height="1" stroke="none"/>
      <rect x="-179.3395" y="11.891" clip-path="url(#clipPath2)" fill="rgb(178,142,0)" width="59.7109" height="1" stroke="none"/>
      <rect x="-120.6286" y="-8.5153" clip-path="url(#clipPath2)" fill="rgb(178,142,0)" width="1" height="20.4062" stroke="none"/>
    </g>
    <g text-rendering="geometricPrecision" stroke-miterlimit="1.45" shape-rendering="geometricPrecision" font-family="sans-serif" transform="matrix(1,0,0,1,1270,445)" stroke-linecap="butt">
      <text x="-176.3395" xml:space="preserve" y="6.348" clip-path="url(#clipPath2)" stroke="none">glob 0.3.0</text>
    </g>
    <g fill="rgb(255,204,0)" text-rendering="geometricPrecision" shape-rendering="geometricPrecision" transform="matrix(1,0,0,1,1270,445)" stroke="rgb(255,204,0)">
      <rect x="261.6368" width="57.3711" height="21.4062" y="-156.7783" clip-path="url(#clipPath2)" stroke="none"/>
      <rect x="261.6368" y="-156.7783" clip-path="url(#clipPath2)" fill="yellow" width="1" height="21.4062" stroke="none"/>
      <rect x="262.6368" y="-156.7783" clip-path="url(#clipPath2)" fill="yellow" width="55.3711" height="1" stroke="none"/>
      <rect x="262.6368" y="-136.372" clip-path="url(#clipPath2)" fill="rgb(178,142,0)" width="56.3711" height="1" stroke="none"/>
      <rect x="318.0079" y="-156.7783" clip-path="url(#clipPath2)" fill="rgb(178,142,0)" width="1" height="20.4062" stroke="none"/>
    </g>
    <g text-rendering="geometricPrecision" stroke-miterlimit="1.45" shape-rendering="geometricPrecision" font-family="sans-serif" transform="matrix(1,0,0,1,1270,445)" stroke-linecap="butt">
      <text x="265.6367" xml:space="preserve" y="-141.915" clip-path="url(#clipPath2)" stroke="none">itoa 0.4.4</text>
    </g>
    <g fill="rgb(255,204,0)" text-rendering="geometricPrecision" shape-rendering="geometricPrecision" transform="matrix(1,0,0,1,1270,445)" stroke="rgb(255,204,0)">
      <rect x="-144.5861" width="94.0449" height="21.4062" y="-124.6388" clip-path="url(#clipPath2)" stroke="none"/>
      <rect x="-144.5861" y="-124.6388" clip-path="url(#clipPath2)" fill="yellow" width="1" height="21.4062" stroke="none"/>
      <rect x="-143.5861" y="-124.6388" clip-path="url(#clipPath2)" fill="yellow" width="92.0449" height="1" stroke="none"/>
      <rect x="-143.5861" y="-104.2325" clip-path="url(#clipPath2)" fill="rgb(178,142,0)" width="93.0449" height="1" stroke="none"/>
      <rect x="-51.5412" y="-124.6388" clip-path="url(#clipPath2)" fill="rgb(178,142,0)" width="1" height="20.4062" stroke="none"/>
    </g>
    <g text-rendering="geometricPrecision" stroke-miterlimit="1.45" shape-rendering="geometricPrecision" font-family="sans-serif" transform="matrix(1,0,0,1,1270,445)" stroke-linecap="butt">
      <text x="-140.5861" xml:space="preserve" y="-109.7755" clip-path="url(#clipPath2)" stroke="none">lazy_static 1.4.0</text>
    </g>
    <g fill="rgb(255,204,0)" text-rendering="geometricPrecision" shape-rendering="geometricPrecision" transform="matrix(1,0,0,1,1270,445)" stroke="rgb(255,204,0)">
      <rect x="-1075.2394" width="62.7031" height="21.4062" y="-267.4584" clip-path="url(#clipPath2)" stroke="none"/>
      <rect x="-1075.2394" y="-267.4584" clip-path="url(#clipPath2)" fill="yellow" width="1" height="21.4062" stroke="none"/>
      <rect x="-1074.2394" y="-267.4584" clip-path="url(#clipPath2)" fill="yellow" width="60.7031" height="1" stroke="none"/>
      <rect x="-1074.2394" y="-247.0522" clip-path="url(#clipPath2)" fill="rgb(178,142,0)" width="61.7031" height="1" stroke="none"/>
      <rect x="-1013.5362" y="-267.4584" clip-path="url(#clipPath2)" fill="rgb(178,142,0)" width="1" height="20.4062" stroke="none"/>
    </g>
    <g text-rendering="geometricPrecision" stroke-miterlimit="1.45" shape-rendering="geometricPrecision" font-family="sans-serif" transform="matrix(1,0,0,1,1270,445)" stroke-linecap="butt">
      <text x="-1071.2394" xml:space="preserve" y="-252.5951" clip-path="url(#clipPath2)" stroke="none">libc 0.2.50</text>
    </g>
    <g fill="rgb(255,204,0)" text-rendering="geometricPrecision" shape-rendering="geometricPrecision" transform="matrix(1,0,0,1,1270,445)" stroke="rgb(255,204,0)">
      <rect x="-706.2798" width="62.7031" height="21.4062" y="-0.8577" clip-path="url(#clipPath2)" stroke="none"/>
      <rect x="-706.2798" y="-0.8577" clip-path="url(#clipPath2)" fill="yellow" width="1" height="21.4062" stroke="none"/>
      <rect x="-705.2798" y="-0.8577" clip-path="url(#clipPath2)" fill="yellow" width="60.7031" height="1" stroke="none"/>
      <rect x="-705.2798" y="19.5485" clip-path="url(#clipPath2)" fill="rgb(178,142,0)" width="61.7031" height="1" stroke="none"/>
      <rect x="-644.5766" y="-0.8577" clip-path="url(#clipPath2)" fill="rgb(178,142,0)" width="1" height="20.4062" stroke="none"/>
    </g>
    <g text-rendering="geometricPrecision" stroke-miterlimit="1.45" shape-rendering="geometricPrecision" font-family="sans-serif" transform="matrix(1,0,0,1,1270,445)" stroke-linecap="butt">
      <text x="-702.2798" xml:space="preserve" y="14.0056" clip-path="url(#clipPath2)" stroke="none">libc 0.2.62</text>
    </g>
    <g fill="rgb(255,204,0)" text-rendering="geometricPrecision" shape-rendering="geometricPrecision" transform="matrix(1,0,0,1,1270,445)" stroke="rgb(255,204,0)">
      <rect x="-1121.6244" width="108.7285" height="21.4062" y="118.0636" clip-path="url(#clipPath2)" stroke="none"/>
      <rect x="-1121.6244" y="118.0636" clip-path="url(#clipPath2)" fill="yellow" width="1" height="21.4062" stroke="none"/>
      <rect x="-1120.6244" y="118.0636" clip-path="url(#clipPath2)" fill="yellow" width="106.7285" height="1" stroke="none"/>
      <rect x="-1120.6244" y="138.4698" clip-path="url(#clipPath2)" fill="rgb(178,142,0)" width="107.7285" height="1" stroke="none"/>
      <rect x="-1013.8959" y="118.0636" clip-path="url(#clipPath2)" fill="rgb(178,142,0)" width="1" height="20.4062" stroke="none"/>
    </g>
    <g text-rendering="geometricPrecision" stroke-miterlimit="1.45" shape-rendering="geometricPrecision" font-family="sans-serif" transform="matrix(1,0,0,1,1270,445)" stroke-linecap="butt">
      <text x="-1117.6244" xml:space="preserve" y="132.9268" clip-path="url(#clipPath2)" stroke="none">num-integer 0.1.41</text>
    </g>
    <g fill="rgb(255,204,0)" text-rendering="geometricPrecision" shape-rendering="geometricPrecision" transform="matrix(1,0,0,1,1270,445)" stroke="rgb(255,204,0)">
      <rect x="-1083.3475" width="91.3672" height="21.4062" y="270.1501" clip-path="url(#clipPath2)" stroke="none"/>
      <rect x="-1083.3475" y="270.1501" clip-path="url(#clipPath2)" fill="yellow" width="1" height="21.4062" stroke="none"/>
      <rect x="-1082.3475" y="270.1501" clip-path="url(#clipPath2)" fill="yellow" width="89.3672" height="1" stroke="none"/>
      <rect x="-1082.3475" y="290.5563" clip-path="url(#clipPath2)" fill="rgb(178,142,0)" width="90.3672" height="1" stroke="none"/>
      <rect x="-992.9804" y="270.1501" clip-path="url(#clipPath2)" fill="rgb(178,142,0)" width="1" height="20.4062" stroke="none"/>
    </g>
    <g text-rendering="geometricPrecision" stroke-miterlimit="1.45" shape-rendering="geometricPrecision" font-family="sans-serif" transform="matrix(1,0,0,1,1270,445)" stroke-linecap="butt">
      <text x="-1079.3475" xml:space="preserve" y="285.0134" clip-path="url(#clipPath2)" stroke="none">num-traits 0.2.8</text>
    </g>
    <g fill="rgb(255,204,0)" text-rendering="geometricPrecision" shape-rendering="geometricPrecision" transform="matrix(1,0,0,1,1270,445)" stroke="rgb(255,204,0)">
      <rect x="786.1441" width="112.0508" height="21.4062" y="226.7321" clip-path="url(#clipPath2)" stroke="none"/>
      <rect x="786.1441" y="226.7321" clip-path="url(#clipPath2)" fill="yellow" width="1" height="21.4062" stroke="none"/>
      <rect x="787.1441" y="226.7321" clip-path="url(#clipPath2)" fill="yellow" width="110.0508" height="1" stroke="none"/>
      <rect x="787.1441" y="247.1384" clip-path="url(#clipPath2)" fill="rgb(178,142,0)" width="111.0508" height="1" stroke="none"/>
      <rect x="897.1949" y="226.7321" clip-path="url(#clipPath2)" fill="rgb(178,142,0)" width="1" height="20.4062" stroke="none"/>
    </g>
    <g text-rendering="geometricPrecision" stroke-miterlimit="1.45" shape-rendering="geometricPrecision" font-family="sans-serif" transform="matrix(1,0,0,1,1270,445)" stroke-linecap="butt">
      <text x="790.1441" xml:space="preserve" y="241.5954" clip-path="url(#clipPath2)" stroke="none">proc-macro2 0.4.27</text>
    </g>
    <g fill="rgb(255,204,0)" text-rendering="geometricPrecision" shape-rendering="geometricPrecision" transform="matrix(1,0,0,1,1270,445)" stroke="rgb(255,204,0)">
      <rect x="433.3451" width="112.0508" height="21.4062" y="91.8468" clip-path="url(#clipPath2)" stroke="none"/>
      <rect x="433.3451" y="91.8468" clip-path="url(#clipPath2)" fill="yellow" width="1" height="21.4062" stroke="none"/>
      <rect x="434.3451" y="91.8468" clip-path="url(#clipPath2)" fill="yellow" width="110.0508" height="1" stroke="none"/>
      <rect x="434.3451" y="112.253" clip-path="url(#clipPath2)" fill="rgb(178,142,0)" width="111.0508" height="1" stroke="none"/>
      <rect x="544.3959" y="91.8468" clip-path="url(#clipPath2)" fill="rgb(178,142,0)" width="1" height="20.4062" stroke="none"/>
    </g>
    <g text-rendering="geometricPrecision" stroke-miterlimit="1.45" shape-rendering="geometricPrecision" font-family="sans-serif" transform="matrix(1,0,0,1,1270,445)" stroke-linecap="butt">
      <text x="437.3452" xml:space="preserve" y="106.7101" clip-path="url(#clipPath2)" stroke="none">proc-macro2 0.4.30</text>
    </g>
    <g fill="rgb(255,204,0)" text-rendering="geometricPrecision" shape-rendering="geometricPrecision" transform="matrix(1,0,0,1,1270,445)" stroke="rgb(255,204,0)">
      <rect x="-135.9656" width="105.377" height="21.4062" y="303.4464" clip-path="url(#clipPath2)" stroke="none"/>
      <rect x="-135.9656" y="303.4464" clip-path="url(#clipPath2)" fill="yellow" width="1" height="21.4062" stroke="none"/>
      <rect x="-134.9656" y="303.4464" clip-path="url(#clipPath2)" fill="yellow" width="103.377" height="1" stroke="none"/>
      <rect x="-134.9656" y="323.8526" clip-path="url(#clipPath2)" fill="rgb(178,142,0)" width="104.377" height="1" stroke="none"/>
      <rect x="-31.5887" y="303.4464" clip-path="url(#clipPath2)" fill="rgb(178,142,0)" width="1" height="20.4062" stroke="none"/>
    </g>
    <g text-rendering="geometricPrecision" stroke-miterlimit="1.45" shape-rendering="geometricPrecision" font-family="sans-serif" transform="matrix(1,0,0,1,1270,445)" stroke-linecap="butt">
      <text x="-131.9656" xml:space="preserve" y="318.3097" clip-path="url(#clipPath2)" stroke="none">proc-macro2 1.0.5</text>
    </g>
    <g fill="rgb(255,204,0)" text-rendering="geometricPrecision" shape-rendering="geometricPrecision" transform="matrix(1,0,0,1,1270,445)" stroke="rgb(255,204,0)">
      <rect x="634.3875" width="74.7266" height="21.4062" y="55.4478" clip-path="url(#clipPath2)" stroke="none"/>
      <rect x="634.3875" y="55.4478" clip-path="url(#clipPath2)" fill="yellow" width="1" height="21.4062" stroke="none"/>
      <rect x="635.3875" y="55.4478" clip-path="url(#clipPath2)" fill="yellow" width="72.7266" height="1" stroke="none"/>
      <rect x="635.3875" y="75.8541" clip-path="url(#clipPath2)" fill="rgb(178,142,0)" width="73.7266" height="1" stroke="none"/>
      <rect x="708.114" y="55.4478" clip-path="url(#clipPath2)" fill="rgb(178,142,0)" width="1" height="20.4062" stroke="none"/>
    </g>
    <g text-rendering="geometricPrecision" stroke-miterlimit="1.45" shape-rendering="geometricPrecision" font-family="sans-serif" transform="matrix(1,0,0,1,1270,445)" stroke-linecap="butt">
      <text x="638.3875" xml:space="preserve" y="70.3111" clip-path="url(#clipPath2)" stroke="none">quote 0.6.11</text>
    </g>
    <g fill="rgb(255,204,0)" text-rendering="geometricPrecision" shape-rendering="geometricPrecision" transform="matrix(1,0,0,1,1270,445)" stroke="rgb(255,204,0)">
      <rect x="401.7292" width="74.7266" height="21.4062" y="228.4574" clip-path="url(#clipPath2)" stroke="none"/>
      <rect x="401.7292" y="228.4574" clip-path="url(#clipPath2)" fill="yellow" width="1" height="21.4062" stroke="none"/>
      <rect x="402.7292" y="228.4574" clip-path="url(#clipPath2)" fill="yellow" width="72.7266" height="1" stroke="none"/>
      <rect x="402.7292" y="248.8637" clip-path="url(#clipPath2)" fill="rgb(178,142,0)" width="73.7266" height="1" stroke="none"/>
      <rect x="475.4558" y="228.4574" clip-path="url(#clipPath2)" fill="rgb(178,142,0)" width="1" height="20.4062" stroke="none"/>
    </g>
    <g text-rendering="geometricPrecision" stroke-miterlimit="1.45" shape-rendering="geometricPrecision" font-family="sans-serif" transform="matrix(1,0,0,1,1270,445)" stroke-linecap="butt">
      <text x="405.7292" xml:space="preserve" y="243.3207" clip-path="url(#clipPath2)" stroke="none">quote 0.6.13</text>
    </g>
    <g fill="rgb(255,204,0)" text-rendering="geometricPrecision" shape-rendering="geometricPrecision" transform="matrix(1,0,0,1,1270,445)" stroke="rgb(255,204,0)">
      <rect x="-114.044" width="68.0527" height="21.4062" y="116.1715" clip-path="url(#clipPath2)" stroke="none"/>
      <rect x="-114.044" y="116.1715" clip-path="url(#clipPath2)" fill="yellow" width="1" height="21.4062" stroke="none"/>
      <rect x="-113.044" y="116.1715" clip-path="url(#clipPath2)" fill="yellow" width="66.0527" height="1" stroke="none"/>
      <rect x="-113.044" y="136.5778" clip-path="url(#clipPath2)" fill="rgb(178,142,0)" width="67.0527" height="1" stroke="none"/>
      <rect x="-46.9913" y="116.1715" clip-path="url(#clipPath2)" fill="rgb(178,142,0)" width="1" height="20.4062" stroke="none"/>
    </g>
    <g text-rendering="geometricPrecision" stroke-miterlimit="1.45" shape-rendering="geometricPrecision" font-family="sans-serif" transform="matrix(1,0,0,1,1270,445)" stroke-linecap="butt">
      <text x="-110.044" xml:space="preserve" y="131.0348" clip-path="url(#clipPath2)" stroke="none">quote 1.0.2</text>
    </g>
    <g fill="rgb(255,204,0)" text-rendering="geometricPrecision" shape-rendering="geometricPrecision" transform="matrix(1,0,0,1,1270,445)" stroke="rgb(255,204,0)">
      <rect x="-530.9673" width="62.041" height="21.4062" y="-3.4102" clip-path="url(#clipPath2)" stroke="none"/>
      <rect x="-530.9673" y="-3.4102" clip-path="url(#clipPath2)" fill="yellow" width="1" height="21.4062" stroke="none"/>
      <rect x="-529.9673" y="-3.4102" clip-path="url(#clipPath2)" fill="yellow" width="60.041" height="1" stroke="none"/>
      <rect x="-529.9673" y="16.996" clip-path="url(#clipPath2)" fill="rgb(178,142,0)" width="61.041" height="1" stroke="none"/>
      <rect x="-469.9263" y="-3.4102" clip-path="url(#clipPath2)" fill="rgb(178,142,0)" width="1" height="20.4062" stroke="none"/>
    </g>
    <g text-rendering="geometricPrecision" stroke-miterlimit="1.45" shape-rendering="geometricPrecision" font-family="sans-serif" transform="matrix(1,0,0,1,1270,445)" stroke-linecap="butt">
      <text x="-526.9673" xml:space="preserve" y="11.4531" clip-path="url(#clipPath2)" stroke="none">rand 0.4.6</text>
    </g>
    <g fill="rgb(255,204,0)" text-rendering="geometricPrecision" shape-rendering="geometricPrecision" transform="matrix(1,0,0,1,1270,445)" stroke="rgb(255,204,0)">
      <rect x="-331.3988" width="116.7266" height="21.4062" y="-429.5726" clip-path="url(#clipPath2)" stroke="none"/>
      <rect x="-331.3988" y="-429.5726" clip-path="url(#clipPath2)" fill="yellow" width="1" height="21.4062" stroke="none"/>
      <rect x="-330.3988" y="-429.5726" clip-path="url(#clipPath2)" fill="yellow" width="114.7266" height="1" stroke="none"/>
      <rect x="-330.3988" y="-409.1663" clip-path="url(#clipPath2)" fill="rgb(178,142,0)" width="115.7266" height="1" stroke="none"/>
      <rect x="-215.6722" y="-429.5726" clip-path="url(#clipPath2)" fill="rgb(178,142,0)" width="1" height="20.4062" stroke="none"/>
    </g>
    <g text-rendering="geometricPrecision" stroke-miterlimit="1.45" shape-rendering="geometricPrecision" font-family="sans-serif" transform="matrix(1,0,0,1,1270,445)" stroke-linecap="butt">
      <text x="-327.3988" xml:space="preserve" y="-414.7093" clip-path="url(#clipPath2)" stroke="none">remove_dir_all 0.5.2</text>
    </g>
    <g fill="rgb(255,204,0)" text-rendering="geometricPrecision" shape-rendering="geometricPrecision" transform="matrix(1,0,0,1,1270,445)" stroke="rgb(255,204,0)">
      <rect x="-936.0384" width="172.7246" height="21.4062" y="-219.69" clip-path="url(#clipPath2)" stroke="none"/>
      <rect x="-936.0384" y="-219.69" clip-path="url(#clipPath2)" fill="yellow" width="1" height="21.4062" stroke="none"/>
      <rect x="-935.0384" y="-219.69" clip-path="url(#clipPath2)" fill="yellow" width="170.7246" height="1" stroke="none"/>
      <rect x="-935.0384" y="-199.2837" clip-path="url(#clipPath2)" fill="rgb(178,142,0)" width="171.7246" height="1" stroke="none"/>
      <rect x="-764.3138" y="-219.69" clip-path="url(#clipPath2)" fill="rgb(178,142,0)" width="1" height="20.4062" stroke="none"/>
    </g>
    <g text-rendering="geometricPrecision" stroke-miterlimit="1.45" shape-rendering="geometricPrecision" font-family="sans-serif" transform="matrix(1,0,0,1,1270,445)" stroke-linecap="butt">
      <text x="-932.0384" xml:space="preserve" y="-204.8267" clip-path="url(#clipPath2)" stroke="none">rustc-std-workspace-core 1.0.0</text>
    </g>
    <g fill="rgb(255,204,0)" text-rendering="geometricPrecision" shape-rendering="geometricPrecision" transform="matrix(1,0,0,1,1270,445)" stroke="rgb(255,204,0)">
      <rect x="-253.755" width="96.7109" height="21.4062" y="241.162" clip-path="url(#clipPath2)" stroke="none"/>
      <rect x="-253.755" y="241.162" clip-path="url(#clipPath2)" fill="yellow" width="1" height="21.4062" stroke="none"/>
      <rect x="-252.755" y="241.162" clip-path="url(#clipPath2)" fill="yellow" width="94.7109" height="1" stroke="none"/>
      <rect x="-252.755" y="261.5682" clip-path="url(#clipPath2)" fill="rgb(178,142,0)" width="95.7109" height="1" stroke="none"/>
      <rect x="-158.0441" y="241.162" clip-path="url(#clipPath2)" fill="rgb(178,142,0)" width="1" height="20.4062" stroke="none"/>
    </g>
    <g text-rendering="geometricPrecision" stroke-miterlimit="1.45" shape-rendering="geometricPrecision" font-family="sans-serif" transform="matrix(1,0,0,1,1270,445)" stroke-linecap="butt">
      <text x="-249.755" xml:space="preserve" y="256.0252" clip-path="url(#clipPath2)" stroke="none">rustversion 0.1.4</text>
    </g>
    <g fill="rgb(255,204,0)" text-rendering="geometricPrecision" shape-rendering="geometricPrecision" transform="matrix(1,0,0,1,1270,445)" stroke="rgb(255,204,0)">
      <rect x="166.7038" width="54.6934" height="21.4062" y="-271.4126" clip-path="url(#clipPath2)" stroke="none"/>
      <rect x="166.7038" y="-271.4126" clip-path="url(#clipPath2)" fill="yellow" width="1" height="21.4062" stroke="none"/>
      <rect x="167.7038" y="-271.4126" clip-path="url(#clipPath2)" fill="yellow" width="52.6934" height="1" stroke="none"/>
      <rect x="167.7038" y="-251.0063" clip-path="url(#clipPath2)" fill="rgb(178,142,0)" width="53.6934" height="1" stroke="none"/>
      <rect x="220.3972" y="-271.4126" clip-path="url(#clipPath2)" fill="rgb(178,142,0)" width="1" height="20.4062" stroke="none"/>
    </g>
    <g text-rendering="geometricPrecision" stroke-miterlimit="1.45" shape-rendering="geometricPrecision" font-family="sans-serif" transform="matrix(1,0,0,1,1270,445)" stroke-linecap="butt">
      <text x="170.7038" xml:space="preserve" y="-256.5493" clip-path="url(#clipPath2)" stroke="none">ryu 1.0.1</text>
    </g>
    <g fill="rgb(255,204,0)" text-rendering="geometricPrecision" shape-rendering="geometricPrecision" transform="matrix(1,0,0,1,1270,445)" stroke="rgb(255,204,0)">
      <rect x="95.0897" width="81.3887" height="21.4062" y="53.0361" clip-path="url(#clipPath2)" stroke="none"/>
      <rect x="95.0897" y="53.0361" clip-path="url(#clipPath2)" fill="yellow" width="1" height="21.4062" stroke="none"/>
      <rect x="96.0897" y="53.0361" clip-path="url(#clipPath2)" fill="yellow" width="79.3887" height="1" stroke="none"/>
      <rect x="96.0897" y="73.4423" clip-path="url(#clipPath2)" fill="rgb(178,142,0)" width="80.3887" height="1" stroke="none"/>
      <rect x="175.4784" y="53.0361" clip-path="url(#clipPath2)" fill="rgb(178,142,0)" width="1" height="20.4062" stroke="none"/>
    </g>
    <g text-rendering="geometricPrecision" stroke-miterlimit="1.45" shape-rendering="geometricPrecision" font-family="sans-serif" transform="matrix(1,0,0,1,1270,445)" stroke-linecap="butt">
      <text x="99.0897" xml:space="preserve" y="67.8994" clip-path="url(#clipPath2)" stroke="none">serde 1.0.101</text>
    </g>
    <g fill="rgb(255,204,0)" text-rendering="geometricPrecision" shape-rendering="geometricPrecision" transform="matrix(1,0,0,1,1270,445)" stroke="rgb(255,204,0)">
      <rect x="460.8114" width="74.7148" height="21.4062" y="-53.4561" clip-path="url(#clipPath2)" stroke="none"/>
      <rect x="460.8114" y="-53.4561" clip-path="url(#clipPath2)" fill="yellow" width="1" height="21.4062" stroke="none"/>
      <rect x="461.8114" y="-53.4561" clip-path="url(#clipPath2)" fill="yellow" width="72.7148" height="1" stroke="none"/>
      <rect x="461.8114" y="-33.0499" clip-path="url(#clipPath2)" fill="rgb(178,142,0)" width="73.7148" height="1" stroke="none"/>
      <rect x="534.5263" y="-53.4561" clip-path="url(#clipPath2)" fill="rgb(178,142,0)" width="1" height="20.4062" stroke="none"/>
    </g>
    <g text-rendering="geometricPrecision" stroke-miterlimit="1.45" shape-rendering="geometricPrecision" font-family="sans-serif" transform="matrix(1,0,0,1,1270,445)" stroke-linecap="butt">
      <text x="464.8114" xml:space="preserve" y="-38.5928" clip-path="url(#clipPath2)" stroke="none">serde 1.0.89</text>
    </g>
    <g fill="rgb(255,204,0)" text-rendering="geometricPrecision" shape-rendering="geometricPrecision" transform="matrix(1,0,0,1,1270,445)" stroke="rgb(255,204,0)">
      <rect x="253.3945" width="114.0723" height="21.4062" y="85.5146" clip-path="url(#clipPath2)" stroke="none"/>
      <rect x="253.3945" y="85.5146" clip-path="url(#clipPath2)" fill="yellow" width="1" height="21.4062" stroke="none"/>
      <rect x="254.3945" y="85.5146" clip-path="url(#clipPath2)" fill="yellow" width="112.0723" height="1" stroke="none"/>
      <rect x="254.3945" y="105.9208" clip-path="url(#clipPath2)" fill="rgb(178,142,0)" width="113.0723" height="1" stroke="none"/>
      <rect x="366.4667" y="85.5146" clip-path="url(#clipPath2)" fill="rgb(178,142,0)" width="1" height="20.4062" stroke="none"/>
    </g>
    <g text-rendering="geometricPrecision" stroke-miterlimit="1.45" shape-rendering="geometricPrecision" font-family="sans-serif" transform="matrix(1,0,0,1,1270,445)" stroke-linecap="butt">
      <text x="257.3945" xml:space="preserve" y="100.3778" clip-path="url(#clipPath2)" stroke="none">serde_derive 1.0.89</text>
    </g>
    <g fill="rgb(255,204,0)" text-rendering="geometricPrecision" shape-rendering="geometricPrecision" transform="matrix(1,0,0,1,1270,445)" stroke="rgb(255,204,0)">
      <rect x="63.3032" width="103.4023" height="21.4062" y="-107.0047" clip-path="url(#clipPath2)" stroke="none"/>
      <rect x="63.3032" y="-107.0047" clip-path="url(#clipPath2)" fill="yellow" width="1" height="21.4062" stroke="none"/>
      <rect x="64.3032" y="-107.0047" clip-path="url(#clipPath2)" fill="yellow" width="101.4023" height="1" stroke="none"/>
      <rect x="64.3032" y="-86.5984" clip-path="url(#clipPath2)" fill="rgb(178,142,0)" width="102.4023" height="1" stroke="none"/>
      <rect x="165.7056" y="-107.0047" clip-path="url(#clipPath2)" fill="rgb(178,142,0)" width="1" height="20.4062" stroke="none"/>
    </g>
    <g text-rendering="geometricPrecision" stroke-miterlimit="1.45" shape-rendering="geometricPrecision" font-family="sans-serif" transform="matrix(1,0,0,1,1270,445)" stroke-linecap="butt">
      <text x="67.3032" xml:space="preserve" y="-92.1414" clip-path="url(#clipPath2)" stroke="none">serde_json 1.0.41</text>
    </g>
    <g fill="rgb(255,204,0)" text-rendering="geometricPrecision" shape-rendering="geometricPrecision" transform="matrix(1,0,0,1,1270,445)" stroke="rgb(255,204,0)">
      <rect x="-304.9974" width="60.0371" height="21.4062" y="-183.9417" clip-path="url(#clipPath2)" stroke="none"/>
      <rect x="-304.9974" y="-183.9417" clip-path="url(#clipPath2)" fill="yellow" width="1" height="21.4062" stroke="none"/>
      <rect x="-303.9974" y="-183.9417" clip-path="url(#clipPath2)" fill="yellow" width="58.0371" height="1" stroke="none"/>
      <rect x="-303.9974" y="-163.5355" clip-path="url(#clipPath2)" fill="rgb(178,142,0)" width="59.0371" height="1" stroke="none"/>
      <rect x="-245.9603" y="-183.9417" clip-path="url(#clipPath2)" fill="rgb(178,142,0)" width="1" height="20.4062" stroke="none"/>
    </g>
    <g text-rendering="geometricPrecision" stroke-miterlimit="1.45" shape-rendering="geometricPrecision" font-family="sans-serif" transform="matrix(1,0,0,1,1270,445)" stroke-linecap="butt">
      <text x="-300.9974" xml:space="preserve" y="-169.0785" clip-path="url(#clipPath2)" stroke="none">spin 0.5.2</text>
    </g>
    <g fill="rgb(255,204,0)" text-rendering="geometricPrecision" shape-rendering="geometricPrecision" transform="matrix(1,0,0,1,1270,445)" stroke="rgb(255,204,0)">
      <rect x="350.4213" width="70.0449" height="21.4062" y="307.7826" clip-path="url(#clipPath2)" stroke="none"/>
      <rect x="350.4213" y="307.7826" clip-path="url(#clipPath2)" fill="yellow" width="1" height="21.4062" stroke="none"/>
      <rect x="351.4213" y="307.7826" clip-path="url(#clipPath2)" fill="yellow" width="68.0449" height="1" stroke="none"/>
      <rect x="351.4213" y="328.1888" clip-path="url(#clipPath2)" fill="rgb(178,142,0)" width="69.0449" height="1" stroke="none"/>
      <rect x="419.4662" y="307.7826" clip-path="url(#clipPath2)" fill="rgb(178,142,0)" width="1" height="20.4062" stroke="none"/>
    </g>
    <g text-rendering="geometricPrecision" stroke-miterlimit="1.45" shape-rendering="geometricPrecision" font-family="sans-serif" transform="matrix(1,0,0,1,1270,445)" stroke-linecap="butt">
      <text x="354.4213" xml:space="preserve" y="322.6458" clip-path="url(#clipPath2)" stroke="none">syn 0.15.29</text>
    </g>
    <g fill="rgb(255,204,0)" text-rendering="geometricPrecision" shape-rendering="geometricPrecision" transform="matrix(1,0,0,1,1270,445)" stroke="rgb(255,204,0)">
      <rect x="-299.6422" width="56.6973" height="21.4062" y="168.2517" clip-path="url(#clipPath2)" stroke="none"/>
      <rect x="-299.6422" y="168.2517" clip-path="url(#clipPath2)" fill="yellow" width="1" height="21.4062" stroke="none"/>
      <rect x="-298.6422" y="168.2517" clip-path="url(#clipPath2)" fill="yellow" width="54.6973" height="1" stroke="none"/>
      <rect x="-298.6422" y="188.6579" clip-path="url(#clipPath2)" fill="rgb(178,142,0)" width="55.6973" height="1" stroke="none"/>
      <rect x="-243.9449" y="168.2517" clip-path="url(#clipPath2)" fill="rgb(178,142,0)" width="1" height="20.4062" stroke="none"/>
    </g>
    <g text-rendering="geometricPrecision" stroke-miterlimit="1.45" shape-rendering="geometricPrecision" font-family="sans-serif" transform="matrix(1,0,0,1,1270,445)" stroke-linecap="butt">
      <text x="-295.6422" xml:space="preserve" y="183.1149" clip-path="url(#clipPath2)" stroke="none">syn 1.0.5</text>
    </g>
    <g fill="rgb(255,204,0)" text-rendering="geometricPrecision" shape-rendering="geometricPrecision" transform="matrix(1,0,0,1,1270,445)" stroke="rgb(255,204,0)">
      <rect x="-363.984" width="78.0371" height="21.4062" y="-5.9627" clip-path="url(#clipPath2)" stroke="none"/>
      <rect x="-363.984" y="-5.9627" clip-path="url(#clipPath2)" fill="yellow" width="1" height="21.4062" stroke="none"/>
      <rect x="-362.984" y="-5.9627" clip-path="url(#clipPath2)" fill="yellow" width="76.0371" height="1" stroke="none"/>
      <rect x="-362.984" y="14.4435" clip-path="url(#clipPath2)" fill="rgb(178,142,0)" width="77.0371" height="1" stroke="none"/>
      <rect x="-286.9469" y="-5.9627" clip-path="url(#clipPath2)" fill="rgb(178,142,0)" width="1" height="20.4062" stroke="none"/>
    </g>
    <g text-rendering="geometricPrecision" stroke-miterlimit="1.45" shape-rendering="geometricPrecision" font-family="sans-serif" transform="matrix(1,0,0,1,1270,445)" stroke-linecap="butt">
      <text x="-359.984" xml:space="preserve" y="8.9005" clip-path="url(#clipPath2)" stroke="none">tempdir 0.3.7</text>
    </g>
    <g fill="rgb(255,204,0)" text-rendering="geometricPrecision" shape-rendering="geometricPrecision" transform="matrix(1,0,0,1,1270,445)" stroke="rgb(255,204,0)">
      <rect x="-34.1467" width="88.0332" height="21.4062" y="-160.3781" clip-path="url(#clipPath2)" stroke="none"/>
      <rect x="-34.1467" y="-160.3781" clip-path="url(#clipPath2)" fill="yellow" width="1" height="21.4062" stroke="none"/>
      <rect x="-33.1467" y="-160.3781" clip-path="url(#clipPath2)" fill="yellow" width="86.0332" height="1" stroke="none"/>
      <rect x="-33.1467" y="-139.9718" clip-path="url(#clipPath2)" fill="rgb(178,142,0)" width="87.0332" height="1" stroke="none"/>
      <rect x="52.8865" y="-160.3781" clip-path="url(#clipPath2)" fill="rgb(178,142,0)" width="1" height="20.4062" stroke="none"/>
    </g>
    <g text-rendering="geometricPrecision" stroke-miterlimit="1.45" shape-rendering="geometricPrecision" font-family="sans-serif" transform="matrix(1,0,0,1,1270,445)" stroke-linecap="butt">
      <text x="-30.1467" xml:space="preserve" y="-145.5148" clip-path="url(#clipPath2)" stroke="none">termcolor 1.0.5</text>
    </g>
    <g fill="rgb(255,204,0)" text-rendering="geometricPrecision" shape-rendering="geometricPrecision" transform="matrix(1,0,0,1,1270,445)" stroke="rgb(255,204,0)">
      <rect x="-908.2851" width="67.3672" height="21.4062" y="-37.1091" clip-path="url(#clipPath2)" stroke="none"/>
      <rect x="-908.2851" y="-37.1091" clip-path="url(#clipPath2)" fill="yellow" width="1" height="21.4062" stroke="none"/>
      <rect x="-907.2851" y="-37.1091" clip-path="url(#clipPath2)" fill="yellow" width="65.3672" height="1" stroke="none"/>
      <rect x="-907.2851" y="-16.7028" clip-path="url(#clipPath2)" fill="rgb(178,142,0)" width="66.3672" height="1" stroke="none"/>
      <rect x="-841.9179" y="-37.1091" clip-path="url(#clipPath2)" fill="rgb(178,142,0)" width="1" height="20.4062" stroke="none"/>
    </g>
    <g text-rendering="geometricPrecision" stroke-miterlimit="1.45" shape-rendering="geometricPrecision" font-family="sans-serif" transform="matrix(1,0,0,1,1270,445)" stroke-linecap="butt">
      <text x="-904.285" xml:space="preserve" y="-22.2458" clip-path="url(#clipPath2)" stroke="none">time 0.1.42</text>
    </g>
    <g fill="rgb(255,204,0)" text-rendering="geometricPrecision" shape-rendering="geometricPrecision" transform="matrix(1,0,0,1,1270,445)" stroke="rgb(255,204,0)">
      <rect x="5.0272" width="60.6934" height="21.4062" y="135.0662" clip-path="url(#clipPath2)" stroke="none"/>
      <rect x="5.0272" y="135.0662" clip-path="url(#clipPath2)" fill="yellow" width="1" height="21.4062" stroke="none"/>
      <rect x="6.0272" y="135.0662" clip-path="url(#clipPath2)" fill="yellow" width="58.6934" height="1" stroke="none"/>
      <rect x="6.0272" y="155.4724" clip-path="url(#clipPath2)" fill="rgb(178,142,0)" width="59.6934" height="1" stroke="none"/>
      <rect x="64.7206" y="135.0662" clip-path="url(#clipPath2)" fill="rgb(178,142,0)" width="1" height="20.4062" stroke="none"/>
    </g>
    <g text-rendering="geometricPrecision" stroke-miterlimit="1.45" shape-rendering="geometricPrecision" font-family="sans-serif" transform="matrix(1,0,0,1,1270,445)" stroke-linecap="butt">
      <text x="9.0272" xml:space="preserve" y="149.9295" clip-path="url(#clipPath2)" stroke="none">toml 0.5.3</text>
    </g>
    <g fill="rgb(255,204,0)" text-rendering="geometricPrecision" shape-rendering="geometricPrecision" transform="matrix(1,0,0,1,1270,445)" stroke="rgb(255,204,0)">
      <rect x="-41.6904" width="83.3809" height="21.4062" y="-10.7031" clip-path="url(#clipPath2)" stroke="none"/>
      <rect x="-41.6904" y="-10.7031" clip-path="url(#clipPath2)" fill="yellow" width="1" height="21.4062" stroke="none"/>
      <rect x="-40.6904" y="-10.7031" clip-path="url(#clipPath2)" fill="yellow" width="81.3809" height="1" stroke="none"/>
      <rect x="-40.6904" y="9.7031" clip-path="url(#clipPath2)" fill="rgb(178,142,0)" width="82.3809" height="1" stroke="none"/>
      <rect x="40.6904" y="-10.7031" clip-path="url(#clipPath2)" fill="rgb(178,142,0)" width="1" height="20.4062" stroke="none"/>
    </g>
    <g text-rendering="geometricPrecision" stroke-miterlimit="1.45" shape-rendering="geometricPrecision" font-family="sans-serif" transform="matrix(1,0,0,1,1270,445)" stroke-linecap="butt">
      <text x="-37.6904" xml:space="preserve" y="4.1602" clip-path="url(#clipPath2)" stroke="none">trybuild 1.0.17</text>
    </g>
    <g fill="rgb(255,204,0)" text-rendering="geometricPrecision" shape-rendering="geometricPrecision" transform="matrix(1,0,0,1,1270,445)" stroke="rgb(255,204,0)">
      <rect x="599.9764" width="99.3945" height="21.4062" y="172.4612" clip-path="url(#clipPath2)" stroke="none"/>
      <rect x="599.9764" y="172.4612" clip-path="url(#clipPath2)" fill="yellow" width="1" height="21.4062" stroke="none"/>
      <rect x="600.9764" y="172.4612" clip-path="url(#clipPath2)" fill="yellow" width="97.3945" height="1" stroke="none"/>
      <rect x="600.9764" y="192.8675" clip-path="url(#clipPath2)" fill="rgb(178,142,0)" width="98.3945" height="1" stroke="none"/>
      <rect x="698.3709" y="172.4612" clip-path="url(#clipPath2)" fill="rgb(178,142,0)" width="1" height="20.4062" stroke="none"/>
    </g>
    <g text-rendering="geometricPrecision" stroke-miterlimit="1.45" shape-rendering="geometricPrecision" font-family="sans-serif" transform="matrix(1,0,0,1,1270,445)" stroke-linecap="butt">
      <text x="603.9764" xml:space="preserve" y="187.3245" clip-path="url(#clipPath2)" stroke="none">unicode-xid 0.1.0</text>
    </g>
    <g fill="rgb(255,204,0)" text-rendering="geometricPrecision" shape-rendering="geometricPrecision" transform="matrix(1,0,0,1,1270,445)" stroke="rgb(255,204,0)">
      <rect x="-177.8159" width="99.3945" height="21.4062" y="472.6038" clip-path="url(#clipPath2)" stroke="none"/>
      <rect x="-177.8159" y="472.6038" clip-path="url(#clipPath2)" fill="yellow" width="1" height="21.4062" stroke="none"/>
      <rect x="-176.8159" y="472.6038" clip-path="url(#clipPath2)" fill="yellow" width="97.3945" height="1" stroke="none"/>
      <rect x="-176.8159" y="493.0101" clip-path="url(#clipPath2)" fill="rgb(178,142,0)" width="98.3945" height="1" stroke="none"/>
      <rect x="-79.4214" y="472.6038" clip-path="url(#clipPath2)" fill="rgb(178,142,0)" width="1" height="20.4062" stroke="none"/>
    </g>
    <g text-rendering="geometricPrecision" stroke-miterlimit="1.45" shape-rendering="geometricPrecision" font-family="sans-serif" transform="matrix(1,0,0,1,1270,445)" stroke-linecap="butt">
      <text x="-173.8159" xml:space="preserve" y="487.4671" clip-path="url(#clipPath2)" stroke="none">unicode-xid 0.2.0</text>
    </g>
  </g>
</svg>
