<?xml version="1.0" encoding="UTF-8"?><svg xmlns="http://www.w3.org/2000/svg" xmlns:xlink="http://www.w3.org/1999/xlink" fill-opacity="1" color-rendering="auto" color-interpolation="auto" text-rendering="auto" stroke="black" stroke-linecap="square" width="982" stroke-miterlimit="10" shape-rendering="auto" stroke-opacity="1" fill="black" stroke-dasharray="none" font-weight="normal" stroke-width="1" height="752" font-family="'Dialog'" font-style="normal" stroke-linejoin="miter" font-size="12px" stroke-dashoffset="0" image-rendering="auto">
  <!--Generated by ySVG 2.5-->
  <defs id="genericDefs"/>
  <g>
    <defs id="defs1">
      <clipPath clipPathUnits="userSpaceOnUse" id="clipPath1">
        <path d="M0 0 L982 0 L982 752 L0 752 L0 0 Z"/>
      </clipPath>
      <clipPath clipPathUnits="userSpaceOnUse" id="clipPath2">
        <path d="M-403 -342 L579 -342 L579 410 L-403 410 L-403 -342 Z"/>
      </clipPath>
    </defs>
    <g fill="white" text-rendering="geometricPrecision" shape-rendering="geometricPrecision" transform="translate(403,342)" stroke="white">
      <rect x="-403" width="982" height="752" y="-342" clip-path="url(#clipPath2)" stroke="none"/>
    </g>
    <g text-rendering="geometricPrecision" stroke-miterlimit="1.45" stroke-width="2" shape-rendering="geometricPrecision" transform="matrix(1,0,0,1,403,342)" stroke-linecap="butt">
      <path fill="none" d="M102.0914 325.6646 L103.1639 323.5464 L108.592 313.6041 L108.592 313.6041 L118.0635 297.1877 L137.867 263.9254 L147.9617 246.6606 L158.476 228.3469 L168.1779 210.8601 L168.4197 210.4088 L177.6516 192.6687 L177.7564 192.4612 L186.5003 174.5896 L186.5003 174.5896 L194.5148 156.7734 L194.5148 156.7734 L200.9274 138.773 L200.9274 138.773 L204.862 120.4395 L204.862 120.4395 L206.1198 102.235 L206.1198 102.235 L204.7392 84.6908 L204.7392 84.6908 L200.8823 68.2816 L200.8823 68.2816 L194.8118 53.3938 L194.8118 53.3938 L186.8615 40.305 L186.8615 40.305 L177.4049 29.1747 L177.4049 29.1747 L169.8565 22.2777 L167.3649 20.4438" clip-path="url(#clipPath2)"/>
      <path d="M167.3649 20.4438 L174.903 32.9765 L175.5193 26.4457 L181.5717 23.9161 Z" clip-path="url(#clipPath2)" stroke="none"/>
      <path fill="none" d="M327.2512 -50.6053 L319.0739 -45.9853 L302.2769 -36.9524 L302.2769 -36.9524 L284.9232 -28.5147 L284.9232 -28.5147 L267.3535 -20.8562 L267.3535 -20.8562 L249.5937 -13.9823 L249.5937 -13.9823 L231.6697 -7.8972 L231.6697 -7.8972 L218.5361 -3.936 L214.4023 -2.8195" clip-path="url(#clipPath2)" stroke="rgb(191,4,4)"/>
      <path fill="rgb(191,4,4)" d="M205.7136 -0.4728 L220.2133 1.4376 L215.4883 -3.1128 L217.2799 -9.4233 Z" clip-path="url(#clipPath2)" stroke="none"/>
      <path fill="none" d="M259.214 224.4874 L259.215 219.6583 L258.5771 204.8983 L258.5771 204.8983 L256.6807 185.3174 L256.6807 185.3174 L253.5712 166.333 L253.5712 166.333 L249.2988 148.0134 L249.2988 148.0134 L243.9176 130.4236 L243.9176 130.4236 L237.4848 113.6251 L237.4848 113.6251 L230.0611 97.6759 L230.0611 97.6759 L221.7101 82.6297 L221.7101 82.6297 L212.4983 68.5367 L212.4983 68.5367 L202.4946 55.4424 L202.4946 55.4424 L191.7703 43.3885 L191.7703 43.3885 L180.3988 32.412 L180.3988 32.412 L180.3988 32.412 M175.6853 28.2803 L173.7161 26.554 L172.8715 25.9105" clip-path="url(#clipPath2)" stroke="rgb(0,158,255)"/>
      <path fill="rgb(0,158,255)" d="M165.7128 20.4559 L173.0417 33.112 L173.7664 26.5923 L179.86 24.1637 Z" clip-path="url(#clipPath2)" stroke="none"/>
      <path fill="none" d="M370.888 -50.6516 L374.4899 -46.7204 L382.2093 -36.4596 L382.2093 -36.4596 L390.0776 -22.1601 L390.0776 -22.1601 L396.9704 -4.6965 L397.0125 -4.5695 L402.2291 14.7065 L402.7618 17.2186 L405.8708 36.9474 L406.3724 41.7713 L407.4164 61.7176 L407.423 68.6373 L406.4287 88.5868 L405.5527 97.2688 L402.5449 117.0154 L400.4958 127.0334 L395.5071 146.3748 L392.1098 157.2379 L385.1878 175.9743 L380.3968 187.1599 L371.6084 205.0966 L365.5124 216.0853 L354.9459 233.0356 L347.7637 243.3472 L335.5286 259.1353 L327.5951 268.3619 L313.8202 282.8264 L305.5625 290.6595 L290.3933 303.6545 L282.3008 309.9052 L265.8956 321.3001 L258.4861 325.9092 L241.0121 335.5856 L234.7963 338.6264 L216.4278 346.4713 L211.8758 348.1449 L192.7934 354.0399 L190.3033 354.6677 L170.6995 358.471 L170.5669 358.4892 L151.8523 359.9895 L151.8523 359.9895 L135.549 359.2209 L135.549 359.2209 L121.962 356.5212 L121.962 356.5212 L111.2296 352.221 L111.2296 352.221 L105.2302 348.393 L103.8721 347.0756" clip-path="url(#clipPath2)" stroke="rgb(191,4,4)"/>
      <path fill="rgb(191,4,4)" d="M103.8721 347.0756 L109.6453 360.5128 L111.1395 354.1255 L117.4785 352.438 Z" clip-path="url(#clipPath2)" stroke="none"/>
      <path fill="none" d="M273.986 245.9054 L276.9327 252.3975 L279.4717 259.446 L281.1951 267.6075 L281.1951 267.6075 L281.9256 276.51 L281.4857 285.7819 L281.4857 285.7819 L279.8827 295.231 L277.1243 304.6654 L276.9243 305.2306 L273.1173 314.4334 L273.1173 314.4334 M269.1224 321.7979 L268.3686 323.1875 L267.2751 324.9744 L255.3019 340.8789 L253.1041 343.2788 L238.3693 356.6788 L235.2688 359.0195 L218.3592 369.5479 L214.8905 371.2974 L196.3637 378.607 L193.2403 379.5203 L173.6846 383.2467 L171.5986 383.4394 L161.6474 383.8379 L151.7092 383.1933 L151.1137 383.1234 L141.4303 381.4356 L132.2435 378.7045 L132.2435 378.7045 L123.729 375.008 L116.0624 370.424 L116.0624 370.424 L109.3109 365.0471 L103.5417 358.9713 L103.5417 358.9713 L97.0714 349.8162 L95.8791 347.0862" clip-path="url(#clipPath2)" stroke="rgb(0,158,255)"/>
      <path fill="rgb(0,158,255)" d="M95.8791 347.0862 L96.1274 361.7091 L99.9314 356.3649 L106.437 357.2065 Z" clip-path="url(#clipPath2)" stroke="none"/>
      <text x="128.6" y="374.5842" clip-path="url(#clipPath2)" font-family="sans-serif" stroke="none" stroke-width="1" xml:space="preserve">feature:default</text>
      <path fill="none" d="M248.6178 245.8813 L252.2798 250.2113 L258.2302 259.5825 L258.2302 259.5825 L261.4332 270.6853 L261.4332 270.6853 L261.5881 283.7556 L261.5881 283.7556 L258.131 298.3861 L258.131 298.3861 L250.7184 313.7137 L250.7184 313.7137 L239.4206 328.6073 L239.4206 328.6073 L224.8569 341.8204 L224.6551 341.9728 L223.8635 342.4657 M215.3745 347.7512 L207.7454 352.5013 L207.5195 352.6152 L189.236 359.8537 L189.236 359.8537 L170.8854 363.4201 L170.8854 363.4201 L153.8599 363.3085 L153.8599 363.3085 L139.2053 359.9548 L139.2053 359.9548 L139.2053 359.9548 M133.5226 357.0763 L127.5447 354.0482 L127.5447 354.0482 L121.095 348.8314 L119.6811 347.1102" clip-path="url(#clipPath2)" stroke="rgb(0,158,255)"/>
      <path fill="rgb(0,158,255)" d="M119.6811 347.1102 L123.9038 361.1123 L126.108 354.9339 L132.5968 353.9713 Z" clip-path="url(#clipPath2)" stroke="none"/>
      <text x="147.2462" y="289.9157" clip-path="url(#clipPath2)" font-family="sans-serif" stroke="none" stroke-width="1" xml:space="preserve">weak:feature:printing</text>
      <path fill="none" d="M261.7289 245.8981 L263.1014 247.521 L267.3364 255.4502 L267.3364 255.4502 L271.3141 269.1464 L271.3141 269.1464 L271.9275 276.7468 L271.5369 284.7687 L271.5369 284.7687 L270.1008 293.1096 L267.5776 301.6671 L267.5776 301.6671 L259.2914 318.8626 L259.2489 318.932 L253.7937 326.1784 M247.7793 334.1676 L247.2757 334.8365 L246.3479 335.8496 L231.6131 349.2496 L229.9619 350.4961 L213.0523 361.0246 L211.205 361.9563 L192.6782 369.2659 L191.3597 369.6515 L171.804 373.3778 L171.723 373.3853 L152.6357 373.2334 L152.6357 373.2334 L143.843 371.7215 L135.7244 369.3297 L135.7244 369.3297 L128.3534 366.1404 L121.8036 362.2361 L121.8036 362.2361 L111.2682 352.623 L111.2682 352.623 L111.2682 352.623 M107.4728 347.9601 L106.8257 347.1652 L106.7793 347.0589" clip-path="url(#clipPath2)" stroke="rgb(0,158,255)"/>
      <path fill="rgb(0,158,255)" d="M106.7793 347.0589 L107.027 361.6818 L110.8313 356.3377 L117.3369 357.1795 Z" clip-path="url(#clipPath2)" stroke="none"/>
      <text x="124.0911" y="363.2551" clip-path="url(#clipPath2)" font-family="sans-serif" stroke="none" stroke-width="1" xml:space="preserve">weak:feature:proc-macro</text>
      <path fill="none" d="M284.9692 245.9084 L287.2646 250.9654 L291.0523 265.9104 L291.1 266.2266 L291.9498 276.1281 L291.5145 286.0564 L291.3543 287.5336 L289.7119 297.3466 L288.5503 301.3519 M286.9404 306.9024 L286.9404 306.9024 L286.0015 309.5555 L282.1945 318.7583 L277.4458 327.5124 L275.3014 331.0167 L263.3282 346.9212 L259.8603 350.7079 L245.1255 364.1079 L240.5757 367.5428 L223.666 378.0713 L218.576 380.6385 L200.0492 387.9481 L195.1208 389.3892 L175.5651 393.1155 L171.4742 393.4935 L161.523 393.892 L151.5848 393.2474 L148.7896 392.9192 L138.9915 391.1897 L129.4607 388.3334 L128.0645 387.8253 L118.963 383.8348 L110.4527 378.7031 L110.1899 378.5208 L102.4889 372.3693 L95.8152 365.3196 L95.8152 365.3196 L89.1069 356.5654 L88.5586 355.3099" clip-path="url(#clipPath2)" stroke="rgb(0,158,255)"/>
      <path fill="rgb(0,158,255)" d="M84.9565 347.0621 L85.2048 361.685 L89.0089 356.3408 L95.5145 357.1824 Z" clip-path="url(#clipPath2)" stroke="none"/>
      <text x="212.3281" y="269.8857" clip-path="url(#clipPath2)" font-family="sans-serif" stroke="none" stroke-width="1" xml:space="preserve">weak:optional</text>
      <path fill="none" d="M-219.7193 -259.6553 L-220.9504 -254.6486 L-223.8952 -240.032 L-223.8952 -240.032 L-226.6656 -220.9477 L-226.6656 -220.9477 L-228.1396 -202.1752 L-228.1396 -202.1752 L-228.3548 -183.7943 L-228.3548 -183.7943 L-227.3536 -165.8816 L-227.3536 -165.8816 L-225.1828 -148.5106 L-225.1828 -148.5106 L-221.8935 -131.7513 L-221.8935 -131.7513 L-217.5408 -115.6698 L-217.5408 -115.6698 L-212.1834 -100.3285 L-212.1834 -100.3285 L-205.8838 -85.7852 L-205.8838 -85.7852 L-198.7075 -72.0938 L-198.7075 -72.0938 L-190.723 -59.3031 L-190.723 -59.3031 L-182.0013 -47.4575 L-182.0013 -47.4575 L-172.6158 -36.5964 L-172.6158 -36.5964 L-162.6419 -26.754 L-162.6419 -26.754 L-156.4376 -21.2593 L-155.3578 -20.427" clip-path="url(#clipPath2)"/>
      <path d="M-155.3578 -20.427 L-162.6165 -33.1235 L-163.3772 -26.608 L-169.4843 -24.213 Z" clip-path="url(#clipPath2)" stroke="none"/>
      <text x="-385.5175" y="-235.8718" clip-path="url(#clipPath2)" font-family="sans-serif" stroke="none" stroke-width="1" xml:space="preserve">weak:feature:rustc-dep-of-std</text>
      <path fill="none" d="M-230.0045 -259.707 L-230.9869 -255.7114 L-233.725 -241.8711 L-233.7554 -241.7002 L-236.6042 -222.0541 L-236.6042 -222.0541 L-238.1296 -202.6214 L-238.1296 -202.6214 L-238.3522 -183.5696 L-238.3522 -183.5696 L-237.3127 -164.9778 L-237.3127 -164.9778 L-235.0559 -146.9224 L-235.0559 -146.9224 L-231.6313 -129.4763 L-231.6313 -129.4763 L-227.0924 -112.7089 L-227.0924 -112.7089 L-221.4965 -96.686 L-221.4965 -96.686 L-214.9046 -81.4695 L-214.9046 -81.4695 L-207.3813 -67.1173 L-207.3813 -67.1173 L-198.9941 -53.6829 L-198.9941 -53.6829 L-189.8138 -41.2153 L-189.8138 -41.2153 L-179.9134 -29.7594 L-179.9134 -29.7594 L-172.6846 -22.3716 L-170.5765 -20.4536" clip-path="url(#clipPath2)"/>
      <path d="M-170.5765 -20.4536 L-176.7765 -33.6994 L-178.0656 -27.2675 L-184.3475 -25.3782 Z" clip-path="url(#clipPath2)" stroke="none"/>
      <text x="-313.903" y="-196.4612" clip-path="url(#clipPath2)" font-family="sans-serif" stroke="none" stroke-width="1" xml:space="preserve">weak:optional</text>
      <path fill="none" d="M-261.6224 228.6113 L-262.1292 224.0701 L-263.1008 209.5398 L-263.1089 209.3665 L-263.3875 189.5168 L-263.3875 189.5168 L-262.3815 170.0503 L-262.3815 170.0503 L-260.1331 151.1303 L-260.1331 151.1303 L-256.6927 132.8301 L-256.6927 132.8301 L-252.1149 115.2195 L-252.1149 115.2195 L-246.4582 98.3643 L-246.4582 98.3643 L-239.7844 82.3266 L-239.7844 82.3266 L-232.1591 67.1641 L-232.1591 67.1641 L-223.6508 52.9303 L-223.6508 52.9303 L-214.3308 39.6741 L-214.3308 39.6741 L-204.2733 27.44 L-204.2733 27.44 L-193.5545 16.2674 L-193.5545 16.2674 L-182.2529 6.1912 L-182.2529 6.1912 L-176.1255 1.1938 L-175.7847 0.9565" clip-path="url(#clipPath2)"/>
      <path d="M-175.7847 0.9565 L-190.0777 4.0551 L-184.0936 6.7425 L-183.6488 13.2872 Z" clip-path="url(#clipPath2)" stroke="none"/>
      <text x="-260.7172" y="215.2406" clip-path="url(#clipPath2)" font-family="sans-serif" stroke="none" stroke-width="1" xml:space="preserve">weak:feature:rustc-dep-of-std</text>
      <path fill="none" d="M-251.563 228.5869 L-252.1124 223.6641 L-253.1156 208.9902 L-253.1156 208.9902 L-253.3893 189.7078 L-253.3893 189.7078 L-252.4178 170.9026 L-252.4178 170.9026 L-250.249 152.6488 L-250.249 152.6488 L-246.9347 135.017 L-246.9347 135.017 L-242.5309 118.0738 L-242.5309 118.0738 L-237.0973 101.8821 L-237.0973 101.8821 L-230.6971 86.5004 L-230.6971 86.5004 L-223.3967 71.9828 L-223.3967 71.9828 L-215.2654 58.3787 L-215.2654 58.3787 L-206.3752 45.7328 L-206.3752 45.7328 L-196.8002 34.0848 L-196.8002 34.0848 L-186.6169 23.4695 L-186.6169 23.4695 L-175.9029 13.9163 L-175.9029 13.9163 L-164.7375 5.4496 L-164.7375 5.4496 L-158.5804 1.2163 L-158.1088 0.9421" clip-path="url(#clipPath2)"/>
      <path d="M-158.1088 0.9421 L-172.6068 2.8654 L-166.8617 6.0316 L-166.9518 12.5908 Z" clip-path="url(#clipPath2)" stroke="none"/>
      <text x="-163.7355" y="20.4158" clip-path="url(#clipPath2)" font-family="sans-serif" stroke="none" stroke-width="1" xml:space="preserve">weak:optional</text>
    </g>
    <g stroke-linecap="butt" transform="matrix(1,0,0,1,403,342)" fill="rgb(191,4,4)" text-rendering="geometricPrecision" shape-rendering="geometricPrecision" stroke-dasharray="6,2" stroke="rgb(191,4,4)" stroke-miterlimit="1.45">
      <path fill="none" d="M370.5097 -72.0278 L447.0248 -85.644" clip-path="url(#clipPath2)"/>
      <path d="M454.9011 -87.0456 L442.2107 -89.8658 L446.0403 -85.4688 L443.9627 -80.0205 Z" clip-path="url(#clipPath2)" stroke="none"/>
    </g>
    <g text-rendering="geometricPrecision" stroke-miterlimit="1.45" shape-rendering="geometricPrecision" font-family="sans-serif" transform="matrix(1,0,0,1,403,342)" stroke-linecap="butt">
      <text x="289.5503" xml:space="preserve" y="-59.1603" clip-path="url(#clipPath2)" stroke="none">weak:test</text>
      <path fill="none" d="M454.8777 -78.9157 L410.5046 -71.0194" stroke-width="2" clip-path="url(#clipPath2)"/>
      <path d="M401.6438 -69.4426 L415.9205 -66.2698 L411.6122 -71.2165 L413.9495 -77.3458 Z" stroke-width="2" clip-path="url(#clipPath2)" stroke="none"/>
      <text x="456.9089" xml:space="preserve" y="-85.4404" clip-path="url(#clipPath2)" stroke="none">weak:feature:derive</text>
      <path fill="none" d="M454.8777 -82.9786 L402.1574 -73.5968" stroke-width="2" clip-path="url(#clipPath2)"/>
      <path d="M393.2966 -72.02 L407.5733 -68.8472 L403.265 -73.7939 L405.6023 -79.9232 Z" stroke-width="2" clip-path="url(#clipPath2)" stroke="none"/>
      <text x="456.9089" xml:space="preserve" y="-85.4404" clip-path="url(#clipPath2)" stroke="none">weak:optional</text>
      <path fill="none" stroke-dasharray="6,2" d="M466.343 -76.8932 L409.5064 -66.7789" clip-path="url(#clipPath2)"/>
      <path stroke-dasharray="6,2" d="M401.6301 -65.3773 L414.3205 -62.557 L410.4909 -66.9541 L412.5685 -72.4024 Z" clip-path="url(#clipPath2)" stroke="none"/>
      <text x="456.9089" xml:space="preserve" y="-85.4404" clip-path="url(#clipPath2)" stroke="none">weak:test</text>
    </g>
    <g stroke-linecap="butt" transform="matrix(1,0,0,1,403,342)" fill="rgb(191,4,4)" text-rendering="geometricPrecision" shape-rendering="geometricPrecision" stroke="rgb(191,4,4)" stroke-width="2" stroke-miterlimit="1.45">
      <path fill="none" d="M378.3046 -50.6331 L383.3784 -45.52 L393.3669 -33.0894 L393.3669 -33.0894 L402.439 -16.677 L402.4538 -16.6445 L409.4127 2.0499 L410.0596 4.2665 L414.3593 23.7532 L415.004 28.0079 L416.7377 47.8922 L416.8768 53.7925 L416.1208 73.7404 L415.425 80.723 L412.2489 100.4323 L410.5909 107.8388 L405.067 127.0232 L402.5323 134.1772 L394.7408 152.5575 L391.6168 158.8409 L391.6168 158.8409 M388.8438 163.6524 L381.6489 176.1364 L378.3934 181.0592 L366.3508 196.9768 L363.5422 200.2371 L349.5381 214.4534 L347.8114 215.9866 L331.9765 228.1177 L331.9467 228.1373 L315.5358 237.2121 L315.5358 237.2121 L305.227 241.32 L302.9716 241.8446" clip-path="url(#clipPath2)"/>
      <path d="M294.2057 243.8836 L308.629 246.3039 L304.0674 241.5898 L306.0803 235.3464 Z" clip-path="url(#clipPath2)" stroke="none"/>
      <path fill="none" d="M172.2737 -0.951 L173.57 -1.6942 L180.6972 -7.0931 L180.6972 -7.0931 L191.7831 -17.5269 L191.7831 -17.5269 L201.5065 -30.1674 L201.5065 -30.1674 L209.4549 -44.8715 L209.4549 -44.8715 L215.2513 -61.3642 L215.2513 -61.3642 L218.5901 -79.2473 L218.5901 -79.2473 L219.2716 -98.0221 L219.2716 -98.0221 L217.2281 -117.1241 L217.2281 -117.1241 L212.9922 -136.2801 L212.9922 -136.2801 L207.6479 -155.4736 L207.529 -155.8796 L201.6596 -174.9972 L201.4043 -175.7921 L195.0643 -194.7592 L194.7163 -195.761 L187.8818 -214.5548 L159.1635 -290.1067 L154.6035 -302.4814 L153.5966 -305.5086" clip-path="url(#clipPath2)" stroke="black"/>
      <path fill="black" d="M153.5966 -305.5086 L152.52 -290.9232 L156.7923 -295.9011 L163.195 -294.4739 Z" clip-path="url(#clipPath2)" stroke="none"/>
    </g>
    <g fill="rgb(255,204,0)" text-rendering="geometricPrecision" shape-rendering="geometricPrecision" transform="matrix(1,0,0,1,403,342)" stroke="rgb(255,204,0)">
      <rect x="-253.5782" width="62.7031" height="21.4062" y="-281.1016" clip-path="url(#clipPath2)" stroke="none"/>
      <rect x="-253.5782" y="-281.1016" clip-path="url(#clipPath2)" fill="yellow" width="1" height="21.4062" stroke="none"/>
      <rect x="-252.5782" y="-281.1016" clip-path="url(#clipPath2)" fill="yellow" width="60.7031" height="1" stroke="none"/>
      <rect x="-252.5782" y="-260.6953" clip-path="url(#clipPath2)" fill="rgb(178,142,0)" width="61.7031" height="1" stroke="none"/>
      <rect x="-191.8751" y="-281.1016" clip-path="url(#clipPath2)" fill="rgb(178,142,0)" width="1" height="20.4062" stroke="none"/>
    </g>
    <g text-rendering="geometricPrecision" stroke-miterlimit="1.45" shape-rendering="geometricPrecision" font-family="sans-serif" transform="matrix(1,0,0,1,403,342)" stroke-linecap="butt">
      <text x="-249.5782" xml:space="preserve" y="-266.2383" clip-path="url(#clipPath2)" stroke="none">libc 0.2.50</text>
    </g>
    <g fill="rgb(255,204,0)" text-rendering="geometricPrecision" shape-rendering="geometricPrecision" transform="matrix(1,0,0,1,403,342)" stroke="rgb(255,204,0)">
      <rect x="-286.7483" width="62.7031" height="21.4062" y="228.6137" clip-path="url(#clipPath2)" stroke="none"/>
      <rect x="-286.7483" y="228.6137" clip-path="url(#clipPath2)" fill="yellow" width="1" height="21.4062" stroke="none"/>
      <rect x="-285.7483" y="228.6137" clip-path="url(#clipPath2)" fill="yellow" width="60.7031" height="1" stroke="none"/>
      <rect x="-285.7483" y="249.0199" clip-path="url(#clipPath2)" fill="rgb(178,142,0)" width="61.7031" height="1" stroke="none"/>
      <rect x="-225.0451" y="228.6137" clip-path="url(#clipPath2)" fill="rgb(178,142,0)" width="1" height="20.4062" stroke="none"/>
    </g>
    <g text-rendering="geometricPrecision" stroke-miterlimit="1.45" shape-rendering="geometricPrecision" font-family="sans-serif" transform="matrix(1,0,0,1,403,342)" stroke-linecap="butt">
      <text x="-282.7483" xml:space="preserve" y="243.477" clip-path="url(#clipPath2)" stroke="none">libc 0.2.62</text>
    </g>
    <g fill="rgb(255,204,0)" text-rendering="geometricPrecision" shape-rendering="geometricPrecision" transform="matrix(1,0,0,1,403,342)" stroke="rgb(255,204,0)">
      <rect x="93.658" width="112.0508" height="21.4062" y="-0.9624" clip-path="url(#clipPath2)" stroke="none"/>
      <rect x="93.658" y="-0.9624" clip-path="url(#clipPath2)" fill="yellow" width="1" height="21.4062" stroke="none"/>
      <rect x="94.658" y="-0.9624" clip-path="url(#clipPath2)" fill="yellow" width="110.0508" height="1" stroke="none"/>
      <rect x="94.658" y="19.4439" clip-path="url(#clipPath2)" fill="rgb(178,142,0)" width="111.0508" height="1" stroke="none"/>
      <rect x="204.7088" y="-0.9624" clip-path="url(#clipPath2)" fill="rgb(178,142,0)" width="1" height="20.4062" stroke="none"/>
    </g>
    <g text-rendering="geometricPrecision" stroke-miterlimit="1.45" shape-rendering="geometricPrecision" font-family="sans-serif" transform="matrix(1,0,0,1,403,342)" stroke-linecap="butt">
      <text x="97.658" xml:space="preserve" y="13.9009" clip-path="url(#clipPath2)" stroke="none">proc-macro2 0.4.27</text>
    </g>
    <g fill="rgb(255,204,0)" text-rendering="geometricPrecision" shape-rendering="geometricPrecision" transform="matrix(1,0,0,1,403,342)" stroke="rgb(255,204,0)">
      <rect x="59.2993" width="74.7266" height="21.4062" y="325.6841" clip-path="url(#clipPath2)" stroke="none"/>
      <rect x="59.2993" y="325.6841" clip-path="url(#clipPath2)" fill="yellow" width="1" height="21.4062" stroke="none"/>
      <rect x="60.2993" y="325.6841" clip-path="url(#clipPath2)" fill="yellow" width="72.7266" height="1" stroke="none"/>
      <rect x="60.2993" y="346.0903" clip-path="url(#clipPath2)" fill="rgb(178,142,0)" width="73.7266" height="1" stroke="none"/>
      <rect x="133.0258" y="325.6841" clip-path="url(#clipPath2)" fill="rgb(178,142,0)" width="1" height="20.4062" stroke="none"/>
    </g>
    <g text-rendering="geometricPrecision" stroke-miterlimit="1.45" shape-rendering="geometricPrecision" font-family="sans-serif" transform="matrix(1,0,0,1,403,342)" stroke-linecap="butt">
      <text x="63.2993" xml:space="preserve" y="340.5474" clip-path="url(#clipPath2)" stroke="none">quote 0.6.11</text>
    </g>
    <g fill="rgb(255,204,0)" text-rendering="geometricPrecision" shape-rendering="geometricPrecision" transform="matrix(1,0,0,1,403,342)" stroke="rgb(255,204,0)">
      <rect x="-236.0457" width="172.7246" height="21.4062" y="-20.4439" clip-path="url(#clipPath2)" stroke="none"/>
      <rect x="-236.0457" y="-20.4439" clip-path="url(#clipPath2)" fill="yellow" width="1" height="21.4062" stroke="none"/>
      <rect x="-235.0457" y="-20.4439" clip-path="url(#clipPath2)" fill="yellow" width="170.7246" height="1" stroke="none"/>
      <rect x="-235.0457" y="-0.0376" clip-path="url(#clipPath2)" fill="rgb(178,142,0)" width="171.7246" height="1" stroke="none"/>
      <rect x="-64.3211" y="-20.4439" clip-path="url(#clipPath2)" fill="rgb(178,142,0)" width="1" height="20.4062" stroke="none"/>
    </g>
    <g text-rendering="geometricPrecision" stroke-miterlimit="1.45" shape-rendering="geometricPrecision" font-family="sans-serif" transform="matrix(1,0,0,1,403,342)" stroke-linecap="butt">
      <text x="-232.0457" xml:space="preserve" y="-5.5806" clip-path="url(#clipPath2)" stroke="none">rustc-std-workspace-core 1.0.0</text>
    </g>
    <g fill="rgb(255,204,0)" text-rendering="geometricPrecision" shape-rendering="geometricPrecision" transform="matrix(1,0,0,1,403,342)" stroke="rgb(255,204,0)">
      <rect x="454.9089" width="74.7148" height="21.4062" y="-98.3037" clip-path="url(#clipPath2)" stroke="none"/>
      <rect x="454.9089" y="-98.3037" clip-path="url(#clipPath2)" fill="yellow" width="1" height="21.4062" stroke="none"/>
      <rect x="455.9089" y="-98.3037" clip-path="url(#clipPath2)" fill="yellow" width="72.7148" height="1" stroke="none"/>
      <rect x="455.9089" y="-77.8975" clip-path="url(#clipPath2)" fill="rgb(178,142,0)" width="73.7148" height="1" stroke="none"/>
      <rect x="528.6237" y="-98.3037" clip-path="url(#clipPath2)" fill="rgb(178,142,0)" width="1" height="20.4062" stroke="none"/>
    </g>
    <g text-rendering="geometricPrecision" stroke-miterlimit="1.45" shape-rendering="geometricPrecision" font-family="sans-serif" transform="matrix(1,0,0,1,403,342)" stroke-linecap="butt">
      <text x="458.9089" xml:space="preserve" y="-83.4404" clip-path="url(#clipPath2)" stroke="none">serde 1.0.89</text>
    </g>
    <g fill="rgb(255,204,0)" text-rendering="geometricPrecision" shape-rendering="geometricPrecision" transform="matrix(1,0,0,1,403,342)" stroke="rgb(255,204,0)">
      <rect x="287.5503" width="114.0723" height="21.4062" y="-72.0235" clip-path="url(#clipPath2)" stroke="none"/>
      <rect x="287.5503" y="-72.0235" clip-path="url(#clipPath2)" fill="yellow" width="1" height="21.4062" stroke="none"/>
      <rect x="288.5503" y="-72.0235" clip-path="url(#clipPath2)" fill="yellow" width="112.0723" height="1" stroke="none"/>
      <rect x="288.5503" y="-51.6173" clip-path="url(#clipPath2)" fill="rgb(178,142,0)" width="113.0723" height="1" stroke="none"/>
      <rect x="400.6226" y="-72.0235" clip-path="url(#clipPath2)" fill="rgb(178,142,0)" width="1" height="20.4062" stroke="none"/>
    </g>
    <g text-rendering="geometricPrecision" stroke-miterlimit="1.45" shape-rendering="geometricPrecision" font-family="sans-serif" transform="matrix(1,0,0,1,403,342)" stroke-linecap="butt">
      <text x="291.5503" xml:space="preserve" y="-57.1603" clip-path="url(#clipPath2)" stroke="none">serde_derive 1.0.89</text>
    </g>
    <g fill="rgb(255,204,0)" text-rendering="geometricPrecision" shape-rendering="geometricPrecision" transform="matrix(1,0,0,1,403,342)" stroke="rgb(255,204,0)">
      <rect x="224.1894" width="70.0449" height="21.4062" y="224.476" clip-path="url(#clipPath2)" stroke="none"/>
      <rect x="224.1894" y="224.476" clip-path="url(#clipPath2)" fill="yellow" width="1" height="21.4062" stroke="none"/>
      <rect x="225.1894" y="224.476" clip-path="url(#clipPath2)" fill="yellow" width="68.0449" height="1" stroke="none"/>
      <rect x="225.1894" y="244.8823" clip-path="url(#clipPath2)" fill="rgb(178,142,0)" width="69.0449" height="1" stroke="none"/>
      <rect x="293.2343" y="224.476" clip-path="url(#clipPath2)" fill="rgb(178,142,0)" width="1" height="20.4062" stroke="none"/>
    </g>
    <g text-rendering="geometricPrecision" stroke-miterlimit="1.45" shape-rendering="geometricPrecision" font-family="sans-serif" transform="matrix(1,0,0,1,403,342)" stroke-linecap="butt">
      <text x="228.1894" xml:space="preserve" y="239.3393" clip-path="url(#clipPath2)" stroke="none">syn 0.15.29</text>
    </g>
    <g fill="rgb(255,204,0)" text-rendering="geometricPrecision" shape-rendering="geometricPrecision" transform="matrix(1,0,0,1,403,342)" stroke="rgb(255,204,0)">
      <rect x="100.3399" width="99.3945" height="21.4062" y="-326.9133" clip-path="url(#clipPath2)" stroke="none"/>
      <rect x="100.3399" y="-326.9133" clip-path="url(#clipPath2)" fill="yellow" width="1" height="21.4062" stroke="none"/>
      <rect x="101.3399" y="-326.9133" clip-path="url(#clipPath2)" fill="yellow" width="97.3945" height="1" stroke="none"/>
      <rect x="101.3399" y="-306.507" clip-path="url(#clipPath2)" fill="rgb(178,142,0)" width="98.3945" height="1" stroke="none"/>
      <rect x="198.7344" y="-326.9133" clip-path="url(#clipPath2)" fill="rgb(178,142,0)" width="1" height="20.4062" stroke="none"/>
    </g>
    <g text-rendering="geometricPrecision" stroke-miterlimit="1.45" shape-rendering="geometricPrecision" font-family="sans-serif" transform="matrix(1,0,0,1,403,342)" stroke-linecap="butt">
      <text x="104.3399" xml:space="preserve" y="-312.05" clip-path="url(#clipPath2)" stroke="none">unicode-xid 0.1.0</text>
    </g>
  </g>
</svg>
