<?xml version="1.0" encoding="UTF-8"?><svg xmlns="http://www.w3.org/2000/svg" xmlns:xlink="http://www.w3.org/1999/xlink" fill-opacity="1" color-rendering="auto" color-interpolation="auto" text-rendering="auto" stroke="black" stroke-linecap="square" width="1384" stroke-miterlimit="10" shape-rendering="auto" stroke-opacity="1" fill="black" stroke-dasharray="none" font-weight="normal" stroke-width="1" height="1238" font-family="'Dialog'" font-style="normal" stroke-linejoin="miter" font-size="12px" stroke-dashoffset="0" image-rendering="auto">
  <!--Generated by ySVG 2.5-->
  <defs id="genericDefs"/>
  <g>
    <defs id="defs1">
      <clipPath clipPathUnits="userSpaceOnUse" id="clipPath1">
        <path d="M0 0 L1384 0 L1384 1238 L0 1238 L0 0 Z"/>
      </clipPath>
      <clipPath clipPathUnits="userSpaceOnUse" id="clipPath2">
        <path d="M-452 -875 L932 -875 L932 363 L-452 363 L-452 -875 Z"/>
      </clipPath>
    </defs>
    <g fill="white" text-rendering="geometricPrecision" shape-rendering="geometricPrecision" transform="translate(452,875)" stroke="white">
      <rect x="-452" width="1384" height="1238" y="-875" clip-path="url(#clipPath2)" stroke="none"/>
    </g>
    <g text-rendering="geometricPrecision" stroke-miterlimit="1.45" stroke-dasharray="6,2" shape-rendering="geometricPrecision" transform="matrix(1,0,0,1,452,875)" stroke-linecap="butt">
      <path fill="none" d="M594.9029 256.8891 L468.2017 202.1774" clip-path="url(#clipPath2)"/>
      <path d="M460.8571 199.0059 L469.8917 208.3534 L469.1197 202.5738 L473.8561 199.1728 Z" clip-path="url(#clipPath2)" stroke="none"/>
      <text x="552.0408" y="232.1103" clip-path="url(#clipPath2)" font-family="sans-serif" stroke-dasharray="none" stroke="none" xml:space="preserve">weak:test</text>
      <path fill="none" d="M300.1691 129.6181 L403.9489 174.4319" clip-path="url(#clipPath2)"/>
      <path d="M411.2934 177.6034 L402.2588 168.2559 L403.0308 174.0355 L398.2945 177.4365 Z" clip-path="url(#clipPath2)" stroke="none"/>
      <text x="379.904" y="157.7787" clip-path="url(#clipPath2)" font-family="sans-serif" stroke-dasharray="none" stroke="none" xml:space="preserve">weak:test</text>
      <path fill="none" stroke-dasharray="none" d="M-79.0834 -680.843 L-78.5091 -684.4718 L-76.1672 -697.9431 L-73.2593 -714.1362 L-69.454 -733.7689 L-66.0722 -750.0163 L-61.729 -769.537 L-57.8684 -785.8315 L-52.9926 -805.2261 L-48.6483 -821.5598 L-45.0625 -834.7504 L-44.0471 -838.2769" stroke-width="2" clip-path="url(#clipPath2)"/>
      <path stroke-dasharray="none" d="M-44.0471 -838.2769 L-53.188 -826.8604 L-46.8487 -828.5472 L-42.3772 -823.7475 Z" stroke-width="2" clip-path="url(#clipPath2)" stroke="none"/>
      <path fill="none" stroke-dasharray="none" d="M312.3421 -111.7889 L408.8132 -146.3164" stroke-width="2" clip-path="url(#clipPath2)"/>
      <path stroke-dasharray="none" d="M417.2868 -149.3491 L402.6809 -150.096 L407.754 -145.9373 L406.4719 -139.504 Z" stroke-width="2" clip-path="url(#clipPath2)" stroke="none"/>
      <text x="392.9881" y="-126.3576" clip-path="url(#clipPath2)" font-family="sans-serif" stroke-dasharray="none" stroke="none" xml:space="preserve">feature:default</text>
      <path fill="none" d="M313.5033 -106.8939 L424.604 -146.6574" clip-path="url(#clipPath2)"/>
      <path d="M432.1361 -149.3532 L419.1531 -150.0171 L423.6625 -146.3204 L422.5228 -140.6019 Z" clip-path="url(#clipPath2)" stroke="none"/>
      <text x="392.9881" y="-121.047" clip-path="url(#clipPath2)" font-family="sans-serif" stroke-dasharray="none" stroke="none" xml:space="preserve">weak:feature:std</text>
      <path fill="none" d="M297.5041 -111.7889 L408.3518 -151.4618" clip-path="url(#clipPath2)"/>
      <path d="M415.8839 -154.1576 L402.9008 -154.8215 L407.4102 -151.1248 L406.2706 -145.4064 Z" clip-path="url(#clipPath2)" stroke="none"/>
      <text x="392.9881" y="-131.6682" clip-path="url(#clipPath2)" font-family="sans-serif" stroke-dasharray="none" stroke="none" xml:space="preserve">weak:optional</text>
      <path fill="none" stroke-dasharray="none" d="M-123.5524 -254.3202 L-116.6928 -249.4897 L-102.7627 -239.0392 L-102.7627 -239.0392 L-89.054 -227.4744 L-89.054 -227.4744 L-76.2236 -215.2826 L-76.2236 -215.2826 L-64.2972 -202.5091 L-64.2972 -202.5091 L-53.2988 -189.2004 L-53.2988 -189.2004 L-43.25 -175.4039 L-43.25 -175.4039 L-34.1706 -161.1679 L-34.1706 -161.1679 L-26.078 -146.5413 L-26.078 -146.5413 L-21.3222 -136.9355 L-20.3639 -134.7346" stroke-width="2" clip-path="url(#clipPath2)"/>
      <path stroke-dasharray="none" d="M-20.3639 -134.7346 L-20.5959 -149.3578 L-24.4059 -144.0179 L-30.9106 -144.8667 Z" stroke-width="2" clip-path="url(#clipPath2)" stroke="none"/>
      <path fill="none" stroke-dasharray="none" d="M174.8693 -211.9921 L172.6794 -212.1887 L160.6095 -212.5156 L160.6095 -212.5156 L141.1375 -212.029 L141.1375 -212.029 L122.3067 -210.0819 L122.3067 -210.0819 L104.2433 -206.7484 L104.2433 -206.7484 L87.0657 -202.1136 L87.0657 -202.1136 L70.8854 -196.2662 L70.8854 -196.2662 L55.7882 -189.2496 L55.7882 -189.2496 L41.8474 -181.1094 L41.8474 -181.1094 L29.1473 -171.9536 L29.1473 -171.9536 L17.7654 -161.9125 L17.7654 -161.9125 L7.7627 -151.1263 L7.7627 -151.1263 L1.9677 -143.8686 L0.8229 -142.1724" stroke-width="2" clip-path="url(#clipPath2)"/>
      <path stroke-dasharray="none" d="M-4.212 -134.7126 L8.0028 -142.7555 L1.4523 -143.1049 L-1.322 -149.0492 Z" stroke-width="2" clip-path="url(#clipPath2)" stroke="none"/>
    </g>
    <g stroke-linecap="butt" transform="matrix(1,0,0,1,452,875)" fill="rgb(0,158,255)" text-rendering="geometricPrecision" shape-rendering="geometricPrecision" stroke="rgb(0,158,255)" stroke-width="2" stroke-miterlimit="1.45">
      <path fill="none" d="M-4.9479 -289.3118 L-5.9212 -283.6757 L-8.3157 -268.141 L-8.6301 -265.9513 L-11.1899 -246.1178 L-11.4358 -243.9724 L-13.4291 -224.074 L-13.6096 -221.9706 L-15.0335 -202.0234 L-15.1512 -199.9595 L-16.0035 -179.9797 L-16.0609 -177.9527 L-16.3398 -157.9567 L-16.339 -155.9638 L-16.3017 -144.8236 L-16.2684 -143.6833" clip-path="url(#clipPath2)"/>
      <path d="M-16.006 -134.6872 L-10.777 -148.3454 L-16.3012 -144.8079 L-22.0222 -148.0175 Z" clip-path="url(#clipPath2)" stroke="none"/>
      <path fill="none" d="M106.5679 -258.0132 L101.3556 -255.6036 L87.648 -248.4564 L87.648 -248.4564 L71.2407 -238.4702 L71.2407 -238.4702 L56.0285 -227.5075 L56.0285 -227.5075 L42.0661 -215.6618 L42.0661 -215.6618 L29.4017 -203.0293 L29.4017 -203.0293 L18.0772 -189.7088 L18.0772 -189.7088 L8.1279 -175.8014 L8.1279 -175.8014 L-0.4176 -161.4097 L-0.4176 -161.4097 L-7.5375 -146.6376 L-7.5375 -146.6376 L-11.4695 -136.9343 L-12.2003 -134.699" clip-path="url(#clipPath2)" stroke="black"/>
      <path fill="black" d="M-12.2003 -134.699 L-2.6587 -145.7827 L-9.054 -144.3227 L-13.3517 -149.2786 Z" clip-path="url(#clipPath2)" stroke="none"/>
      <path fill="none" d="M-290.1548 118.9969 L-292.3872 120.1008 L-301.7628 126.7869 L-301.7628 126.7869 L-308.4841 132.7028 L-314.3615 139.2857 L-314.3615 139.2857 L-319.2965 146.4649 L-323.191 154.1697 L-323.191 154.1697 L-325.9774 162.2889 L-327.5882 170.7116 L-327.5882 170.7116 L-327.9959 179.289 L-327.173 187.8727 L-327.173 187.8727 L-325.1438 196.2899 L-321.9326 204.3679 L-321.9326 204.3679 L-317.6203 211.9359 L-312.2874 218.823 L-312.2874 218.823 L-306.0607 224.8889 L-299.0673 229.9936 L-299.0673 229.9936 L-291.4571 234.0484 L-283.3802 236.9644 L-283.3802 236.9644 L-274.9845 238.7101 L-266.4177 239.2537 L-266.4177 239.2537 L-257.8082 238.6151 L-249.2846 236.8139 L-249.2846 236.8139 L-238.5698 233.1714 L-236.3356 231.9115" clip-path="url(#clipPath2)"/>
      <path d="M-228.4963 227.4906 L-243.0184 229.2223 L-237.3156 232.4641 L-237.4923 239.0215 Z" clip-path="url(#clipPath2)" stroke="none"/>
      <path fill="none" d="M-335.0103 -6.0664 L-337.3606 -4.539 L-345.5092 3.1558 L-345.5092 3.1558 L-356.1398 17.4124 L-356.1398 17.4124 L-364.3546 34.9122 L-364.6485 35.7299 L-369.7161 54.9975 L-370.1845 57.738 L-371.9289 77.5948 L-371.955 81.9839 L-370.5238 101.872 L-369.6971 107.3569 L-365.2432 126.796 L-363.4203 132.6712 L-356.1004 151.2232 L-353.4204 156.7603 L-343.4009 174.0034 L-340.2598 178.5751 L-327.7253 194.0823 L-327.7253 194.0823 M-324.7094 197.2711 L-324.7094 197.2711 L-309.8763 210.5872 L-307.6627 212.2694 L-290.8042 222.8859 L-290.0311 223.2826 L-272.0803 230.4585 L-272.0803 230.4585 L-254.5789 233.6153 L-254.5789 233.6153 L-238.5748 232.8233 L-238.5748 232.8233 L-238.5748 232.8233 M-232.7299 231.7334 L-230.7609 231.3663 L-230.5038 231.2478" clip-path="url(#clipPath2)" stroke="rgb(191,4,4)"/>
      <path fill="rgb(191,4,4)" d="M-222.3291 227.4828 L-236.9442 228.0212 L-231.5256 231.7185 L-232.238 238.2395 Z" clip-path="url(#clipPath2)" stroke="none"/>
      <path fill="none" d="M-112.6289 83.4042 L-114.1791 84.9194 L-122.487 93.6042 L-122.487 93.6042 L-135.7263 108.2402 L-135.7263 108.2402 L-148.4044 123.4609 L-148.4044 123.4609 L-160.5027 139.249 L-160.5027 139.249 L-171.9947 155.5744 L-172.0117 155.5997 L-182.8541 172.401 L-182.923 172.5127 L-193.0828 189.7353 L-193.2004 189.9441 L-200.0013 202.3552 L-201.8945 206.0533" clip-path="url(#clipPath2)" stroke="black"/>
      <path fill="black" d="M-201.8945 206.0533 L-190.7355 196.5998 L-197.2805 197.0407 L-200.7496 191.4732 Z" clip-path="url(#clipPath2)" stroke="none"/>
    </g>
    <g stroke-linecap="butt" transform="matrix(1,0,0,1,452,875)" fill="rgb(191,4,4)" text-rendering="geometricPrecision" shape-rendering="geometricPrecision" stroke-dasharray="6,2" stroke="rgb(191,4,4)" stroke-miterlimit="1.45">
      <path fill="none" d="M-15.6666 -134.694 L-14.498 -136.8866 L-9.1091 -145.3321 L-9.1091 -145.3321 L-9.1091 -145.3321 M-3.4852 -152.7952 L0.0885 -157.5377 L0.0885 -157.5377 L10.7771 -169.0654 L10.7771 -169.0654 L22.9021 -179.7636 L22.9021 -179.7636 L36.3897 -189.4888 L36.3897 -189.4888 L51.1482 -198.108 L51.1482 -198.108 L67.0683 -205.509 L67.0683 -205.509 L84.0545 -211.6495 L84.0545 -211.6495 L102.0252 -216.4993 L102.0252 -216.4993 L120.878 -219.9793 L120.878 -219.9793 L140.4899 -222.008 L140.4946 -222.0083 L160.4731 -222.5183 L161.0041 -222.5113 L172.9066 -222.2085 L174.81 -222.0376" clip-path="url(#clipPath2)"/>
      <path d="M174.81 -222.0376 L163.305 -228.0903 L165.846 -222.8421 L162.4111 -218.1303 Z" clip-path="url(#clipPath2)" stroke="none"/>
    </g>
    <g text-rendering="geometricPrecision" stroke-miterlimit="1.45" shape-rendering="geometricPrecision" font-family="sans-serif" transform="matrix(1,0,0,1,452,875)" stroke-linecap="butt">
      <text x="-69.72" xml:space="preserve" y="-121.8506" clip-path="url(#clipPath2)" stroke="none">weak:test</text>
    </g>
    <g stroke-linecap="butt" transform="matrix(1,0,0,1,452,875)" fill="rgb(0,158,255)" text-rendering="geometricPrecision" shape-rendering="geometricPrecision" stroke="rgb(0,158,255)" stroke-width="2" stroke-miterlimit="1.45">
      <path fill="none" d="M-1.8718 -310.7063 L-1.6139 -312.9488 L1.5745 -322.5436 L1.5745 -322.5436 L5.0554 -329.75 L9.637 -336.6643 L9.637 -336.6643 L15.3217 -343.1895 L22.1115 -349.2284 L22.1115 -349.2284 L29.8816 -354.6374 L38.5067 -359.2727 L39.1945 -359.5955 L48.4167 -363.358 L57.978 -366.1485 L60.7472 -366.8043 L80.4683 -369.5483 L85.1478 -369.7541 L105.0499 -368.8676 L111.0406 -368.0661 L130.4953 -363.7518 L136.9514 -361.7301 L155.4015 -354.1959 L161.4273 -351.1205 L178.341 -340.5836 L183.1803 -336.9625 L198.014 -323.6645 L201.2119 -320.2419 L213.3751 -304.4777 L214.8937 -302.071 L219.7686 -293.3853 L223.721 -284.2429 L223.9862 -283.5309 L226.9013 -274.1831 L228.6641 -264.8813 L228.6641 -264.8813 L229.2859 -255.8158 L228.7781 -247.1766 L228.7781 -247.1766 L227.2102 -239.0317 L224.6518 -231.4486 L224.6518 -231.4486 L221.0567 -223.4503 L220.5154 -222.754" clip-path="url(#clipPath2)"/>
      <path d="M220.5154 -222.754 L233.2426 -229.9587 L226.7303 -230.7471 L224.3614 -236.8642 Z" clip-path="url(#clipPath2)" stroke="none"/>
      <path fill="none" d="M133.9543 -279.4507 L137.4659 -285.3167 L147.611 -298.6658 L149.4976 -300.7939 L156.5226 -307.8374 L164.3305 -314.0015 L165.6526 -314.9245 L174.1778 -319.9966 L183.3544 -323.7643 L183.5967 -323.8437 L193.1148 -326.1059 L193.1148 -326.1059 M200.1496 -326.5153 L202.6642 -326.6617 L202.6642 -326.6617 L211.9515 -325.4933 L220.6831 -322.583 L220.6831 -322.583 L228.593 -318.0452 L235.4154 -311.9943 L235.4154 -311.9943 L240.957 -304.6458 L245.0247 -296.2153 L245.0247 -296.2153 L247.5417 -286.9868 L248.4314 -277.2442 L248.4333 -276.9892 L247.7872 -267.0903 L245.697 -257.3931 L245.2436 -255.8457 L241.8897 -246.4802 L237.4529 -237.5766 L236.037 -235.1101 L229.4876 -224.5984 L227.9166 -222.7594" clip-path="url(#clipPath2)" stroke="black"/>
      <path fill="black" d="M227.9166 -222.7594 L240.9621 -229.3702 L234.4931 -230.4577 L232.4084 -236.6775 Z" clip-path="url(#clipPath2)" stroke="none"/>
    </g>
    <g text-rendering="geometricPrecision" stroke-miterlimit="1.45" shape-rendering="geometricPrecision" font-family="sans-serif" transform="matrix(1,0,0,1,452,875)" stroke-linecap="butt">
      <text x="160.2693" xml:space="preserve" y="-295.5697" clip-path="url(#clipPath2)" stroke="none">feature:default</text>
      <path fill="none" stroke-dasharray="6,2" d="M157.3008 -279.4466 L163.4125 -286.3411 L169.6663 -292.6778 L176.2041 -297.899 L176.2041 -297.899 L182.8522 -301.9338 L189.4371 -304.711 L189.4371 -304.711 L195.8113 -306.277 L201.8275 -306.678 L201.8275 -306.678 L207.3998 -306.0076 L212.4425 -304.3594 L212.4425 -304.3594 L212.4425 -304.3594 M216.9131 -301.7947 L216.9131 -301.7947 L220.769 -298.3748 L220.769 -298.3748 L223.9385 -294.1205 L226.3501 -289.0525 L226.3501 -289.0525 L227.8877 -283.2223 L228.4351 -276.6815 L228.4351 -276.6815 L227.9016 -269.5548 L227.9016 -269.5548 M226.7384 -264.3791 L226.1964 -261.9674 L226.1964 -261.9674 L223.3201 -254.0866 L219.2733 -246.0802 L219.2733 -246.0802 L210.7342 -233.4373 L206.8271 -228.8638" clip-path="url(#clipPath2)"/>
      <path stroke-dasharray="6,2" d="M201.6309 -222.7811 L213.2269 -228.6574 L207.4767 -229.6241 L205.6236 -235.1528 Z" clip-path="url(#clipPath2)" stroke="none"/>
      <text x="223.4618" xml:space="preserve" y="-230.7903" clip-path="url(#clipPath2)" stroke="none">weak:feature:printing</text>
      <path fill="none" stroke-dasharray="6,2" d="M145.583 -279.4069 L147.3309 -282.3267 L155.7124 -292.7297 L156.1942 -293.2732 L163.1118 -300.2417 L170.5978 -306.181 L170.5978 -306.181 L178.4475 -310.9125 L186.4563 -314.2575 L186.4563 -314.2575 L194.4479 -316.1865 L202.2458 -316.6699 L202.2458 -316.6699 L202.2458 -316.6699 M209.1119 -315.8203 L209.6757 -315.7505 L216.5628 -313.4712 L216.5628 -313.4712 L222.753 -309.92 L228.0922 -305.1846 L228.0922 -305.1846 L232.4478 -299.3832 L235.6874 -292.6339 L235.6874 -292.6339 L237.7148 -285.0886 L238.4337 -276.899 L238.4337 -276.899 L237.816 -268.2418 L235.8334 -259.2934 L235.8334 -259.2934 L232.59 -250.3047 L228.1899 -241.5267 L227.8284 -240.8968 L227.8284 -240.8968 M224.8183 -236.0406 L221.4028 -230.5301 L219.9557 -228.8361" clip-path="url(#clipPath2)"/>
      <path stroke-dasharray="6,2" d="M214.7594 -222.7535 L226.3555 -228.6298 L220.6052 -229.5965 L218.7521 -235.1251 Z" clip-path="url(#clipPath2)" stroke="none"/>
      <text x="187.0639" xml:space="preserve" y="-302.0208" clip-path="url(#clipPath2)" stroke="none">weak:feature:proc-macro</text>
      <path fill="none" stroke-dasharray="6,2" d="M122.3034 -279.4574 L127.7398 -288.5386 L139.5097 -304.6018 L142.801 -308.3147 L149.826 -315.3581 L157.6339 -321.5222 L161.1367 -323.9677 L169.6619 -329.0398 L178.8385 -332.8074 L182.1511 -333.8935 L182.1511 -333.8935 M190.5478 -335.8639 L191.7767 -336.1523 L201.6487 -336.6981 L204.5166 -336.6089 L214.2951 -335.3551 L223.6402 -332.2151 L225.9665 -331.1746 L234.5078 -326.2745 L241.8747 -319.7406 L243.6024 -317.8674 L249.5574 -310.0106 L253.8627 -301.1418 L254.8613 -298.4518 L257.4907 -288.9208 L258.4178 -279.0773 L258.4442 -275.5913 L257.7982 -265.6924 L255.7079 -255.9952 L254.5065 -251.8956 L248.0911 -236.0222 L244.4879 -229.7453" clip-path="url(#clipPath2)"/>
      <path stroke-dasharray="6,2" d="M240.5052 -222.8071 L250.8156 -230.7252 L244.9857 -230.6125 L242.1429 -235.7036 Z" clip-path="url(#clipPath2)" stroke="none"/>
      <text x="152.8703" xml:space="preserve" y="-302.2981" clip-path="url(#clipPath2)" stroke="none">weak:optional</text>
      <path fill="none" stroke-dasharray="6,2" d="M-212.0544 227.4896 L-215.6304 230.6109 L-227.9168 238.6443 L-228.23 238.8209 L-237.1696 243.1812 L-246.5677 246.4377 L-246.7275 246.4826 L-256.4479 248.5277 L-266.3546 249.2535 L-266.4226 249.254 L-276.3283 248.6243 L-286.046 246.6027 L-286.1636 246.5695 L-295.4996 243.2035 L-304.2602 238.5407 L-304.4858 238.3993 L-312.5053 232.5508 L-319.6178 225.6276 L-319.8723 225.3424 L-325.9498 217.4939 L-330.8642 208.8694 L-331.0298 208.5247 L-334.6925 199.2997 L-337.0146 189.6496 L-337.0587 189.387 L-337.325 186.5957 M-338.0014 179.5076 L-338.0014 179.5076 L-337.5259 169.5948 L-337.5114 169.4735 L-335.648 159.7242 L-332.4271 150.3356 L-332.4005 150.2729 L-327.9276 141.4038 L-322.3079 133.2131 L-322.2051 133.0828 L-315.1691 124.5723 L-314.326 123.9135" clip-path="url(#clipPath2)"/>
      <path stroke-dasharray="6,2" d="M-308.0225 118.9874 L-320.5565 122.4368 L-315.1139 124.5292 L-314.3989 130.3162 Z" clip-path="url(#clipPath2)" stroke="none"/>
      <text x="-331.5789" xml:space="preserve" y="193.6784" clip-path="url(#clipPath2)" stroke="none">weak:test</text>
    </g>
    <g stroke-linecap="butt" transform="matrix(1,0,0,1,452,875)" fill="rgb(191,4,4)" text-rendering="geometricPrecision" shape-rendering="geometricPrecision" stroke="rgb(191,4,4)" stroke-width="2" stroke-miterlimit="1.45">
      <path fill="none" d="M-347.8863 -6.7117 L-351.2128 -5.0464 L-361.4211 2.7534 L-361.4211 2.7534 L-367.8008 9.2927 L-373.1758 16.6415 L-373.1758 16.6415 L-377.4497 24.6646 L-380.5261 33.2271 L-380.5261 33.2271 L-382.353 42.1523 L-382.8784 51.2634 L-382.8784 51.2634 L-382.1049 60.3651 L-380.035 69.262 L-380.035 69.262 L-376.7265 77.7674 L-372.2372 85.6948 L-372.2372 85.6948 L-372.2372 85.6948 M-368.5727 90.4332 L-366.6711 92.892 L-360.132 99.2069 L-360.132 99.2069 L-352.7534 104.5408 L-344.6686 108.795 L-344.6686 108.795 L-336.0212 111.9331 L-326.9548 113.9185 L-326.9548 113.9185 L-315.754 115.1663 L-313.8292 115.0051" clip-path="url(#clipPath2)"/>
      <path d="M-313.8292 115.0051 L-327.7516 110.5266 L-323.9189 115.8502 L-326.8126 121.7373 Z" clip-path="url(#clipPath2)" stroke="none"/>
      <path fill="none" d="M-121.3619 83.401 L-127.6758 85.8428 L-142.582 91.1319 L-142.582 91.1319 L-159.9472 96.4188 L-159.9472 96.4188 L-177.6585 100.8833 L-177.6585 100.8833 L-195.6854 104.5117 L-195.6854 104.5117 L-213.9967 107.291 L-213.9967 107.291 L-232.5609 109.2098 L-232.5609 109.2098 L-243.839 110.015 L-245.7757 110.0775" clip-path="url(#clipPath2)" stroke="black"/>
      <path fill="black" d="M-245.7757 110.0775 L-232.1014 115.2644 L-235.656 109.7511 L-232.4641 104.0202 Z" clip-path="url(#clipPath2)" stroke="none"/>
    </g>
    <g text-rendering="geometricPrecision" stroke-miterlimit="1.45" shape-rendering="geometricPrecision" font-family="sans-serif" transform="matrix(1,0,0,1,452,875)" stroke-linecap="butt">
      <text x="-128.0298" xml:space="preserve" y="74.8646" clip-path="url(#clipPath2)" stroke="none">feature:default</text>
      <path fill="none" stroke-dasharray="6,2" d="M-130.0512 78.184 L-133.3718 79.4682 L-145.099 83.5382 L-145.099 83.5382 L-162.0912 88.7115 L-162.0912 88.7115 L-179.4267 93.0812 L-179.4267 93.0812 L-197.076 96.6335 L-197.076 96.6335 L-215.0092 99.3554 L-215.0092 99.3554 L-233.1957 101.235 L-233.1957 101.235 L-244.066 102.0182 L-245.7835 102.0736" clip-path="url(#clipPath2)"/>
      <path stroke-dasharray="6,2" d="M-245.7835 102.0736 L-233.6285 106.6841 L-236.7881 101.7835 L-233.9509 96.6893 Z" clip-path="url(#clipPath2)" stroke="none"/>
      <text x="-128.0298" xml:space="preserve" y="74.8646" clip-path="url(#clipPath2)" stroke="none">weak:feature:printing</text>
      <path fill="none" stroke-dasharray="6,2" d="M-130.0531 82.4735 L-132.6971 83.496 L-143.8405 87.335 L-143.8405 87.335 L-161.0192 92.5651 L-161.0192 92.5651 L-178.5426 96.9823 L-178.5426 96.9823 L-196.3807 100.5726 L-196.3807 100.5726 L-214.5029 103.3232 L-214.5029 103.3232 L-232.8783 105.2224 L-232.8783 105.2224 L-243.9333 106.016 L-245.7412 106.0743" clip-path="url(#clipPath2)"/>
      <path stroke-dasharray="6,2" d="M-245.7412 106.0743 L-233.5863 110.6849 L-236.7459 105.7842 L-233.9087 100.6901 Z" clip-path="url(#clipPath2)" stroke="none"/>
      <text x="-128.0298" xml:space="preserve" y="74.8646" clip-path="url(#clipPath2)" stroke="none">weak:feature:proc-macro</text>
      <path fill="none" stroke-dasharray="6,2" d="M-110.9727 83.4009 L-113.3172 84.4431 L-113.3172 84.4431 M-118.5941 86.5498 L-124.15 88.768 L-124.15 88.768 L-141.3235 94.9288 L-141.3235 94.9288 L-158.8752 100.2725 L-158.8752 100.2725 L-176.7745 104.7844 L-176.7745 104.7844 L-194.9901 108.4508 L-194.9901 108.4508 L-213.4904 111.2589 L-213.4904 111.2589 L-232.2435 113.1972 L-232.2435 113.1972 L-243.7096 114.013 L-245.7401 114.0784" clip-path="url(#clipPath2)"/>
      <path stroke-dasharray="6,2" d="M-245.7401 114.0784 L-233.5851 118.689 L-236.7448 113.7883 L-233.9075 108.6942 Z" clip-path="url(#clipPath2)" stroke="none"/>
      <text x="-128.0298" xml:space="preserve" y="74.8646" clip-path="url(#clipPath2)" stroke="none">weak:optional</text>
      <path fill="none" d="M159.6266 -0.4525 L166.1267 -3.1702 L180.3818 -9.8037 L180.3818 -9.8037 L195.7061 -18.2392 L195.7061 -18.2392 L210.624 -27.8729 L210.624 -27.8729 L225.0659 -38.6852 L225.0659 -38.6852 L238.9631 -50.6528 L238.9631 -50.6528 L252.2479 -63.7488 L252.2479 -63.7488 L264.8541 -77.9428 L264.8541 -77.9428 L272.8283 -87.8533 L274.6773 -90.3962" stroke-width="2" clip-path="url(#clipPath2)"/>
      <path d="M274.6773 -90.3962 L262.1886 -82.7854 L268.7229 -82.2071 L271.2876 -76.1694 Z" stroke-width="2" clip-path="url(#clipPath2)" stroke="none"/>
      <path fill="none" d="M152.4309 20.9511 L155.3511 22.2037 L166.4566 27.5904 L166.4566 27.5904 L182.6329 36.4022 L182.6329 36.4022 L198.3936 46.293 L198.3936 46.293 L213.686 57.2444 L213.686 57.2444 L228.4576 69.2357 L228.4576 69.2357 L242.6573 82.2443 L242.6573 82.2443 L256.2346 96.2449 L256.2346 96.2449 L264.7867 105.8573 L266.712 108.2246" stroke-width="2" clip-path="url(#clipPath2)"/>
      <path d="M266.712 108.2246 L262.5581 94.2019 L260.3236 100.3694 L253.8301 101.3001 Z" stroke-width="2" clip-path="url(#clipPath2)" stroke="none"/>
      <path fill="none" stroke-dasharray="6,2" d="M780.786 -275.73 L683.3734 -240.8655" clip-path="url(#clipPath2)"/>
      <path stroke-dasharray="6,2" d="M675.8412 -238.1697 L688.8243 -237.5058 L684.3149 -241.2025 L685.4545 -246.9209 Z" clip-path="url(#clipPath2)" stroke="none"/>
      <text x="758.8768" xml:space="preserve" y="-253.5936" clip-path="url(#clipPath2)" stroke="none">weak:feature:rustc-dep-of-std</text>
      <path fill="none" stroke-dasharray="6,2" d="M768.9429 -278.9261 L662.5457 -240.846" clip-path="url(#clipPath2)"/>
      <path stroke-dasharray="6,2" d="M655.0135 -238.1502 L667.9966 -237.4863 L663.4872 -241.1829 L664.6268 -246.9014 Z" clip-path="url(#clipPath2)" stroke="none"/>
      <text x="748.4902" xml:space="preserve" y="-257.3111" clip-path="url(#clipPath2)" stroke="none">weak:optional</text>
      <path fill="none" stroke-dasharray="6,2" d="M466.7607 -170.7735 L587.7148 -214.0636" clip-path="url(#clipPath2)"/>
      <path stroke-dasharray="6,2" d="M595.2469 -216.7594 L582.2639 -217.4233 L586.7733 -213.7267 L585.6337 -208.0082 Z" clip-path="url(#clipPath2)" stroke="none"/>
      <text x="557.0323" xml:space="preserve" y="-188.7873" clip-path="url(#clipPath2)" stroke="none">weak:feature:rustc-dep-of-std</text>
      <path fill="none" stroke-dasharray="6,2" d="M478.6153 -167.5815 L608.4387 -214.046" clip-path="url(#clipPath2)"/>
      <path stroke-dasharray="6,2" d="M615.9708 -216.7417 L602.9877 -217.4056 L607.4971 -213.709 L606.3574 -207.9905 Z" clip-path="url(#clipPath2)" stroke="none"/>
      <text x="567.4189" xml:space="preserve" y="-185.0699" clip-path="url(#clipPath2)" stroke="none">weak:optional</text>
      <path fill="none" d="M-85.3108 -680.8486 L-86.5937 -683.8752 L-91.9716 -696.0248 L-98.7268 -711.0741 L-107.17 -729.2023 L-114.4069 -744.1903 L-123.3519 -762.0764 L-131.0737 -776.9943 L-140.5115 -794.6253 L-148.7212 -809.4644 L-155.1168 -820.8922 L-156.6715 -823.57" stroke-width="2" clip-path="url(#clipPath2)"/>
      <path d="M-156.6715 -823.57 L-154.7578 -809.0707 L-151.5878 -814.8138 L-145.0286 -814.7194 Z" stroke-width="2" clip-path="url(#clipPath2)" stroke="none"/>
    </g>
    <g stroke-linecap="butt" transform="matrix(1,0,0,1,452,875)" fill="rgb(0,158,255)" text-rendering="geometricPrecision" shape-rendering="geometricPrecision" stroke-dasharray="6,2" stroke="rgb(0,158,255)" stroke-miterlimit="1.45">
      <path fill="none" d="M-20.6998 -310.7107 L-21.2676 -313.4003 L-24.0759 -325.5764 L-24.0759 -325.5764 L-28.7888 -344.5176 L-28.7888 -344.5176 L-33.9648 -363.3908 L-33.9648 -363.3908 L-39.603 -382.1877 L-39.603 -382.1877 L-45.7022 -400.8998 L-45.7022 -400.8998 L-52.2613 -419.5188 L-52.2613 -419.5188 L-59.279 -438.0363 L-59.279 -438.0363 L-64.2102 -450.3842 L-65.518 -453.4998" clip-path="url(#clipPath2)"/>
      <path d="M-68.6144 -460.8763 L-68.5801 -447.8763 L-65.1309 -452.5777 L-59.3595 -451.7468 Z" clip-path="url(#clipPath2)" stroke="none"/>
    </g>
    <g text-rendering="geometricPrecision" stroke-miterlimit="1.45" shape-rendering="geometricPrecision" font-family="sans-serif" transform="matrix(1,0,0,1,452,875)" stroke-linecap="butt">
      <text x="-56.1914" xml:space="preserve" y="-445.3534" clip-path="url(#clipPath2)" stroke="none">weak:test</text>
      <path fill="none" d="M-79.4845 -659.436 L-59.2073 -491.2077" stroke-width="2" clip-path="url(#clipPath2)"/>
      <path d="M-58.1303 -482.2724 L-54.1612 -496.3485 L-59.3419 -492.3246 L-65.3304 -495.0023 Z" stroke-width="2" clip-path="url(#clipPath2)" stroke="none"/>
      <path fill="none" stroke-dasharray="6,2" d="M-46.9175 -460.8613 L-45.644 -457.8274 L-40.7171 -445.4847 L-40.6056 -445.2005 L-33.5188 -426.4997 L-33.4353 -426.2712 L-26.7907 -407.4087 L-26.7317 -407.2346 L-20.5344 -388.2205 L-20.4965 -388.0993 L-14.7511 -368.9438 L-14.731 -368.8738 L-9.442 -349.5873 L-9.4367 -349.5668 L-4.6114 -330.1733 L-4.6114 -330.1733 L-2.1082 -319.4706 L-1.9005 -318.4865" clip-path="url(#clipPath2)"/>
      <path stroke-dasharray="6,2" d="M-0.2481 -310.6591 L2.1655 -323.433 L-2.1071 -319.465 L-7.6189 -321.3676 Z" clip-path="url(#clipPath2)" stroke="none"/>
      <text x="-26.2954" xml:space="preserve" y="-422.2253" clip-path="url(#clipPath2)" stroke="none">weak:feature:derive</text>
      <path fill="none" stroke-dasharray="6,2" d="M-57.7653 -460.8672 L-55.7008 -455.9492 L-49.9831 -441.7223 L-49.9573 -441.6566 L-42.8705 -422.9558 L-42.8678 -422.9485 L-36.2317 -404.1107 L-36.2317 -404.1107 L-30.0592 -385.1738 L-30.0592 -385.1738 L-24.3529 -366.1498 L-24.3529 -366.1498 L-19.1141 -347.0473 L-19.1141 -347.0473 L-14.3436 -327.8749 L-14.3436 -327.8749 L-11.2726 -314.4681 L-10.4695 -310.664" clip-path="url(#clipPath2)"/>
      <path stroke-dasharray="6,2" d="M-10.4695 -310.664 L-8.0559 -323.438 L-12.3285 -319.4699 L-17.8403 -321.3725 Z" clip-path="url(#clipPath2)" stroke="none"/>
      <text x="-42.5546" xml:space="preserve" y="-437.5293" clip-path="url(#clipPath2)" stroke="none">weak:optional</text>
      <path fill="none" stroke-dasharray="6,2" d="M-36.0767 -460.8719 L-35.5906 -459.7139 L-31.4512 -449.2471 L-31.2539 -448.7444 L-24.1671 -430.0435 L-24.0027 -429.5939 L-17.3582 -410.7314 L-17.2233 -410.3337 L-11.026 -391.3195 L-10.9174 -390.9724 L-5.172 -371.8169 L-5.0864 -371.5187 L0.2026 -352.2322 L0.2682 -351.9814 L5.0966 -332.5744 L5.1451 -332.3692 L5.1451 -332.3692 M6.7005 -325.6581 L7.8831 -320.5556 L8.3225 -318.4743" clip-path="url(#clipPath2)"/>
      <path stroke-dasharray="6,2" d="M9.9749 -310.6468 L12.3885 -323.4208 L8.1159 -319.4527 L2.6041 -321.3553 Z" clip-path="url(#clipPath2)" stroke="none"/>
      <text x="-16.9033" xml:space="preserve" y="-425.6586" clip-path="url(#clipPath2)" stroke="none">weak:test</text>
    </g>
    <g stroke-linecap="butt" transform="matrix(1,0,0,1,452,875)" fill="rgb(191,4,4)" text-rendering="geometricPrecision" shape-rendering="geometricPrecision" stroke-dasharray="6,2" stroke="rgb(191,4,4)" stroke-miterlimit="1.45">
      <path fill="none" d="M68.4845 -458.2404 L66.7373 -455.5504 L60.0434 -444.6986 L60.0434 -444.6986 L50.4371 -428.2747 L50.4371 -428.2747 L41.4067 -411.6579 L41.4067 -411.6579 L32.9559 -394.8628 L32.9559 -394.8628 L25.088 -377.9045 L25.088 -377.9045 L17.8061 -360.7979 L17.8061 -360.7979 L11.1129 -343.5579 L11.1129 -343.5579 L9.2768 -338.3351 M5.0106 -326.1998 L5.0106 -326.1998 L5.0106 -326.1998 L1.0946 -314.0904 L0.0816 -310.6877" clip-path="url(#clipPath2)"/>
      <path d="M0.0816 -310.6877 L8.2976 -320.7623 L2.6495 -319.3136 L-1.2867 -323.6155 Z" clip-path="url(#clipPath2)" stroke="none"/>
    </g>
    <g text-rendering="geometricPrecision" stroke-miterlimit="1.45" shape-rendering="geometricPrecision" font-family="sans-serif" transform="matrix(1,0,0,1,452,875)" stroke-linecap="butt">
      <text x="59.3455" xml:space="preserve" y="-424.1146" clip-path="url(#clipPath2)" stroke="none">weak:feature:derive</text>
    </g>
    <g stroke-linecap="butt" transform="matrix(1,0,0,1,452,875)" fill="rgb(191,4,4)" text-rendering="geometricPrecision" shape-rendering="geometricPrecision" stroke-dasharray="6,2" stroke="rgb(191,4,4)" stroke-miterlimit="1.45">
      <path fill="none" d="M56.5873 -458.2822 L56.5531 -458.2295 L51.4912 -449.8813 L51.4912 -449.8813 L41.7267 -433.1868 L41.7267 -433.1868 L32.5457 -416.2929 L32.5457 -416.2929 L23.9525 -399.2147 L23.9525 -399.2147 L15.9505 -381.9673 L15.9505 -381.9673 L8.5432 -364.5659 L8.5432 -364.5659 L1.7335 -347.0258 L1.7335 -347.0258 L1.7335 -347.0258 M-0.0609 -341.9218 L-4.476 -329.3625 L-4.476 -329.3625 L-7.7506 -319.4266 L-8.0707 -318.3512" clip-path="url(#clipPath2)"/>
      <path d="M-10.3532 -310.6837 L-2.1373 -320.7584 L-7.7854 -319.3096 L-11.7216 -323.6115 Z" clip-path="url(#clipPath2)" stroke="none"/>
    </g>
    <g text-rendering="geometricPrecision" stroke-miterlimit="1.45" shape-rendering="geometricPrecision" font-family="sans-serif" transform="matrix(1,0,0,1,452,875)" stroke-linecap="butt">
      <text x="50.6351" xml:space="preserve" y="-429.0266" clip-path="url(#clipPath2)" stroke="none">weak:optional</text>
    </g>
    <g stroke-linecap="butt" transform="matrix(1,0,0,1,452,875)" fill="rgb(191,4,4)" text-rendering="geometricPrecision" shape-rendering="geometricPrecision" stroke-dasharray="6,2" stroke="rgb(191,4,4)" stroke-miterlimit="1.45">
      <path fill="none" d="M80.4464 -458.2983 L76.9538 -452.9211 L68.5956 -439.5159 L68.5956 -439.5159 L59.1475 -423.3627 L59.1475 -423.3627 L50.2677 -407.0228 L50.2677 -407.0228 L41.9593 -390.511 L41.9593 -390.511 L34.2255 -373.8417 L34.2255 -373.8417 L27.0691 -357.0298 L27.0691 -357.0298 L26.5641 -355.7293 M22.9449 -346.4072 L20.4923 -340.09 L20.4923 -340.09 L14.4973 -323.037 L14.4973 -323.037 L11.0764 -312.5724 L10.5073 -310.6608" clip-path="url(#clipPath2)"/>
      <path d="M10.5073 -310.6608 L18.7233 -320.7354 L13.0752 -319.2867 L9.1389 -323.5886 Z" clip-path="url(#clipPath2)" stroke="none"/>
    </g>
    <g text-rendering="geometricPrecision" stroke-miterlimit="1.45" shape-rendering="geometricPrecision" font-family="sans-serif" transform="matrix(1,0,0,1,452,875)" stroke-linecap="butt">
      <text x="77.8703" xml:space="preserve" y="-435.3557" clip-path="url(#clipPath2)" stroke="none">weak:test</text>
      <path fill="none" stroke-dasharray="6,2" d="M653.2714 278.2812 L757.0511 323.095" clip-path="url(#clipPath2)"/>
      <path stroke-dasharray="6,2" d="M764.3956 326.2665 L755.3611 316.919 L756.1331 322.6986 L751.3967 326.0996 Z" clip-path="url(#clipPath2)" stroke="none"/>
      <text x="733.0062" xml:space="preserve" y="306.4418" clip-path="url(#clipPath2)" stroke="none">weak:feature:spin_no_std</text>
      <path fill="none" stroke-dasharray="6,2" d="M635.614 278.2812 L742.9774 324.6425" clip-path="url(#clipPath2)"/>
      <path stroke-dasharray="6,2" d="M750.3218 327.814 L741.2873 318.4664 L742.0593 324.246 L737.3229 327.647 Z" clip-path="url(#clipPath2)" stroke="none"/>
      <text x="723.1504" xml:space="preserve" y="309.8106" clip-path="url(#clipPath2)" stroke="none">weak:optional</text>
    </g>
    <g stroke-linecap="butt" transform="matrix(1,0,0,1,452,875)" fill="rgb(0,158,255)" text-rendering="geometricPrecision" shape-rendering="geometricPrecision" stroke="rgb(0,158,255)" stroke-width="2" stroke-miterlimit="1.45">
      <path fill="none" d="M-2.1801 -310.677 L-1.8001 -315.0722 L1.4821 -328.7019 L1.4821 -328.7019 L2.4673 -331.2647 M4.9287 -337.6678 L4.9287 -337.6678 L9.4639 -346.0967 L9.4639 -346.0967 L15.0588 -353.8449 L15.0588 -353.8449 M18.5962 -357.5418 L21.6841 -360.7689 L21.6841 -360.7689 L29.2452 -366.7395 L29.2452 -366.7395 M36.1683 -370.767 L37.6472 -371.6274 L37.6472 -371.6274 L46.7236 -375.335 L56.3079 -377.7647 L56.3933 -377.7803 L66.2617 -378.8961 L76.1902 -378.6618 L76.5542 -378.6285 L86.3636 -377.0676 L95.8744 -374.2034 L96.2166 -374.0749 L105.2573 -369.9645 L105.2573 -369.9645 M111.7479 -365.869 L113.6563 -364.6647 L113.7264 -364.6136 L121.2978 -358.2545 L127.8556 -350.966 L127.8556 -350.966 L133.2926 -342.9085 L137.5012 -334.2422 L137.5012 -334.2422 L140.4524 -325.1247 L142.1172 -315.7138 L142.1172 -315.7138 L142.2383 -312.9195 M142.5317 -306.1512 L142.5317 -306.1512 L141.7322 -296.579 L141.7322 -296.579 L141.0997 -293.6149 M139.0127 -283.8351 L138.8773 -283.2007 L137.4289 -279.3995" clip-path="url(#clipPath2)"/>
      <path d="M137.4289 -279.3995 L147.4921 -290.0119 L141.0341 -288.8609 L136.9794 -294.0176 Z" clip-path="url(#clipPath2)" stroke="none"/>
      <path fill="none" d="M-290.6733 -6.094 L-288.6048 -3.6014 L-279.6482 6.0215 L-279.6482 6.0215 L-265.5362 19.565 L-265.5362 19.565 L-250.8088 31.6591 L-250.8088 31.6591 L-235.5784 42.2783 L-235.5784 42.2783 L-219.9582 51.4049 L-219.9582 51.4049 L-204.0619 59.029 L-204.0619 59.029 L-188.0032 65.1485 L-188.0032 65.1485 L-171.8948 69.7688 L-171.8948 69.7688 L-155.8486 72.9032 L-155.8486 72.9032 L-139.975 74.5724 L-139.975 74.5724 L-131.0555 75.0115 L-130.016 74.9792" clip-path="url(#clipPath2)" stroke="rgb(191,4,4)"/>
      <path fill="rgb(191,4,4)" d="M-130.016 74.9792 L-143.6839 69.7755 L-140.1361 75.2931 L-143.3351 81.0201 Z" clip-path="url(#clipPath2)" stroke="none"/>
    </g>
    <g text-rendering="geometricPrecision" stroke-miterlimit="1.45" stroke-dasharray="6,2" shape-rendering="geometricPrecision" transform="matrix(1,0,0,1,452,875)" stroke-linecap="butt">
      <path fill="none" d="M269.6178 -0.2549 L262.9308 0.7622 L246.3233 3.0379 L244.2511 3.3008 L224.382 5.5715 L222.3401 5.7793 L202.4207 7.5562 L200.4072 7.7107 L180.4498 8.992 L178.4627 9.0947 L166.0532 9.6762 L163.6304 9.741" clip-path="url(#clipPath2)"/>
      <path d="M163.6304 9.741 L175.7599 14.418 L172.6272 9.5001 L175.4923 4.4216 Z" clip-path="url(#clipPath2)" stroke="none"/>
      <text x="219.9425" y="21.5017" clip-path="url(#clipPath2)" font-family="sans-serif" stroke-dasharray="none" stroke="none" xml:space="preserve">weak:test</text>
      <path fill="none" stroke-dasharray="none" d="M-365.9697 -273.8706 L-261.6758 -195.823" stroke-width="2" clip-path="url(#clipPath2)"/>
      <path stroke-dasharray="none" d="M-254.4701 -190.4307 L-261.9084 -203.0228 L-262.5765 -196.4971 L-268.6489 -194.0156 Z" stroke-width="2" clip-path="url(#clipPath2)" stroke="none"/>
    </g>
    <g stroke-linecap="butt" transform="matrix(1,0,0,1,452,875)" fill="rgb(191,4,4)" text-rendering="geometricPrecision" shape-rendering="geometricPrecision" stroke="rgb(191,4,4)" stroke-width="2" stroke-miterlimit="1.45">
      <path fill="none" d="M-24.6302 -134.6962 L-24.8404 -134.9475 L-30.3914 -140.4403 L-30.3914 -140.4403 L-41.71 -150.5135 L-41.71 -150.5135 L-54.2716 -159.7116 L-54.2716 -159.7116 L-68.0109 -167.926 L-68.0109 -167.926 L-82.8543 -175.0526 L-82.8543 -175.0526 L-98.7201 -180.9931 L-98.7201 -180.9931 L-115.5191 -185.6546 L-115.5191 -185.6546 L-133.1548 -188.951 L-133.1548 -188.951 L-151.5239 -190.8031 L-151.5239 -190.8031 L-170.5171 -191.1389 L-170.5171 -191.1389 L-180.862 -190.8459 L-181.5683 -190.7726" clip-path="url(#clipPath2)"/>
      <path d="M-190.5201 -189.8426 L-176.5111 -185.6426 L-180.4493 -190.8888 L-177.6735 -196.8324 Z" clip-path="url(#clipPath2)" stroke="none"/>
      <path fill="none" d="M-215.7371 227.4622 L-217.5842 229.8252 L-217.5842 229.8252 M-221.6431 237.4075 L-223.5541 240.9774 L-223.5541 240.9774 L-227.0815 249.9536 L-229.418 259.3034 L-229.418 259.3034 L-230.4857 268.8996 L-230.2068 278.6147 L-230.2068 278.6147 L-228.5692 288.2689 L-225.5609 297.6822 L-225.5091 297.8126 L-221.2201 306.7681 L-215.7406 315.0488 L-215.3253 315.5918 L-208.7813 323.0653 L-201.2988 329.5989 L-200.4782 330.2246 L-192.2006 335.7192 L-183.2713 340.0757 L-182.3163 340.4665 L-172.8936 343.6112 L-163.1355 345.4707 L-162.457 345.5539 L-152.5418 346.0867 L-142.6475 345.2512 L-142.5087 345.2299 L-132.868 343.0583 L-123.7135 339.5826 L-123.7135 339.5826 L-115.1944 334.9043 L-107.4596 329.1251 L-107.4596 329.1251 L-100.5796 322.3764 L-94.6249 314.79 L-94.6249 314.79 L-87.6509 303.0361 L-86.1691 299.2875" clip-path="url(#clipPath2)" stroke="black"/>
      <path fill="black" d="M-86.1691 299.2875 L-96.363 309.7744 L-89.8912 308.7035 L-85.9008 313.91 Z" clip-path="url(#clipPath2)" stroke="none"/>
      <path fill="none" d="M-106.9251 83.4254 L-107.6178 84.8416 L-111.0458 93.4641 L-111.0458 93.4641 L-115.9017 108.2636 L-115.9017 108.2636 L-119.4965 123.792 L-119.4965 123.792 L-121.7691 139.9572 L-121.7691 139.9572 L-122.6647 156.6625 L-122.6647 156.6625 L-122.1346 173.8077 L-122.1346 173.8077 L-120.1375 191.2888 L-120.1375 191.2888 L-116.6385 208.9987 L-116.6385 208.9987 L-111.6102 226.828 L-111.6102 226.828 L-105.0326 244.6649 L-105.0326 244.6649 L-96.893 262.3959 L-96.893 262.3959 L-90.4135 274.5627 L-88.3954 277.9048" clip-path="url(#clipPath2)" stroke="black"/>
      <path fill="black" d="M-88.3954 277.9048 L-90.5588 263.4406 L-93.6293 269.2375 L-100.1891 269.2561 Z" clip-path="url(#clipPath2)" stroke="none"/>
    </g>
    <g fill="rgb(255,204,0)" text-rendering="geometricPrecision" shape-rendering="geometricPrecision" transform="matrix(1,0,0,1,452,875)" stroke="rgb(255,204,0)">
      <rect x="380.7224" width="110.7148" height="21.4062" y="177.6035" clip-path="url(#clipPath2)" stroke="none"/>
      <rect x="380.7224" y="177.6035" clip-path="url(#clipPath2)" fill="yellow" width="1" height="21.4062" stroke="none"/>
      <rect x="381.7224" y="177.6035" clip-path="url(#clipPath2)" fill="yellow" width="108.7148" height="1" stroke="none"/>
      <rect x="381.7224" y="198.0097" clip-path="url(#clipPath2)" fill="rgb(178,142,0)" width="109.7148" height="1" stroke="none"/>
      <rect x="490.4373" y="177.6035" clip-path="url(#clipPath2)" fill="rgb(178,142,0)" width="1" height="20.4062" stroke="none"/>
    </g>
    <g text-rendering="geometricPrecision" stroke-miterlimit="1.45" shape-rendering="geometricPrecision" font-family="sans-serif" transform="matrix(1,0,0,1,452,875)" stroke-linecap="butt">
      <text x="384.7224" xml:space="preserve" y="192.4668" clip-path="url(#clipPath2)" stroke="none">doc-comment 0.3.1</text>
    </g>
    <g fill="rgb(255,204,0)" text-rendering="geometricPrecision" shape-rendering="geometricPrecision" transform="matrix(1,0,0,1,452,875)" stroke="rgb(255,204,0)">
      <rect x="269.5955" width="60.7109" height="21.4062" y="-16.1261" clip-path="url(#clipPath2)" stroke="none"/>
      <rect x="269.5955" y="-16.1261" clip-path="url(#clipPath2)" fill="yellow" width="1" height="21.4062" stroke="none"/>
      <rect x="270.5955" y="-16.1261" clip-path="url(#clipPath2)" fill="yellow" width="58.7109" height="1" stroke="none"/>
      <rect x="270.5955" y="4.2801" clip-path="url(#clipPath2)" fill="rgb(178,142,0)" width="59.7109" height="1" stroke="none"/>
      <rect x="329.3065" y="-16.1261" clip-path="url(#clipPath2)" fill="rgb(178,142,0)" width="1" height="20.4062" stroke="none"/>
    </g>
    <g text-rendering="geometricPrecision" stroke-miterlimit="1.45" shape-rendering="geometricPrecision" font-family="sans-serif" transform="matrix(1,0,0,1,452,875)" stroke-linecap="butt">
      <text x="273.5955" xml:space="preserve" y="-1.2628" clip-path="url(#clipPath2)" stroke="none">glob 0.3.0</text>
    </g>
    <g fill="rgb(255,204,0)" text-rendering="geometricPrecision" shape-rendering="geometricPrecision" transform="matrix(1,0,0,1,452,875)" stroke="rgb(255,204,0)">
      <rect x="-69.6413" width="57.3711" height="21.4062" y="-859.7159" clip-path="url(#clipPath2)" stroke="none"/>
      <rect x="-69.6413" y="-859.7159" clip-path="url(#clipPath2)" fill="yellow" width="1" height="21.4062" stroke="none"/>
      <rect x="-68.6413" y="-859.7159" clip-path="url(#clipPath2)" fill="yellow" width="55.3711" height="1" stroke="none"/>
      <rect x="-68.6413" y="-839.3096" clip-path="url(#clipPath2)" fill="rgb(178,142,0)" width="56.3711" height="1" stroke="none"/>
      <rect x="-13.2702" y="-859.7159" clip-path="url(#clipPath2)" fill="rgb(178,142,0)" width="1" height="20.4062" stroke="none"/>
    </g>
    <g text-rendering="geometricPrecision" stroke-miterlimit="1.45" shape-rendering="geometricPrecision" font-family="sans-serif" transform="matrix(1,0,0,1,452,875)" stroke-linecap="butt">
      <text x="-65.6413" xml:space="preserve" y="-844.8526" clip-path="url(#clipPath2)" stroke="none">itoa 0.4.4</text>
    </g>
    <g fill="rgb(255,204,0)" text-rendering="geometricPrecision" shape-rendering="geometricPrecision" transform="matrix(1,0,0,1,452,875)" stroke="rgb(255,204,0)">
      <rect x="572.6699" width="94.0449" height="21.4062" y="256.8905" clip-path="url(#clipPath2)" stroke="none"/>
      <rect x="572.6699" y="256.8905" clip-path="url(#clipPath2)" fill="yellow" width="1" height="21.4062" stroke="none"/>
      <rect x="573.6699" y="256.8905" clip-path="url(#clipPath2)" fill="yellow" width="92.0449" height="1" stroke="none"/>
      <rect x="573.6699" y="277.2967" clip-path="url(#clipPath2)" fill="rgb(178,142,0)" width="93.0449" height="1" stroke="none"/>
      <rect x="665.7149" y="256.8905" clip-path="url(#clipPath2)" fill="rgb(178,142,0)" width="1" height="20.4062" stroke="none"/>
    </g>
    <g text-rendering="geometricPrecision" stroke-miterlimit="1.45" shape-rendering="geometricPrecision" font-family="sans-serif" transform="matrix(1,0,0,1,452,875)" stroke-linecap="butt">
      <text x="576.6699" xml:space="preserve" y="271.7538" clip-path="url(#clipPath2)" stroke="none">lazy_static 1.4.0</text>
    </g>
    <g fill="rgb(255,204,0)" text-rendering="geometricPrecision" shape-rendering="geometricPrecision" transform="matrix(1,0,0,1,452,875)" stroke="rgb(255,204,0)">
      <rect x="768.9356" width="62.7031" height="21.4062" y="-297.1301" clip-path="url(#clipPath2)" stroke="none"/>
      <rect x="768.9356" y="-297.1301" clip-path="url(#clipPath2)" fill="yellow" width="1" height="21.4062" stroke="none"/>
      <rect x="769.9356" y="-297.1301" clip-path="url(#clipPath2)" fill="yellow" width="60.7031" height="1" stroke="none"/>
      <rect x="769.9356" y="-276.7238" clip-path="url(#clipPath2)" fill="rgb(178,142,0)" width="61.7031" height="1" stroke="none"/>
      <rect x="830.6388" y="-297.1301" clip-path="url(#clipPath2)" fill="rgb(178,142,0)" width="1" height="20.4062" stroke="none"/>
    </g>
    <g text-rendering="geometricPrecision" stroke-miterlimit="1.45" shape-rendering="geometricPrecision" font-family="sans-serif" transform="matrix(1,0,0,1,452,875)" stroke-linecap="butt">
      <text x="772.9356" xml:space="preserve" y="-282.2668" clip-path="url(#clipPath2)" stroke="none">libc 0.2.50</text>
    </g>
    <g fill="rgb(255,204,0)" text-rendering="geometricPrecision" shape-rendering="geometricPrecision" transform="matrix(1,0,0,1,452,875)" stroke="rgb(255,204,0)">
      <rect x="415.8678" width="62.7031" height="21.4062" y="-170.7653" clip-path="url(#clipPath2)" stroke="none"/>
      <rect x="415.8678" y="-170.7653" clip-path="url(#clipPath2)" fill="yellow" width="1" height="21.4062" stroke="none"/>
      <rect x="416.8678" y="-170.7653" clip-path="url(#clipPath2)" fill="yellow" width="60.7031" height="1" stroke="none"/>
      <rect x="416.8678" y="-150.359" clip-path="url(#clipPath2)" fill="rgb(178,142,0)" width="61.7031" height="1" stroke="none"/>
      <rect x="477.5709" y="-170.7653" clip-path="url(#clipPath2)" fill="rgb(178,142,0)" width="1" height="20.4062" stroke="none"/>
    </g>
    <g text-rendering="geometricPrecision" stroke-miterlimit="1.45" shape-rendering="geometricPrecision" font-family="sans-serif" transform="matrix(1,0,0,1,452,875)" stroke-linecap="butt">
      <text x="419.8677" xml:space="preserve" y="-155.902" clip-path="url(#clipPath2)" stroke="none">libc 0.2.62</text>
    </g>
    <g fill="rgb(255,204,0)" text-rendering="geometricPrecision" shape-rendering="geometricPrecision" transform="matrix(1,0,0,1,452,875)" stroke="rgb(255,204,0)">
      <rect x="-436.3278" width="112.0508" height="21.4062" y="-295.2995" clip-path="url(#clipPath2)" stroke="none"/>
      <rect x="-436.3278" y="-295.2995" clip-path="url(#clipPath2)" fill="yellow" width="1" height="21.4062" stroke="none"/>
      <rect x="-435.3278" y="-295.2995" clip-path="url(#clipPath2)" fill="yellow" width="110.0508" height="1" stroke="none"/>
      <rect x="-435.3278" y="-274.8932" clip-path="url(#clipPath2)" fill="rgb(178,142,0)" width="111.0508" height="1" stroke="none"/>
      <rect x="-325.277" y="-295.2995" clip-path="url(#clipPath2)" fill="rgb(178,142,0)" width="1" height="20.4062" stroke="none"/>
    </g>
    <g text-rendering="geometricPrecision" stroke-miterlimit="1.45" shape-rendering="geometricPrecision" font-family="sans-serif" transform="matrix(1,0,0,1,452,875)" stroke-linecap="butt">
      <text x="-432.3278" xml:space="preserve" y="-280.4362" clip-path="url(#clipPath2)" stroke="none">proc-macro2 0.4.27</text>
    </g>
    <g fill="rgb(255,204,0)" text-rendering="geometricPrecision" shape-rendering="geometricPrecision" transform="matrix(1,0,0,1,452,875)" stroke="rgb(255,204,0)">
      <rect x="-71.72" width="112.0508" height="21.4062" y="-134.7139" clip-path="url(#clipPath2)" stroke="none"/>
      <rect x="-71.72" y="-134.7139" clip-path="url(#clipPath2)" fill="yellow" width="1" height="21.4062" stroke="none"/>
      <rect x="-70.72" y="-134.7139" clip-path="url(#clipPath2)" fill="yellow" width="110.0508" height="1" stroke="none"/>
      <rect x="-70.72" y="-114.3077" clip-path="url(#clipPath2)" fill="rgb(178,142,0)" width="111.0508" height="1" stroke="none"/>
      <rect x="39.3307" y="-134.7139" clip-path="url(#clipPath2)" fill="rgb(178,142,0)" width="1" height="20.4062" stroke="none"/>
    </g>
    <g text-rendering="geometricPrecision" stroke-miterlimit="1.45" shape-rendering="geometricPrecision" font-family="sans-serif" transform="matrix(1,0,0,1,452,875)" stroke-linecap="butt">
      <text x="-67.72" xml:space="preserve" y="-119.8506" clip-path="url(#clipPath2)" stroke="none">proc-macro2 0.4.30</text>
    </g>
    <g fill="rgb(255,204,0)" text-rendering="geometricPrecision" shape-rendering="geometricPrecision" transform="matrix(1,0,0,1,452,875)" stroke="rgb(255,204,0)">
      <rect x="-260.0725" width="105.377" height="21.4062" y="206.073" clip-path="url(#clipPath2)" stroke="none"/>
      <rect x="-260.0725" y="206.073" clip-path="url(#clipPath2)" fill="yellow" width="1" height="21.4062" stroke="none"/>
      <rect x="-259.0725" y="206.073" clip-path="url(#clipPath2)" fill="yellow" width="103.377" height="1" stroke="none"/>
      <rect x="-259.0725" y="226.4792" clip-path="url(#clipPath2)" fill="rgb(178,142,0)" width="104.377" height="1" stroke="none"/>
      <rect x="-155.6955" y="206.073" clip-path="url(#clipPath2)" fill="rgb(178,142,0)" width="1" height="20.4062" stroke="none"/>
    </g>
    <g text-rendering="geometricPrecision" stroke-miterlimit="1.45" shape-rendering="geometricPrecision" font-family="sans-serif" transform="matrix(1,0,0,1,452,875)" stroke-linecap="butt">
      <text x="-256.0724" xml:space="preserve" y="220.9363" clip-path="url(#clipPath2)" stroke="none">proc-macro2 1.0.5</text>
    </g>
    <g fill="rgb(255,204,0)" text-rendering="geometricPrecision" shape-rendering="geometricPrecision" transform="matrix(1,0,0,1,452,875)" stroke="rgb(255,204,0)">
      <rect x="-177.9555" width="74.7266" height="21.4062" y="-275.7198" clip-path="url(#clipPath2)" stroke="none"/>
      <rect x="-177.9555" y="-275.7198" clip-path="url(#clipPath2)" fill="yellow" width="1" height="21.4062" stroke="none"/>
      <rect x="-176.9555" y="-275.7198" clip-path="url(#clipPath2)" fill="yellow" width="72.7266" height="1" stroke="none"/>
      <rect x="-176.9555" y="-255.3136" clip-path="url(#clipPath2)" fill="rgb(178,142,0)" width="73.7266" height="1" stroke="none"/>
      <rect x="-104.2289" y="-275.7198" clip-path="url(#clipPath2)" fill="rgb(178,142,0)" width="1" height="20.4062" stroke="none"/>
    </g>
    <g text-rendering="geometricPrecision" stroke-miterlimit="1.45" shape-rendering="geometricPrecision" font-family="sans-serif" transform="matrix(1,0,0,1,452,875)" stroke-linecap="butt">
      <text x="-173.9555" xml:space="preserve" y="-260.8565" clip-path="url(#clipPath2)" stroke="none">quote 0.6.11</text>
    </g>
    <g fill="rgb(255,204,0)" text-rendering="geometricPrecision" shape-rendering="geometricPrecision" transform="matrix(1,0,0,1,452,875)" stroke="rgb(255,204,0)">
      <rect x="174.8387" width="74.7266" height="21.4062" y="-222.7652" clip-path="url(#clipPath2)" stroke="none"/>
      <rect x="174.8387" y="-222.7652" clip-path="url(#clipPath2)" fill="yellow" width="1" height="21.4062" stroke="none"/>
      <rect x="175.8387" y="-222.7652" clip-path="url(#clipPath2)" fill="yellow" width="72.7266" height="1" stroke="none"/>
      <rect x="175.8387" y="-202.3589" clip-path="url(#clipPath2)" fill="rgb(178,142,0)" width="73.7266" height="1" stroke="none"/>
      <rect x="248.5653" y="-222.7652" clip-path="url(#clipPath2)" fill="rgb(178,142,0)" width="1" height="20.4062" stroke="none"/>
    </g>
    <g text-rendering="geometricPrecision" stroke-miterlimit="1.45" shape-rendering="geometricPrecision" font-family="sans-serif" transform="matrix(1,0,0,1,452,875)" stroke-linecap="butt">
      <text x="178.8387" xml:space="preserve" y="-207.9019" clip-path="url(#clipPath2)" stroke="none">quote 0.6.13</text>
    </g>
    <g fill="rgb(255,204,0)" text-rendering="geometricPrecision" shape-rendering="geometricPrecision" transform="matrix(1,0,0,1,452,875)" stroke="rgb(255,204,0)">
      <rect x="-313.8013" width="68.0527" height="21.4062" y="97.5834" clip-path="url(#clipPath2)" stroke="none"/>
      <rect x="-313.8013" y="97.5834" clip-path="url(#clipPath2)" fill="yellow" width="1" height="21.4062" stroke="none"/>
      <rect x="-312.8013" y="97.5834" clip-path="url(#clipPath2)" fill="yellow" width="66.0527" height="1" stroke="none"/>
      <rect x="-312.8013" y="117.9896" clip-path="url(#clipPath2)" fill="rgb(178,142,0)" width="67.0527" height="1" stroke="none"/>
      <rect x="-246.7486" y="97.5834" clip-path="url(#clipPath2)" fill="rgb(178,142,0)" width="1" height="20.4062" stroke="none"/>
    </g>
    <g text-rendering="geometricPrecision" stroke-miterlimit="1.45" shape-rendering="geometricPrecision" font-family="sans-serif" transform="matrix(1,0,0,1,452,875)" stroke-linecap="butt">
      <text x="-309.8013" xml:space="preserve" y="112.4467" clip-path="url(#clipPath2)" stroke="none">quote 1.0.2</text>
    </g>
    <g fill="rgb(255,204,0)" text-rendering="geometricPrecision" shape-rendering="geometricPrecision" transform="matrix(1,0,0,1,452,875)" stroke="rgb(255,204,0)">
      <rect x="251.4338" width="62.041" height="21.4062" y="-111.795" clip-path="url(#clipPath2)" stroke="none"/>
      <rect x="251.4338" y="-111.795" clip-path="url(#clipPath2)" fill="yellow" width="1" height="21.4062" stroke="none"/>
      <rect x="252.4338" y="-111.795" clip-path="url(#clipPath2)" fill="yellow" width="60.041" height="1" stroke="none"/>
      <rect x="252.4338" y="-91.3887" clip-path="url(#clipPath2)" fill="rgb(178,142,0)" width="61.041" height="1" stroke="none"/>
      <rect x="312.4748" y="-111.795" clip-path="url(#clipPath2)" fill="rgb(178,142,0)" width="1" height="20.4062" stroke="none"/>
    </g>
    <g text-rendering="geometricPrecision" stroke-miterlimit="1.45" shape-rendering="geometricPrecision" font-family="sans-serif" transform="matrix(1,0,0,1,452,875)" stroke-linecap="butt">
      <text x="255.4338" xml:space="preserve" y="-96.9317" clip-path="url(#clipPath2)" stroke="none">rand 0.4.6</text>
    </g>
    <g fill="rgb(255,204,0)" text-rendering="geometricPrecision" shape-rendering="geometricPrecision" transform="matrix(1,0,0,1,452,875)" stroke="rgb(255,204,0)">
      <rect x="217.0556" width="116.7266" height="21.4062" y="108.2274" clip-path="url(#clipPath2)" stroke="none"/>
      <rect x="217.0556" y="108.2274" clip-path="url(#clipPath2)" fill="yellow" width="1" height="21.4062" stroke="none"/>
      <rect x="218.0556" y="108.2274" clip-path="url(#clipPath2)" fill="yellow" width="114.7266" height="1" stroke="none"/>
      <rect x="218.0556" y="128.6336" clip-path="url(#clipPath2)" fill="rgb(178,142,0)" width="115.7266" height="1" stroke="none"/>
      <rect x="332.7821" y="108.2274" clip-path="url(#clipPath2)" fill="rgb(178,142,0)" width="1" height="20.4062" stroke="none"/>
    </g>
    <g text-rendering="geometricPrecision" stroke-miterlimit="1.45" shape-rendering="geometricPrecision" font-family="sans-serif" transform="matrix(1,0,0,1,452,875)" stroke-linecap="butt">
      <text x="221.0556" xml:space="preserve" y="123.0906" clip-path="url(#clipPath2)" stroke="none">remove_dir_all 0.5.2</text>
    </g>
    <g fill="rgb(255,204,0)" text-rendering="geometricPrecision" shape-rendering="geometricPrecision" transform="matrix(1,0,0,1,452,875)" stroke="rgb(255,204,0)">
      <rect x="549.1599" width="172.7246" height="21.4062" y="-238.1598" clip-path="url(#clipPath2)" stroke="none"/>
      <rect x="549.1599" y="-238.1598" clip-path="url(#clipPath2)" fill="yellow" width="1" height="21.4062" stroke="none"/>
      <rect x="550.1599" y="-238.1598" clip-path="url(#clipPath2)" fill="yellow" width="170.7246" height="1" stroke="none"/>
      <rect x="550.1599" y="-217.7536" clip-path="url(#clipPath2)" fill="rgb(178,142,0)" width="171.7246" height="1" stroke="none"/>
      <rect x="720.8845" y="-238.1598" clip-path="url(#clipPath2)" fill="rgb(178,142,0)" width="1" height="20.4062" stroke="none"/>
    </g>
    <g text-rendering="geometricPrecision" stroke-miterlimit="1.45" shape-rendering="geometricPrecision" font-family="sans-serif" transform="matrix(1,0,0,1,452,875)" stroke-linecap="butt">
      <text x="553.1599" xml:space="preserve" y="-223.2966" clip-path="url(#clipPath2)" stroke="none">rustc-std-workspace-core 1.0.0</text>
    </g>
    <g fill="rgb(255,204,0)" text-rendering="geometricPrecision" shape-rendering="geometricPrecision" transform="matrix(1,0,0,1,452,875)" stroke="rgb(255,204,0)">
      <rect x="-347.8865" width="96.7109" height="21.4062" y="-27.4706" clip-path="url(#clipPath2)" stroke="none"/>
      <rect x="-347.8865" y="-27.4706" clip-path="url(#clipPath2)" fill="yellow" width="1" height="21.4062" stroke="none"/>
      <rect x="-346.8865" y="-27.4706" clip-path="url(#clipPath2)" fill="yellow" width="94.7109" height="1" stroke="none"/>
      <rect x="-346.8865" y="-7.0643" clip-path="url(#clipPath2)" fill="rgb(178,142,0)" width="95.7109" height="1" stroke="none"/>
      <rect x="-252.1756" y="-27.4706" clip-path="url(#clipPath2)" fill="rgb(178,142,0)" width="1" height="20.4062" stroke="none"/>
    </g>
    <g text-rendering="geometricPrecision" stroke-miterlimit="1.45" shape-rendering="geometricPrecision" font-family="sans-serif" transform="matrix(1,0,0,1,452,875)" stroke-linecap="butt">
      <text x="-343.8865" xml:space="preserve" y="-12.6073" clip-path="url(#clipPath2)" stroke="none">rustversion 0.1.4</text>
    </g>
    <g fill="rgb(255,204,0)" text-rendering="geometricPrecision" shape-rendering="geometricPrecision" transform="matrix(1,0,0,1,452,875)" stroke="rgb(255,204,0)">
      <rect x="-190.2187" width="54.6934" height="21.4062" y="-844.9529" clip-path="url(#clipPath2)" stroke="none"/>
      <rect x="-190.2187" y="-844.9529" clip-path="url(#clipPath2)" fill="yellow" width="1" height="21.4062" stroke="none"/>
      <rect x="-189.2187" y="-844.9529" clip-path="url(#clipPath2)" fill="yellow" width="52.6934" height="1" stroke="none"/>
      <rect x="-189.2187" y="-824.5467" clip-path="url(#clipPath2)" fill="rgb(178,142,0)" width="53.6934" height="1" stroke="none"/>
      <rect x="-136.5254" y="-844.9529" clip-path="url(#clipPath2)" fill="rgb(178,142,0)" width="1" height="20.4062" stroke="none"/>
    </g>
    <g text-rendering="geometricPrecision" stroke-miterlimit="1.45" shape-rendering="geometricPrecision" font-family="sans-serif" transform="matrix(1,0,0,1,452,875)" stroke-linecap="butt">
      <text x="-186.2187" xml:space="preserve" y="-830.0896" clip-path="url(#clipPath2)" stroke="none">ryu 1.0.1</text>
    </g>
    <g fill="rgb(255,204,0)" text-rendering="geometricPrecision" shape-rendering="geometricPrecision" transform="matrix(1,0,0,1,452,875)" stroke="rgb(255,204,0)">
      <rect x="-97.5366" width="81.3887" height="21.4062" y="-482.2898" clip-path="url(#clipPath2)" stroke="none"/>
      <rect x="-97.5366" y="-482.2898" clip-path="url(#clipPath2)" fill="yellow" width="1" height="21.4062" stroke="none"/>
      <rect x="-96.5366" y="-482.2898" clip-path="url(#clipPath2)" fill="yellow" width="79.3887" height="1" stroke="none"/>
      <rect x="-96.5366" y="-461.8835" clip-path="url(#clipPath2)" fill="rgb(178,142,0)" width="80.3887" height="1" stroke="none"/>
      <rect x="-17.1479" y="-482.2898" clip-path="url(#clipPath2)" fill="rgb(178,142,0)" width="1" height="20.4062" stroke="none"/>
    </g>
    <g text-rendering="geometricPrecision" stroke-miterlimit="1.45" shape-rendering="geometricPrecision" font-family="sans-serif" transform="matrix(1,0,0,1,452,875)" stroke-linecap="butt">
      <text x="-93.5366" xml:space="preserve" y="-467.4265" clip-path="url(#clipPath2)" stroke="none">serde 1.0.101</text>
    </g>
    <g fill="rgb(255,204,0)" text-rendering="geometricPrecision" shape-rendering="geometricPrecision" transform="matrix(1,0,0,1,452,875)" stroke="rgb(255,204,0)">
      <rect x="38.0956" width="74.7148" height="21.4062" y="-479.672" clip-path="url(#clipPath2)" stroke="none"/>
      <rect x="38.0956" y="-479.672" clip-path="url(#clipPath2)" fill="yellow" width="1" height="21.4062" stroke="none"/>
      <rect x="39.0956" y="-479.672" clip-path="url(#clipPath2)" fill="yellow" width="72.7148" height="1" stroke="none"/>
      <rect x="39.0956" y="-459.2658" clip-path="url(#clipPath2)" fill="rgb(178,142,0)" width="73.7148" height="1" stroke="none"/>
      <rect x="111.8104" y="-479.672" clip-path="url(#clipPath2)" fill="rgb(178,142,0)" width="1" height="20.4062" stroke="none"/>
    </g>
    <g text-rendering="geometricPrecision" stroke-miterlimit="1.45" shape-rendering="geometricPrecision" font-family="sans-serif" transform="matrix(1,0,0,1,452,875)" stroke-linecap="butt">
      <text x="42.0956" xml:space="preserve" y="-464.8087" clip-path="url(#clipPath2)" stroke="none">serde 1.0.89</text>
    </g>
    <g fill="rgb(255,204,0)" text-rendering="geometricPrecision" shape-rendering="geometricPrecision" transform="matrix(1,0,0,1,452,875)" stroke="rgb(255,204,0)">
      <rect x="-60.1409" width="114.0723" height="21.4062" y="-310.6871" clip-path="url(#clipPath2)" stroke="none"/>
      <rect x="-60.1409" y="-310.6871" clip-path="url(#clipPath2)" fill="yellow" width="1" height="21.4062" stroke="none"/>
      <rect x="-59.1409" y="-310.6871" clip-path="url(#clipPath2)" fill="yellow" width="112.0723" height="1" stroke="none"/>
      <rect x="-59.1409" y="-290.2808" clip-path="url(#clipPath2)" fill="rgb(178,142,0)" width="113.0723" height="1" stroke="none"/>
      <rect x="52.9314" y="-310.6871" clip-path="url(#clipPath2)" fill="rgb(178,142,0)" width="1" height="20.4062" stroke="none"/>
    </g>
    <g text-rendering="geometricPrecision" stroke-miterlimit="1.45" shape-rendering="geometricPrecision" font-family="sans-serif" transform="matrix(1,0,0,1,452,875)" stroke-linecap="butt">
      <text x="-56.1409" xml:space="preserve" y="-295.8238" clip-path="url(#clipPath2)" stroke="none">serde_derive 1.0.89</text>
    </g>
    <g fill="rgb(255,204,0)" text-rendering="geometricPrecision" shape-rendering="geometricPrecision" transform="matrix(1,0,0,1,452,875)" stroke="rgb(255,204,0)">
      <rect x="-132.477" width="103.4023" height="21.4062" y="-680.8526" clip-path="url(#clipPath2)" stroke="none"/>
      <rect x="-132.477" y="-680.8526" clip-path="url(#clipPath2)" fill="yellow" width="1" height="21.4062" stroke="none"/>
      <rect x="-131.477" y="-680.8526" clip-path="url(#clipPath2)" fill="yellow" width="101.4023" height="1" stroke="none"/>
      <rect x="-131.477" y="-660.4463" clip-path="url(#clipPath2)" fill="rgb(178,142,0)" width="102.4023" height="1" stroke="none"/>
      <rect x="-30.0747" y="-680.8526" clip-path="url(#clipPath2)" fill="rgb(178,142,0)" width="1" height="20.4062" stroke="none"/>
    </g>
    <g text-rendering="geometricPrecision" stroke-miterlimit="1.45" shape-rendering="geometricPrecision" font-family="sans-serif" transform="matrix(1,0,0,1,452,875)" stroke-linecap="butt">
      <text x="-128.477" xml:space="preserve" y="-665.9893" clip-path="url(#clipPath2)" stroke="none">serde_json 1.0.41</text>
    </g>
    <g fill="rgb(255,204,0)" text-rendering="geometricPrecision" shape-rendering="geometricPrecision" transform="matrix(1,0,0,1,452,875)" stroke="rgb(255,204,0)">
      <rect x="750.3348" width="60.0371" height="21.4062" y="326.2666" clip-path="url(#clipPath2)" stroke="none"/>
      <rect x="750.3348" y="326.2666" clip-path="url(#clipPath2)" fill="yellow" width="1" height="21.4062" stroke="none"/>
      <rect x="751.3348" y="326.2666" clip-path="url(#clipPath2)" fill="yellow" width="58.0371" height="1" stroke="none"/>
      <rect x="751.3348" y="346.6728" clip-path="url(#clipPath2)" fill="rgb(178,142,0)" width="59.0371" height="1" stroke="none"/>
      <rect x="809.3719" y="326.2666" clip-path="url(#clipPath2)" fill="rgb(178,142,0)" width="1" height="20.4062" stroke="none"/>
    </g>
    <g text-rendering="geometricPrecision" stroke-miterlimit="1.45" shape-rendering="geometricPrecision" font-family="sans-serif" transform="matrix(1,0,0,1,452,875)" stroke-linecap="butt">
      <text x="754.3348" xml:space="preserve" y="341.1299" clip-path="url(#clipPath2)" stroke="none">spin 0.5.2</text>
    </g>
    <g fill="rgb(255,204,0)" text-rendering="geometricPrecision" shape-rendering="geometricPrecision" transform="matrix(1,0,0,1,452,875)" stroke="rgb(255,204,0)">
      <rect x="98.34" width="70.0449" height="21.4062" y="-279.4306" clip-path="url(#clipPath2)" stroke="none"/>
      <rect x="98.34" y="-279.4306" clip-path="url(#clipPath2)" fill="yellow" width="1" height="21.4062" stroke="none"/>
      <rect x="99.34" y="-279.4306" clip-path="url(#clipPath2)" fill="yellow" width="68.0449" height="1" stroke="none"/>
      <rect x="99.34" y="-259.0244" clip-path="url(#clipPath2)" fill="rgb(178,142,0)" width="69.0449" height="1" stroke="none"/>
      <rect x="167.3849" y="-279.4306" clip-path="url(#clipPath2)" fill="rgb(178,142,0)" width="1" height="20.4062" stroke="none"/>
    </g>
    <g text-rendering="geometricPrecision" stroke-miterlimit="1.45" shape-rendering="geometricPrecision" font-family="sans-serif" transform="matrix(1,0,0,1,452,875)" stroke-linecap="butt">
      <text x="102.34" xml:space="preserve" y="-264.5673" clip-path="url(#clipPath2)" stroke="none">syn 0.15.29</text>
    </g>
    <g fill="rgb(255,204,0)" text-rendering="geometricPrecision" shape-rendering="geometricPrecision" transform="matrix(1,0,0,1,452,875)" stroke="rgb(255,204,0)">
      <rect x="-130.0298" width="56.6973" height="21.4062" y="62.0013" clip-path="url(#clipPath2)" stroke="none"/>
      <rect x="-130.0298" y="62.0013" clip-path="url(#clipPath2)" fill="yellow" width="1" height="21.4062" stroke="none"/>
      <rect x="-129.0298" y="62.0013" clip-path="url(#clipPath2)" fill="yellow" width="54.6973" height="1" stroke="none"/>
      <rect x="-129.0298" y="82.4076" clip-path="url(#clipPath2)" fill="rgb(178,142,0)" width="55.6973" height="1" stroke="none"/>
      <rect x="-74.3326" y="62.0013" clip-path="url(#clipPath2)" fill="rgb(178,142,0)" width="1" height="20.4062" stroke="none"/>
    </g>
    <g text-rendering="geometricPrecision" stroke-miterlimit="1.45" shape-rendering="geometricPrecision" font-family="sans-serif" transform="matrix(1,0,0,1,452,875)" stroke-linecap="butt">
      <text x="-126.0298" xml:space="preserve" y="76.8646" clip-path="url(#clipPath2)" stroke="none">syn 1.0.5</text>
    </g>
    <g fill="rgb(255,204,0)" text-rendering="geometricPrecision" shape-rendering="geometricPrecision" transform="matrix(1,0,0,1,452,875)" stroke="rgb(255,204,0)">
      <rect x="85.5613" width="78.0371" height="21.4062" y="-0.4636" clip-path="url(#clipPath2)" stroke="none"/>
      <rect x="85.5613" y="-0.4636" clip-path="url(#clipPath2)" fill="yellow" width="1" height="21.4062" stroke="none"/>
      <rect x="86.5613" y="-0.4636" clip-path="url(#clipPath2)" fill="yellow" width="76.0371" height="1" stroke="none"/>
      <rect x="86.5613" y="19.9426" clip-path="url(#clipPath2)" fill="rgb(178,142,0)" width="77.0371" height="1" stroke="none"/>
      <rect x="162.5985" y="-0.4636" clip-path="url(#clipPath2)" fill="rgb(178,142,0)" width="1" height="20.4062" stroke="none"/>
    </g>
    <g text-rendering="geometricPrecision" stroke-miterlimit="1.45" shape-rendering="geometricPrecision" font-family="sans-serif" transform="matrix(1,0,0,1,452,875)" stroke-linecap="butt">
      <text x="89.5613" xml:space="preserve" y="14.3997" clip-path="url(#clipPath2)" stroke="none">tempdir 0.3.7</text>
    </g>
    <g fill="rgb(255,204,0)" text-rendering="geometricPrecision" shape-rendering="geometricPrecision" transform="matrix(1,0,0,1,452,875)" stroke="rgb(255,204,0)">
      <rect x="6.135" width="88.0332" height="21.4062" y="103.795" clip-path="url(#clipPath2)" stroke="none"/>
      <rect x="6.135" y="103.795" clip-path="url(#clipPath2)" fill="yellow" width="1" height="21.4062" stroke="none"/>
      <rect x="7.135" y="103.795" clip-path="url(#clipPath2)" fill="yellow" width="86.0332" height="1" stroke="none"/>
      <rect x="7.135" y="124.2012" clip-path="url(#clipPath2)" fill="rgb(178,142,0)" width="87.0332" height="1" stroke="none"/>
      <rect x="93.1682" y="103.795" clip-path="url(#clipPath2)" fill="rgb(178,142,0)" width="1" height="20.4062" stroke="none"/>
    </g>
    <g text-rendering="geometricPrecision" stroke-miterlimit="1.45" shape-rendering="geometricPrecision" font-family="sans-serif" transform="matrix(1,0,0,1,452,875)" stroke-linecap="butt">
      <text x="10.135" xml:space="preserve" y="118.6583" clip-path="url(#clipPath2)" stroke="none">termcolor 1.0.5</text>
    </g>
    <g fill="rgb(255,204,0)" text-rendering="geometricPrecision" shape-rendering="geometricPrecision" transform="matrix(1,0,0,1,452,875)" stroke="rgb(255,204,0)">
      <rect x="-289.8883" width="99.3945" height="21.4062" y="-190.4482" clip-path="url(#clipPath2)" stroke="none"/>
      <rect x="-289.8883" y="-190.4482" clip-path="url(#clipPath2)" fill="yellow" width="1" height="21.4062" stroke="none"/>
      <rect x="-288.8883" y="-190.4482" clip-path="url(#clipPath2)" fill="yellow" width="97.3945" height="1" stroke="none"/>
      <rect x="-288.8883" y="-170.0419" clip-path="url(#clipPath2)" fill="rgb(178,142,0)" width="98.3945" height="1" stroke="none"/>
      <rect x="-191.4937" y="-190.4482" clip-path="url(#clipPath2)" fill="rgb(178,142,0)" width="1" height="20.4062" stroke="none"/>
    </g>
    <g text-rendering="geometricPrecision" stroke-miterlimit="1.45" shape-rendering="geometricPrecision" font-family="sans-serif" transform="matrix(1,0,0,1,452,875)" stroke-linecap="butt">
      <text x="-285.8883" xml:space="preserve" y="-175.5849" clip-path="url(#clipPath2)" stroke="none">unicode-xid 0.1.0</text>
    </g>
    <g fill="rgb(255,204,0)" text-rendering="geometricPrecision" shape-rendering="geometricPrecision" transform="matrix(1,0,0,1,452,875)" stroke="rgb(255,204,0)">
      <rect x="-131.6387" width="99.3945" height="21.4062" y="277.8893" clip-path="url(#clipPath2)" stroke="none"/>
      <rect x="-131.6387" y="277.8893" clip-path="url(#clipPath2)" fill="yellow" width="1" height="21.4062" stroke="none"/>
      <rect x="-130.6387" y="277.8893" clip-path="url(#clipPath2)" fill="yellow" width="97.3945" height="1" stroke="none"/>
      <rect x="-130.6387" y="298.2956" clip-path="url(#clipPath2)" fill="rgb(178,142,0)" width="98.3945" height="1" stroke="none"/>
      <rect x="-33.2442" y="277.8893" clip-path="url(#clipPath2)" fill="rgb(178,142,0)" width="1" height="20.4062" stroke="none"/>
    </g>
    <g text-rendering="geometricPrecision" stroke-miterlimit="1.45" shape-rendering="geometricPrecision" font-family="sans-serif" transform="matrix(1,0,0,1,452,875)" stroke-linecap="butt">
      <text x="-127.6387" xml:space="preserve" y="292.7526" clip-path="url(#clipPath2)" stroke="none">unicode-xid 0.2.0</text>
    </g>
  </g>
</svg>
