<?xml version="1.0" encoding="UTF-8"?><svg xmlns="http://www.w3.org/2000/svg" xmlns:xlink="http://www.w3.org/1999/xlink" fill-opacity="1" color-rendering="auto" color-interpolation="auto" text-rendering="auto" stroke="black" stroke-linecap="square" width="1100" stroke-miterlimit="10" shape-rendering="auto" stroke-opacity="1" fill="black" stroke-dasharray="none" font-weight="normal" stroke-width="1" height="789" font-family="'Dialog'" font-style="normal" stroke-linejoin="miter" font-size="12px" stroke-dashoffset="0" image-rendering="auto">
  <!--Generated by ySVG 2.5-->
  <defs id="genericDefs"/>
  <g>
    <defs id="defs1">
      <clipPath clipPathUnits="userSpaceOnUse" id="clipPath1">
        <path d="M0 0 L1100 0 L1100 789 L0 789 L0 0 Z"/>
      </clipPath>
      <clipPath clipPathUnits="userSpaceOnUse" id="clipPath2">
        <path d="M-585 -339 L515 -339 L515 450 L-585 450 L-585 -339 Z"/>
      </clipPath>
    </defs>
    <g fill="white" text-rendering="geometricPrecision" shape-rendering="geometricPrecision" transform="translate(585,339)" stroke="white">
      <rect x="-585" width="1100" height="789" y="-339" clip-path="url(#clipPath2)" stroke="none"/>
    </g>
    <g text-rendering="geometricPrecision" stroke-miterlimit="1.45" stroke-dasharray="6,2" shape-rendering="geometricPrecision" transform="matrix(1,0,0,1,585,339)" stroke-linecap="butt">
      <path fill="none" d="M-72.3462 -144.9069 L-147.4138 -295.2646" clip-path="url(#clipPath2)"/>
      <path d="M-150.9873 -302.4221 L-150.1005 -289.4524 L-146.9671 -294.3699 L-141.1536 -293.9192 Z" clip-path="url(#clipPath2)" stroke="none"/>
      <text x="-135.2505" y="-277.4507" clip-path="url(#clipPath2)" font-family="sans-serif" stroke-dasharray="none" stroke="none" xml:space="preserve">weak:test</text>
      <path fill="none" stroke-dasharray="none" d="M421.9329 -278.5029 L315.8127 -208.4567" stroke-width="2" clip-path="url(#clipPath2)"/>
      <path stroke-dasharray="none" d="M308.3015 -203.4988 L322.6671 -206.2412 L316.7516 -209.0765 L316.4697 -215.6302 Z" stroke-width="2" clip-path="url(#clipPath2)" stroke="none"/>
      <text x="409.1365" y="-287.0516" clip-path="url(#clipPath2)" font-family="sans-serif" stroke-dasharray="none" stroke="none" xml:space="preserve">feature:default</text>
      <path fill="none" stroke-dasharray="none" d="M407.4107 -278.5029 L301.2905 -208.4567" stroke-width="2" clip-path="url(#clipPath2)"/>
      <path stroke-dasharray="none" d="M293.7793 -203.4988 L308.1449 -206.2412 L302.2294 -209.0765 L301.9474 -215.6302 Z" stroke-width="2" clip-path="url(#clipPath2)" stroke="none"/>
      <text x="409.1365" y="-287.0516" clip-path="url(#clipPath2)" font-family="sans-serif" stroke-dasharray="none" stroke="none" xml:space="preserve">weak:feature:std</text>
      <path fill="none" stroke-dasharray="none" d="M436.4551 -278.5029 L330.335 -208.4567" stroke-width="2" clip-path="url(#clipPath2)"/>
      <path stroke-dasharray="none" d="M322.8237 -203.4988 L337.1893 -206.2412 L331.2739 -209.0765 L330.9919 -215.6302 Z" stroke-width="2" clip-path="url(#clipPath2)" stroke="none"/>
      <text x="409.1365" y="-287.0516" clip-path="url(#clipPath2)" font-family="sans-serif" stroke-dasharray="none" stroke="none" xml:space="preserve">weak:optional</text>
      <path fill="none" stroke-dasharray="none" d="M-304.7542 83.965 L-295.861 85.7131 L-277.7932 88.7912 L-277.7932 88.7912 L-259.4874 90.976 L-259.4874 90.976 L-241.2877 92.2139 L-241.2877 92.2139 L-223.2326 92.513 L-223.2326 92.513 L-205.3601 91.8826 L-205.3601 91.8826 L-187.7079 90.3334 L-187.7079 90.3334 L-177.0034 89.0042 L-175.0654 88.6778" stroke-width="2" clip-path="url(#clipPath2)"/>
      <path stroke-dasharray="none" d="M-175.0654 88.6778 L-189.3121 85.3727 L-185.0498 90.3592 L-187.4439 96.4665 Z" stroke-width="2" clip-path="url(#clipPath2)" stroke="none"/>
    </g>
    <g stroke-linecap="butt" transform="matrix(1,0,0,1,585,339)" fill="rgb(191,4,4)" text-rendering="geometricPrecision" shape-rendering="geometricPrecision" stroke="rgb(191,4,4)" stroke-width="2" stroke-miterlimit="1.45">
      <path fill="none" d="M-71.4921 335.2314 L-71.754 334.9796 L-78.7391 327.3252 L-79.4415 326.5519 L-92.3678 311.3058 L-92.7121 310.8703 L-104.562 294.7736 L-104.6026 294.7141 L-115.2033 278.0077 L-115.2033 278.0077 L-124.3955 260.9814 L-124.3955 260.9814 L-132.1582 243.7666 L-132.1582 243.7666 L-138.4972 226.4639 L-138.4972 226.4639 L-143.4246 209.1729 L-143.4246 209.1729 L-146.9591 191.9918 L-146.9591 191.9918 L-149.1254 175.0168 L-149.1254 175.0168 L-149.9545 158.3418 L-149.9545 158.3418 L-149.483 142.0582 L-149.483 142.0582 L-147.7536 126.2545 L-147.7536 126.2545 L-144.8141 111.016 L-144.8141 111.016 L-140.7182 96.4243 L-140.7182 96.4243 L-138.247 88.9681 L-138.1061 88.6362" clip-path="url(#clipPath2)"/>
      <path d="M-138.1061 88.6362 L-148.5608 98.8631 L-142.064 97.9555 L-138.2059 103.2608 Z" clip-path="url(#clipPath2)" stroke="none"/>
      <path fill="none" d="M-265.5782 206.161 L-263.5244 203.7447 L-254.8142 193.8657 L-254.5643 193.5855 L-241.0748 178.8215 L-240.8491 178.5804 L-227.0099 164.1436 L-226.8081 163.9382 L-212.6264 149.8378 L-212.4481 149.6647 L-197.9314 135.9093 L-197.7759 135.7655 L-182.9321 122.3638 L-182.7985 122.2461 L-167.6356 109.2065 L-167.5228 109.1118 L-152.0493 96.4425 L-151.9561 96.368 L-143.1897 89.4027 L-142.2366 88.6785" clip-path="url(#clipPath2)" stroke="rgb(0,158,255)"/>
      <path fill="rgb(0,158,255)" d="M-142.2366 88.6785 L-156.3887 92.3675 L-150.2983 94.8043 L-149.5823 101.3249 Z" clip-path="url(#clipPath2)" stroke="none"/>
      <path fill="none" d="M-156.1687 304.1737 L-157.4836 299.9779 L-161.1436 286.2636 L-161.1436 286.2636 L-165.1943 267.2922 L-165.1943 267.2922 L-167.9761 248.4883 L-167.9761 248.4883 L-169.5103 229.9235 L-169.5103 229.9235 L-169.8219 211.6678 L-169.8219 211.6678 L-168.9394 193.7894 L-168.9394 193.7894 L-166.895 176.3548 L-166.895 176.3548 L-163.7242 159.4286 L-163.7242 159.4286 L-159.4659 143.0728 L-159.4659 143.0728 L-154.162 127.3476 L-154.162 127.3476 L-147.8575 112.3101 L-147.8575 112.3101 L-144.126 104.9598 M-140.6005 98.0153 L-140.6005 98.0153 L-140.6005 98.0153 L-135.9593 89.8713 L-135.1786 88.6824" clip-path="url(#clipPath2)" stroke="black"/>
      <path fill="black" d="M-135.1786 88.6824 L-147.2908 96.879 L-140.7364 97.1456 L-137.8873 103.0544 Z" clip-path="url(#clipPath2)" stroke="none"/>
      <path fill="none" d="M234.3929 221.1107 L232.5697 220.5971 L221.8971 217.1452 L221.8971 217.1452 L204.4257 210.892 L204.4257 210.892 L187.4225 203.8954 L187.4225 203.8954 L170.914 196.1755 L170.914 196.1755 L154.926 187.7528 L154.926 187.7528 L139.4836 178.6491 L139.4836 178.6491 L124.6112 168.8867 L124.6112 168.8867 L110.3323 158.489 L110.3323 158.489 L96.6697 147.4799 L96.6697 147.4799 L87.4637 139.4569 L84.9321 137.0883" clip-path="url(#clipPath2)" stroke="black"/>
      <path fill="black" d="M84.9321 137.0883 L90.9469 150.4192 L92.3255 144.0059 L98.6331 142.2042 Z" clip-path="url(#clipPath2)" stroke="none"/>
    </g>
    <g text-rendering="geometricPrecision" stroke-miterlimit="1.45" stroke-dasharray="6,2" shape-rendering="geometricPrecision" transform="matrix(1,0,0,1,585,339)" stroke-linecap="butt">
      <path fill="none" d="M-127.2554 88.6691 L-128.136 90.7423 L-131.2149 99.5368 L-131.2149 99.5368 L-135.0835 113.3211 L-135.0835 113.3211 L-137.8663 127.7516 L-137.8663 127.7516 L-139.5071 142.7522 L-139.5071 142.7522 L-139.955 158.2429 L-139.955 158.2429 L-139.164 174.1396 L-139.164 174.1396 L-137.094 190.3548 L-137.094 190.3548 L-133.7108 206.7979 L-133.7108 206.7979 L-128.9859 223.3758 L-128.9859 223.3758 L-122.8976 239.9929 L-122.8976 239.9929 L-115.4301 256.5518 L-115.4301 256.5518 L-106.5744 272.9538 L-106.5744 272.9538 L-96.3279 289.0989 L-96.3279 289.0989 L-84.695 304.8867 L-84.695 304.8867 L-71.8095 320.0813 L-71.5634 320.3522 L-63.8363 328.7202 L-62.8326 329.6858" clip-path="url(#clipPath2)"/>
      <path d="M-57.0671 335.2319 L-62.249 323.3093 L-63.5533 328.9925 L-69.1816 330.5162 Z" clip-path="url(#clipPath2)" stroke="none"/>
      <text x="-191.87" y="133.9117" clip-path="url(#clipPath2)" font-family="sans-serif" stroke-dasharray="none" stroke="none" xml:space="preserve">weak:test</text>
    </g>
    <g stroke-linecap="butt" transform="matrix(1,0,0,1,585,339)" fill="rgb(0,158,255)" text-rendering="geometricPrecision" shape-rendering="geometricPrecision" stroke="rgb(0,158,255)" stroke-width="2" stroke-miterlimit="1.45">
      <path fill="none" d="M-284.9162 227.5801 L-288.2487 233.3087 L-293.6661 246.4204 L-293.6661 246.4204 L-296.1028 262.2363 L-296.1028 262.2363 L-294.8933 279.8983 L-294.8933 279.8983 L-289.8638 298.5068 L-289.6379 299.1176 L-281.174 317.1596 L-279.942 319.2959 L-268.662 335.7372 L-266.1552 338.84 L-252.5052 353.3822 L-248.7616 356.8198 L-233.1355 369.2196 L-228.466 372.4057 L-211.228 382.4467 L-206.1529 384.9367 L-187.6583 392.4118 L-182.8214 393.9724 L-163.438 398.6718 L-159.5024 399.3216 L-139.6362 401.0226 L-137.1703 401.0403 L-117.301 399.5021 L-116.6583 399.3972 L-97.9906 394.5921 L-97.9906 394.5921 L-82.0307 386.9312 L-82.0307 386.9312 L-69.4754 377.0092 L-69.4754 377.0092 L-60.4827 365.3827 L-60.4827 365.3827 L-56.5223 357.929 L-56.1609 356.646" clip-path="url(#clipPath2)"/>
      <path d="M-56.1609 356.646 L-65.2351 368.1155 L-58.9058 366.3918 L-54.4064 371.1653 Z" clip-path="url(#clipPath2)" stroke="none"/>
      <path fill="none" d="M-151.5818 325.5774 L-153.8658 331.4998 L-157.8819 347.2711 L-158.0163 348.0353 L-159.1561 357.8114 L-159.1113 367.442 L-159.1113 367.442 L-157.8686 376.6503 L-155.4147 385.1594 L-155.4147 385.1594 L-151.8319 392.8107 L-147.2026 399.4455 L-147.2026 399.4455 L-147.2026 399.4455 M-142.6316 403.9861 L-141.6651 404.9462 L-135.3575 409.1952 L-135.3575 409.1952 L-128.4465 412.1177 L-121.0989 413.6392 L-121.0989 413.6392 L-113.4942 413.7264 L-105.812 412.3459 L-105.812 412.3459 L-98.2328 409.5161 L-90.9373 405.2553 L-90.9373 405.2553 L-84.0834 399.6472 L-77.8291 392.7756 L-77.8291 392.7756 L-72.3205 384.8759 L-67.7041 376.1833 L-67.3805 375.4781 L-67.3805 375.4781 M-64.0835 368.1177 L-63.0954 365.9119 L-62.9805 365.4346" clip-path="url(#clipPath2)" stroke="black"/>
      <path fill="black" d="M-60.8745 356.6845 L-69.5023 368.4934 L-63.2437 366.5284 L-58.5647 371.1259 Z" clip-path="url(#clipPath2)" stroke="none"/>
    </g>
    <g text-rendering="geometricPrecision" stroke-miterlimit="1.45" shape-rendering="geometricPrecision" font-family="sans-serif" transform="matrix(1,0,0,1,585,339)" stroke-linecap="butt">
      <text x="-237.7049" xml:space="preserve" y="342.2241" clip-path="url(#clipPath2)" stroke="none">feature:default</text>
      <path fill="none" d="M-173.0152 325.5714 L-174.2628 328.8065 L-177.2425 341.8903 L-178.1328 346.9527 L-179.2656 356.8338 L-179.1998 366.7794 L-178.8993 371.2884 L-177.5227 381.1126 L-174.7233 390.6296 L-173.3857 394.1969 L-173.3857 394.1969 M-170.1345 401.0452 L-169.1434 403.1328 L-163.4383 411.2135 L-161.3482 413.6988 L-154.3224 420.6289 L-146.1177 426.1127 L-143.5239 427.5168 L-134.4429 431.3571 L-124.7882 433.3563 L-121.856 433.6745 L-111.9885 433.8233 L-102.2694 432.1121 L-99.1374 431.2545 L-89.8514 427.846 L-81.2833 422.9028 L-78.1559 420.7272 L-70.445 414.486 L-63.7305 407.1836 L-60.9213 403.6438 L-55.2165 395.4967 L-50.5347 386.7218 L-48.3912 382.05 L-43.3083 369.1696 L-42.3958 365.3781" stroke-width="2" clip-path="url(#clipPath2)"/>
      <path d="M-40.2898 356.6279 L-48.9176 368.4369 L-42.659 366.4718 L-37.9799 371.0694 Z" stroke-width="2" clip-path="url(#clipPath2)" stroke="none"/>
      <text x="-290.7163" xml:space="preserve" y="398.5734" clip-path="url(#clipPath2)" stroke="none">weak:feature:printing</text>
      <path fill="none" d="M-162.3157 325.619 L-164.0729 330.1754 L-167.5622 344.5807 L-168.0745 347.494 L-169.2074 357.3751 L-169.1416 367.3207 L-169.0193 369.1552 L-167.6428 378.9794 L-164.8433 388.4964 L-164.6259 389.0762 L-160.4134 397.9765 L-160.4134 397.9765 M-156.5851 403.413 L-154.7979 405.9508 L-154.7979 405.9508 L-147.9622 412.72 L-140.0891 418.005 L-140.0891 418.005 L-131.4236 421.6695 L-122.2105 423.5773 L-122.2105 423.5773 L-112.7289 423.7014 L-103.2577 422.0146 L-103.2577 422.0146 L-94.1059 418.6429 L-85.5826 413.7119 L-85.0743 413.3584 L-77.3634 407.1172 L-70.6489 399.8147 L-69.5061 398.3746 L-63.8012 390.2275 L-59.1194 381.4525 L-57.8858 378.764 L-53.201 367.5373 L-52.6865 365.3995" stroke-width="2" clip-path="url(#clipPath2)"/>
      <path d="M-50.5805 356.6494 L-59.2083 368.4584 L-52.9497 366.4933 L-48.2707 371.0909 Z" stroke-width="2" clip-path="url(#clipPath2)" stroke="none"/>
      <text x="-49.1509" xml:space="preserve" y="373.8825" clip-path="url(#clipPath2)" stroke="none">weak:feature:proc-macro</text>
      <path fill="none" d="M-140.8717 325.5975 L-143.6705 332.855 L-148.0798 349.2691 L-148.0798 349.2691 L-149.1505 358.1915 L-149.1422 366.6461 L-149.1422 366.6461 L-148.1064 374.4779 L-146.0948 381.5324 L-146.0948 381.5324 L-143.2232 387.7172 L-139.6073 392.9402 L-139.6073 392.9402 L-135.3679 397.1725 L-130.6258 400.3854 L-130.6258 400.3854 L-130.6258 400.3854 M-125.7243 402.4582 L-125.4695 402.5659 L-119.9874 403.7011 L-119.9874 403.7011 L-114.2596 403.7514 L-108.3663 402.6772 L-108.3663 402.6772 L-102.4232 400.4335 L-96.5462 396.9754 L-96.5462 396.9754 L-90.8828 392.313 L-90.8828 392.313 M-85.7132 386.603 L-85.5806 386.4565 L-85.5806 386.4565 L-80.7702 379.5039 L-76.582 371.5531 L-76.582 371.5531 L-71.9264 359.8686 L-71.1479 356.634" stroke-width="2" clip-path="url(#clipPath2)"/>
      <path d="M-71.1479 356.634 L-79.7757 368.443 L-73.5172 366.4779 L-68.8381 371.0754 Z" stroke-width="2" clip-path="url(#clipPath2)" stroke="none"/>
      <text x="-82.0352" xml:space="preserve" y="403.1356" clip-path="url(#clipPath2)" stroke="none">weak:optional</text>
    </g>
    <g stroke-linecap="butt" transform="matrix(1,0,0,1,585,339)" fill="rgb(191,4,4)" text-rendering="geometricPrecision" shape-rendering="geometricPrecision" stroke-dasharray="6,2" stroke="rgb(191,4,4)" stroke-miterlimit="1.45">
      <path fill="none" d="M99.8654 137.0811 L104.7432 141.2134 L116.4153 150.5519 L116.4153 150.5519 L130.3006 160.663 L130.3006 160.663 L144.7689 170.16 L144.7689 170.16 L159.7979 179.0199 L159.7979 179.0199 L175.3646 187.2205 L175.3646 187.2205 L191.4452 194.7403 L191.4452 194.7403 L208.0152 201.5584 L208.0152 201.5584 L225.0493 207.6551 L225.0493 207.6551 L235.8563 211.1337 L238.0334 211.7469" clip-path="url(#clipPath2)"/>
      <path d="M245.7338 213.9158 L235.5387 205.8498 L237.0708 211.4758 L232.8277 215.4753 Z" clip-path="url(#clipPath2)" stroke="none"/>
    </g>
    <g text-rendering="geometricPrecision" stroke-miterlimit="1.45" shape-rendering="geometricPrecision" font-family="sans-serif" transform="matrix(1,0,0,1,585,339)" stroke-linecap="butt">
      <text x="141.9448" xml:space="preserve" y="208.4192" clip-path="url(#clipPath2)" stroke="none">weak:test</text>
    </g>
    <g stroke-linecap="butt" transform="matrix(1,0,0,1,585,339)" fill="rgb(191,4,4)" text-rendering="geometricPrecision" shape-rendering="geometricPrecision" stroke="rgb(191,4,4)" stroke-width="2" stroke-miterlimit="1.45">
      <path fill="none" d="M321.9286 104.3434 L320.819 100.8255 L316.1704 88.1905 L316.1704 88.1905 L308.5997 70.4156 L308.5997 70.4156 L300.0803 53.5847 L300.0803 53.5847 L290.6862 37.7468 L290.6862 37.7468 L280.4941 22.9454 L280.4941 22.9454 L269.5827 9.2193 L269.5827 9.2193 L258.0325 -3.3984 L258.0325 -3.3984 L245.9255 -14.8795 L245.9255 -14.8795 L233.3449 -25.2015 L233.3449 -25.2015 L220.3746 -34.3472 L220.3746 -34.3472 L207.099 -42.3051 L207.099 -42.3051 L193.6027 -49.0689 L193.6027 -49.0689 L179.9698 -54.6379 L179.9698 -54.6379 L169.239 -58.1999 L165.3481 -59.2758" clip-path="url(#clipPath2)"/>
      <path d="M165.3481 -59.2758 L176.8607 -50.2563 L175.1069 -56.5773 L179.859 -61.0994 Z" clip-path="url(#clipPath2)" stroke="none"/>
    </g>
    <g text-rendering="geometricPrecision" stroke-miterlimit="1.45" shape-rendering="geometricPrecision" font-family="sans-serif" transform="matrix(1,0,0,1,585,339)" stroke-linecap="butt">
      <text x="306.8592" xml:space="preserve" y="59.7449" clip-path="url(#clipPath2)" stroke="none">weak:feature:rustc-dep-of-std</text>
    </g>
    <g stroke-linecap="butt" transform="matrix(1,0,0,1,585,339)" fill="rgb(191,4,4)" text-rendering="geometricPrecision" shape-rendering="geometricPrecision" stroke="rgb(191,4,4)" stroke-width="2" stroke-miterlimit="1.45">
      <path fill="none" d="M332.4056 104.3163 L330.7773 99.1535 L325.5303 84.6685 L325.4537 84.4714 L317.6641 66.1923 L317.6641 66.1923 L308.8447 48.7697 L308.8447 48.7697 L299.1073 32.3538 L299.1073 32.3538 L288.5284 16.9915 L288.5284 16.9915 L277.1866 2.7246 L277.1866 2.7246 L265.1625 -10.41 L265.1625 -10.41 L252.5384 -22.3808 L252.5384 -22.3808 L239.3981 -33.1613 L239.3981 -33.1613 L225.8265 -42.7304 L225.8265 -42.7304 L211.9092 -51.0722 L211.9092 -51.0722 L204.1877 -55.2466 L203.5005 -55.5584" clip-path="url(#clipPath2)"/>
      <path d="M195.3051 -59.278 L205.2735 -48.5765 L204.5249 -55.0935 L209.923 -58.8208 Z" clip-path="url(#clipPath2)" stroke="none"/>
    </g>
    <g text-rendering="geometricPrecision" stroke-miterlimit="1.45" shape-rendering="geometricPrecision" font-family="sans-serif" transform="matrix(1,0,0,1,585,339)" stroke-linecap="butt">
      <text x="334.0886" xml:space="preserve" y="100.768" clip-path="url(#clipPath2)" stroke="none">weak:optional</text>
      <path fill="none" d="M287.8242 -182.0907 L283.3382 -177.9722 L271.3418 -167.2511 L269.392 -165.537 L254.2308 -152.4951 L252.2719 -150.8464 L236.8328 -138.1347 L234.8645 -136.5495 L219.1543 -124.1744 L217.1766 -122.6508 L201.2023 -110.6186 L199.2146 -109.1548 L182.9834 -97.4715 L180.9852 -96.0658 L169.3623 -87.9994 L165.9184 -85.6868" stroke-width="2" clip-path="url(#clipPath2)"/>
      <path d="M158.4467 -80.6694 L172.7901 -83.5256 L166.8524 -86.3139 L166.5184 -92.8652 Z" stroke-width="2" clip-path="url(#clipPath2)" stroke="none"/>
      <text x="1.3946" xml:space="preserve" y="-83.8961" clip-path="url(#clipPath2)" stroke="none">weak:feature:rustc-dep-of-std</text>
      <path fill="none" d="M273.075 -182.1251 L272.6218 -181.7091 L264.6583 -174.6903 L262.8703 -173.1185 L247.7091 -160.0766 L245.9153 -158.5668 L230.4762 -145.8551 L228.6762 -144.4055 L212.9661 -132.0304 L211.1597 -130.6389 L195.1854 -118.6066 L193.3722 -117.2714 L177.141 -105.588 L175.3203 -104.3072 L158.8395 -92.9786 L157.0105 -91.7505 L148.2115 -85.8572 L147.7142 -85.5387" stroke-width="2" clip-path="url(#clipPath2)"/>
      <path d="M140.1353 -80.6849 L154.5374 -83.2289 L148.6616 -86.1455 L148.47 -92.7025 Z" stroke-width="2" clip-path="url(#clipPath2)" stroke="none"/>
      <text x="159.0885" xml:space="preserve" y="-155.1616" clip-path="url(#clipPath2)" stroke="none">weak:optional</text>
    </g>
    <g stroke-linecap="butt" transform="matrix(1,0,0,1,585,339)" fill="rgb(0,158,255)" text-rendering="geometricPrecision" shape-rendering="geometricPrecision" stroke-dasharray="6,2" stroke="rgb(0,158,255)" stroke-miterlimit="1.45">
      <path fill="none" d="M-263.9386 227.5741 L-268.5995 233.8957 L-278.3591 247.5091 L-278.3591 247.5091 L-288.39 262.2447 L-288.39 262.2447 L-292.6523 268.8555 M-298.0712 277.26 L-298.0848 277.2811 L-298.0848 277.2811 L-307.4374 292.6123 L-307.4374 292.6123 L-316.4419 308.2319 L-316.4419 308.2319 L-325.0923 324.1335 L-325.0923 324.1335 L-333.3829 340.3107 L-333.3829 340.3107 L-341.3079 356.7568 L-341.3079 356.7568 L-345.244 365.1966 L-345.3098 365.3469" clip-path="url(#clipPath2)"/>
      <path d="M-345.3098 365.3469 L-335.9202 356.356 L-341.7033 357.101 L-345.0822 352.3489 Z" clip-path="url(#clipPath2)" stroke="none"/>
    </g>
    <g text-rendering="geometricPrecision" stroke-miterlimit="1.45" shape-rendering="geometricPrecision" font-family="sans-serif" transform="matrix(1,0,0,1,585,339)" stroke-linecap="butt">
      <text x="-346.846" xml:space="preserve" y="268.4048" clip-path="url(#clipPath2)" stroke="none">weak:test</text>
    </g>
    <g stroke-linecap="butt" transform="matrix(1,0,0,1,585,339)" fill="rgb(191,4,4)" text-rendering="geometricPrecision" shape-rendering="geometricPrecision" stroke="rgb(191,4,4)" stroke-width="2" stroke-miterlimit="1.45">
      <path fill="none" d="M-367.1342 365.3331 L-365.2688 361.0696 L-359.4297 348.2952 L-359.4297 348.2952 L-351.292 331.4077 L-351.292 331.4077 L-342.7772 314.7929 L-342.7772 314.7929 L-333.8908 298.4577 L-333.8908 298.4577 L-324.6389 282.4089 L-324.6389 282.4089 L-315.0272 266.6532 L-315.0272 266.6532 L-305.062 251.1974 L-305.062 251.1974 L-294.7495 236.048 L-294.7495 236.048 L-289.1461 228.061 L-288.7851 227.5714" clip-path="url(#clipPath2)"/>
      <path d="M-288.7851 227.5714 L-301.3239 235.0993 L-294.7935 235.7209 L-292.2689 241.7754 Z" clip-path="url(#clipPath2)" stroke="none"/>
    </g>
    <g text-rendering="geometricPrecision" stroke-miterlimit="1.45" shape-rendering="geometricPrecision" font-family="sans-serif" transform="matrix(1,0,0,1,585,339)" stroke-linecap="butt">
      <text x="-346.9658" xml:space="preserve" y="335.5679" clip-path="url(#clipPath2)" stroke="none">weak:feature:derive</text>
    </g>
    <g stroke-linecap="butt" transform="matrix(1,0,0,1,585,339)" fill="rgb(191,4,4)" text-rendering="geometricPrecision" shape-rendering="geometricPrecision" stroke="rgb(191,4,4)" stroke-width="2" stroke-miterlimit="1.45">
      <path fill="none" d="M-356.215 365.3242 L-355.2529 363.1252 L-350.3688 352.526 L-350.3688 352.526 L-342.3375 335.8593 L-342.3375 335.8593 L-333.9348 319.4632 L-333.9348 319.4632 L-325.1664 303.3448 L-325.1664 303.3448 L-316.0381 287.5106 L-316.0381 287.5106 L-306.556 271.9672 L-306.556 271.9672 L-296.726 256.7211 L-296.726 256.7211 L-296.726 256.7211 M-292.0086 249.7911 L-286.5543 241.7785 L-286.5543 241.7785 L-278.8772 230.9843 L-276.3706 227.5845" clip-path="url(#clipPath2)"/>
      <path d="M-276.3706 227.5845 L-288.9095 235.1123 L-282.3792 235.7339 L-279.8546 241.7885 Z" clip-path="url(#clipPath2)" stroke="none"/>
    </g>
    <g text-rendering="geometricPrecision" stroke-miterlimit="1.45" shape-rendering="geometricPrecision" font-family="sans-serif" transform="matrix(1,0,0,1,585,339)" stroke-linecap="butt">
      <text x="-343.2043" xml:space="preserve" y="352.3283" clip-path="url(#clipPath2)" stroke="none">weak:optional</text>
    </g>
    <g stroke-linecap="butt" transform="matrix(1,0,0,1,585,339)" fill="rgb(191,4,4)" text-rendering="geometricPrecision" shape-rendering="geometricPrecision" stroke-dasharray="6,2" stroke="rgb(191,4,4)" stroke-miterlimit="1.45">
      <path fill="none" d="M-378.0437 365.3202 L-375.2799 359.0031 L-368.4906 344.0643 L-368.4906 344.0643 L-360.2466 326.9563 L-360.2466 326.9563 L-351.6196 310.1226 L-351.6196 310.1226 L-342.6153 293.5706 L-342.6153 293.5706 L-333.2396 277.3071 L-333.2396 277.3071 L-323.4985 261.3393 L-323.4985 261.3393 L-313.3981 245.6738 L-313.3981 245.6738 L-306.9494 236.0448 L-305.6399 234.1721" clip-path="url(#clipPath2)"/>
      <path d="M-301.0556 227.6159 L-312.0297 234.585 L-306.213 234.9916 L-303.8344 240.3154 Z" clip-path="url(#clipPath2)" stroke="none"/>
    </g>
    <g text-rendering="geometricPrecision" stroke-miterlimit="1.45" shape-rendering="geometricPrecision" font-family="sans-serif" transform="matrix(1,0,0,1,585,339)" stroke-linecap="butt">
      <text x="-353.9203" xml:space="preserve" y="329.1164" clip-path="url(#clipPath2)" stroke="none">weak:test</text>
      <path fill="none" d="M-414.869 260.1568 L-405.8959 258.2469 L-387.8812 254.1699 L-387.8812 254.1699 L-369.8948 249.6152 L-369.8948 249.6152 L-352.106 244.6212 L-352.106 244.6212 L-334.5231 239.1925 L-334.5231 239.1925 L-317.1549 233.3339 L-317.1549 233.3339 L-304.9828 228.9466 L-301.4401 227.5956" stroke-width="2" clip-path="url(#clipPath2)"/>
      <path d="M-301.4401 227.5956 L-316.0583 227.1502 L-310.9005 231.2034 L-312.0497 237.6618 Z" stroke-width="2" clip-path="url(#clipPath2)" stroke="none"/>
      <text x="-335.2915" xml:space="preserve" y="255.7753" clip-path="url(#clipPath2)" stroke="none">weak:feature:derive</text>
      <path fill="none" d="M-414.9004 265.2573 L-414.5559 265.1931 L-405.0154 263.1714 L-405.0154 263.1714 L-386.7157 259.0322 L-386.7157 259.0322 L-368.6052 254.446 L-368.6052 254.446 L-350.6925 249.4172 L-350.6925 249.4172 L-332.9863 243.9505 L-332.9863 243.9505 L-315.4953 238.0504 L-315.4953 238.0504 L-310.5849 236.2508 M-301.1957 232.8096 L-298.228 231.7219 L-298.228 231.7219 L-293.9736 230.0854 M-288.5951 228.0165 L-288.5951 228.0165 L-287.5389 227.5818" stroke-width="2" clip-path="url(#clipPath2)"/>
      <path d="M-287.5389 227.5818 L-302.1638 227.518 L-296.902 231.4352 L-297.8822 237.9214 Z" stroke-width="2" clip-path="url(#clipPath2)" stroke="none"/>
      <text x="-437.4815" xml:space="preserve" y="285.3708" clip-path="url(#clipPath2)" stroke="none">weak:optional</text>
      <path fill="none" stroke-dasharray="6,2" d="M-419.4963 255.9418 L-417.8326 255.6316 L-407.0975 253.3906 L-407.0975 253.3906 L-389.0467 249.3076 L-389.0467 249.3076 L-371.1845 244.7843 L-371.1845 244.7843 L-353.5194 239.8251 L-353.5194 239.8251 L-336.06 234.4345 L-336.06 234.4345 L-325.416 230.94 L-323.4492 230.248" clip-path="url(#clipPath2)"/>
      <path stroke-dasharray="6,2" d="M-315.9027 227.5928 L-328.882 226.8591 L-324.3925 230.5799 L-325.5629 236.2922 Z" clip-path="url(#clipPath2)" stroke="none"/>
      <text x="-380.8642" xml:space="preserve" y="260.7466" clip-path="url(#clipPath2)" stroke="none">weak:test</text>
    </g>
    <g stroke-linecap="butt" transform="matrix(1,0,0,1,585,339)" fill="rgb(0,158,255)" text-rendering="geometricPrecision" shape-rendering="geometricPrecision" stroke="rgb(0,158,255)" stroke-width="2" stroke-miterlimit="1.45">
      <path fill="none" d="M-285.9201 227.5818 L-286.5139 228.1476 L-291.983 235.7401 L-291.983 235.7401 L-300.0532 250.7399 L-300.0532 250.7399 L-302.7587 258.8797 L-304.4855 267.3528 L-304.4855 267.3528 L-304.4855 267.3528 M-305.0197 273.9414 L-305.1916 276.0624 L-304.835 284.9119 L-304.835 284.9119 L-304.835 284.9119 M-303.6042 292.5665 L-303.4086 293.7834 L-300.9054 302.5593 L-300.9054 302.5593 L-297.3577 311.1113 L-292.7978 319.3113 L-292.7978 319.3113 L-287.2973 327.034 L-280.9277 334.1541 L-280.9277 334.1541 L-273.7943 340.5633 L-266.0022 346.1534 L-266.0022 346.1534 L-257.6799 350.8447 L-257.6295 350.8661 M-248.9559 354.5577 L-248.9559 354.5577 L-248.9559 354.5577 L-239.9678 357.2496 L-230.8534 358.8773 L-230.8534 358.8773 L-221.7446 359.4368 L-212.7738 358.924 L-212.7738 358.924 L-204.0544 357.3712 L-195.6997 354.8106 L-195.6997 354.8106 L-187.7954 351.3039 L-180.4269 346.9129 L-180.4269 346.9129 L-180.4269 346.9129 M-173.9245 341.3226 L-167.511 335.8088 L-167.511 335.8088 L-167.511 335.8088 M-161.3729 328.5867 L-160.49 327.5479 L-159.2845 325.5578" clip-path="url(#clipPath2)"/>
      <path d="M-159.2845 325.5578 L-171.0903 334.1898 L-164.5306 334.2177 L-161.4682 340.0188 Z" clip-path="url(#clipPath2)" stroke="none"/>
      <path fill="none" d="M-463.057 -98.1559 L-400.8942 -84.979" clip-path="url(#clipPath2)" stroke="black"/>
      <path fill="black" d="M-392.0898 -83.1127 L-404.13 -91.4149 L-401.9948 -85.2123 L-406.4628 -80.4094 Z" clip-path="url(#clipPath2)" stroke="none"/>
      <path fill="none" d="M-184.144 70.8491 L-185.7411 70.4404 L-194.8376 67.4811 L-194.8376 67.4811 L-209.7913 61.7458 L-209.7913 61.7458 L-224.6111 54.7414 L-224.6111 54.7414 L-239.2104 46.469 L-239.2104 46.469 L-253.502 36.935 L-253.502 36.935 L-267.3994 26.1515 L-267.3994 26.1515 L-280.8161 14.1357 L-280.8161 14.1357 L-293.6667 0.9101 L-293.6667 0.9101 L-305.867 -13.4971 L-305.867 -13.4971 L-317.334 -29.0529 L-317.334 -29.0529 L-327.9818 -45.7105 L-327.9915 -45.7269 L-335.0142 -58.0853 L-336.929 -61.8467" clip-path="url(#clipPath2)" stroke="black"/>
      <path fill="black" d="M-336.929 -61.8467 L-335.8171 -47.264 L-332.3355 -52.8236 L-325.7915 -52.3679 Z" clip-path="url(#clipPath2)" stroke="none"/>
      <path fill="none" d="M84.7218 137.1121 L85.9476 140.4691 L89.9614 152.7353 L89.9614 152.7353 L95.1327 170.7243 L95.1327 170.7243 L99.4882 189.0398 L99.4882 189.0398 L103.0153 207.6531 L103.0153 207.6531 L105.7027 226.5347 L105.7027 226.5347 L107.5396 245.655 L107.5396 245.655 L108.5164 264.9841 L108.5164 264.9841 L108.6243 284.4915 L108.6243 284.4915 L107.8556 304.1465 L107.8556 304.1465 L107.2434 314.0812 L107.2356 314.1552" clip-path="url(#clipPath2)" stroke="rgb(191,4,4)"/>
      <path fill="rgb(191,4,4)" d="M106.2895 323.1053 L113.3025 310.2714 L107.3538 313.0364 L102.1148 309.0888 Z" clip-path="url(#clipPath2)" stroke="none"/>
    </g>
    <g fill="rgb(255,204,0)" text-rendering="geometricPrecision" shape-rendering="geometricPrecision" transform="matrix(1,0,0,1,585,339)" stroke="rgb(255,204,0)">
      <rect x="-211.6968" width="110.7148" height="21.4062" y="-323.8453" clip-path="url(#clipPath2)" stroke="none"/>
      <rect x="-211.6968" y="-323.8453" clip-path="url(#clipPath2)" fill="yellow" width="1" height="21.4062" stroke="none"/>
      <rect x="-210.6968" y="-323.8453" clip-path="url(#clipPath2)" fill="yellow" width="108.7148" height="1" stroke="none"/>
      <rect x="-210.6968" y="-303.439" clip-path="url(#clipPath2)" fill="rgb(178,142,0)" width="109.7148" height="1" stroke="none"/>
      <rect x="-101.9819" y="-323.8453" clip-path="url(#clipPath2)" fill="rgb(178,142,0)" width="1" height="20.4062" stroke="none"/>
    </g>
    <g text-rendering="geometricPrecision" stroke-miterlimit="1.45" shape-rendering="geometricPrecision" font-family="sans-serif" transform="matrix(1,0,0,1,585,339)" stroke-linecap="butt">
      <text x="-207.6968" xml:space="preserve" y="-308.982" clip-path="url(#clipPath2)" stroke="none">doc-comment 0.3.1</text>
    </g>
    <g fill="rgb(255,204,0)" text-rendering="geometricPrecision" shape-rendering="geometricPrecision" transform="matrix(1,0,0,1,585,339)" stroke="rgb(255,204,0)">
      <rect x="299.1977" width="62.7031" height="21.4062" y="104.35" clip-path="url(#clipPath2)" stroke="none"/>
      <rect x="299.1977" y="104.35" clip-path="url(#clipPath2)" fill="yellow" width="1" height="21.4062" stroke="none"/>
      <rect x="300.1977" y="104.35" clip-path="url(#clipPath2)" fill="yellow" width="60.7031" height="1" stroke="none"/>
      <rect x="300.1977" y="124.7562" clip-path="url(#clipPath2)" fill="rgb(178,142,0)" width="61.7031" height="1" stroke="none"/>
      <rect x="360.9008" y="104.35" clip-path="url(#clipPath2)" fill="rgb(178,142,0)" width="1" height="20.4062" stroke="none"/>
    </g>
    <g text-rendering="geometricPrecision" stroke-miterlimit="1.45" shape-rendering="geometricPrecision" font-family="sans-serif" transform="matrix(1,0,0,1,585,339)" stroke-linecap="butt">
      <text x="303.1977" xml:space="preserve" y="119.2132" clip-path="url(#clipPath2)" stroke="none">libc 0.2.50</text>
    </g>
    <g fill="rgb(255,204,0)" text-rendering="geometricPrecision" shape-rendering="geometricPrecision" transform="matrix(1,0,0,1,585,339)" stroke="rgb(255,204,0)">
      <rect x="260.7531" width="62.7031" height="21.4062" y="-203.511" clip-path="url(#clipPath2)" stroke="none"/>
      <rect x="260.7531" y="-203.511" clip-path="url(#clipPath2)" fill="yellow" width="1" height="21.4062" stroke="none"/>
      <rect x="261.7531" y="-203.511" clip-path="url(#clipPath2)" fill="yellow" width="60.7031" height="1" stroke="none"/>
      <rect x="261.7531" y="-183.1047" clip-path="url(#clipPath2)" fill="rgb(178,142,0)" width="61.7031" height="1" stroke="none"/>
      <rect x="322.4562" y="-203.511" clip-path="url(#clipPath2)" fill="rgb(178,142,0)" width="1" height="20.4062" stroke="none"/>
    </g>
    <g text-rendering="geometricPrecision" stroke-miterlimit="1.45" shape-rendering="geometricPrecision" font-family="sans-serif" transform="matrix(1,0,0,1,585,339)" stroke-linecap="butt">
      <text x="264.7531" xml:space="preserve" y="-188.6477" clip-path="url(#clipPath2)" stroke="none">libc 0.2.62</text>
    </g>
    <g fill="rgb(255,204,0)" text-rendering="geometricPrecision" shape-rendering="geometricPrecision" transform="matrix(1,0,0,1,585,339)" stroke="rgb(255,204,0)">
      <rect x="-569.6137" width="112.0508" height="21.4062" y="-119.5703" clip-path="url(#clipPath2)" stroke="none"/>
      <rect x="-569.6137" y="-119.5703" clip-path="url(#clipPath2)" fill="yellow" width="1" height="21.4062" stroke="none"/>
      <rect x="-568.6137" y="-119.5703" clip-path="url(#clipPath2)" fill="yellow" width="110.0508" height="1" stroke="none"/>
      <rect x="-568.6137" y="-99.164" clip-path="url(#clipPath2)" fill="rgb(178,142,0)" width="111.0508" height="1" stroke="none"/>
      <rect x="-458.5629" y="-119.5703" clip-path="url(#clipPath2)" fill="rgb(178,142,0)" width="1" height="20.4062" stroke="none"/>
    </g>
    <g text-rendering="geometricPrecision" stroke-miterlimit="1.45" shape-rendering="geometricPrecision" font-family="sans-serif" transform="matrix(1,0,0,1,585,339)" stroke-linecap="butt">
      <text x="-565.6137" xml:space="preserve" y="-104.707" clip-path="url(#clipPath2)" stroke="none">proc-macro2 0.4.27</text>
    </g>
    <g fill="rgb(255,204,0)" text-rendering="geometricPrecision" shape-rendering="geometricPrecision" transform="matrix(1,0,0,1,585,339)" stroke="rgb(255,204,0)">
      <rect x="-184.1688" width="112.0508" height="21.4062" y="67.2665" clip-path="url(#clipPath2)" stroke="none"/>
      <rect x="-184.1688" y="67.2665" clip-path="url(#clipPath2)" fill="yellow" width="1" height="21.4062" stroke="none"/>
      <rect x="-183.1688" y="67.2665" clip-path="url(#clipPath2)" fill="yellow" width="110.0508" height="1" stroke="none"/>
      <rect x="-183.1688" y="87.6728" clip-path="url(#clipPath2)" fill="rgb(178,142,0)" width="111.0508" height="1" stroke="none"/>
      <rect x="-73.118" y="67.2665" clip-path="url(#clipPath2)" fill="rgb(178,142,0)" width="1" height="20.4062" stroke="none"/>
    </g>
    <g text-rendering="geometricPrecision" stroke-miterlimit="1.45" shape-rendering="geometricPrecision" font-family="sans-serif" transform="matrix(1,0,0,1,585,339)" stroke-linecap="butt">
      <text x="-180.1688" xml:space="preserve" y="82.1298" clip-path="url(#clipPath2)" stroke="none">proc-macro2 0.4.30</text>
    </g>
    <g fill="rgb(255,204,0)" text-rendering="geometricPrecision" shape-rendering="geometricPrecision" transform="matrix(1,0,0,1,585,339)" stroke="rgb(255,204,0)">
      <rect x="28.1134" width="105.377" height="21.4062" y="115.6735" clip-path="url(#clipPath2)" stroke="none"/>
      <rect x="28.1134" y="115.6735" clip-path="url(#clipPath2)" fill="yellow" width="1" height="21.4062" stroke="none"/>
      <rect x="29.1134" y="115.6735" clip-path="url(#clipPath2)" fill="yellow" width="103.377" height="1" stroke="none"/>
      <rect x="29.1134" y="136.0798" clip-path="url(#clipPath2)" fill="rgb(178,142,0)" width="104.377" height="1" stroke="none"/>
      <rect x="132.4903" y="115.6735" clip-path="url(#clipPath2)" fill="rgb(178,142,0)" width="1" height="20.4062" stroke="none"/>
    </g>
    <g text-rendering="geometricPrecision" stroke-miterlimit="1.45" shape-rendering="geometricPrecision" font-family="sans-serif" transform="matrix(1,0,0,1,585,339)" stroke-linecap="butt">
      <text x="32.1134" xml:space="preserve" y="130.5368" clip-path="url(#clipPath2)" stroke="none">proc-macro2 1.0.5</text>
    </g>
    <g fill="rgb(255,204,0)" text-rendering="geometricPrecision" shape-rendering="geometricPrecision" transform="matrix(1,0,0,1,585,339)" stroke="rgb(255,204,0)">
      <rect x="-379.5098" width="74.7266" height="21.4062" y="63.0244" clip-path="url(#clipPath2)" stroke="none"/>
      <rect x="-379.5098" y="63.0244" clip-path="url(#clipPath2)" fill="yellow" width="1" height="21.4062" stroke="none"/>
      <rect x="-378.5098" y="63.0244" clip-path="url(#clipPath2)" fill="yellow" width="72.7266" height="1" stroke="none"/>
      <rect x="-378.5098" y="83.4307" clip-path="url(#clipPath2)" fill="rgb(178,142,0)" width="73.7266" height="1" stroke="none"/>
      <rect x="-305.7832" y="63.0244" clip-path="url(#clipPath2)" fill="rgb(178,142,0)" width="1" height="20.4062" stroke="none"/>
    </g>
    <g text-rendering="geometricPrecision" stroke-miterlimit="1.45" shape-rendering="geometricPrecision" font-family="sans-serif" transform="matrix(1,0,0,1,585,339)" stroke-linecap="butt">
      <text x="-375.5098" xml:space="preserve" y="77.8877" clip-path="url(#clipPath2)" stroke="none">quote 0.6.11</text>
    </g>
    <g fill="rgb(255,204,0)" text-rendering="geometricPrecision" shape-rendering="geometricPrecision" transform="matrix(1,0,0,1,585,339)" stroke="rgb(255,204,0)">
      <rect x="-90.5093" width="74.7266" height="21.4062" y="335.2383" clip-path="url(#clipPath2)" stroke="none"/>
      <rect x="-90.5093" y="335.2383" clip-path="url(#clipPath2)" fill="yellow" width="1" height="21.4062" stroke="none"/>
      <rect x="-89.5093" y="335.2383" clip-path="url(#clipPath2)" fill="yellow" width="72.7266" height="1" stroke="none"/>
      <rect x="-89.5093" y="355.6446" clip-path="url(#clipPath2)" fill="rgb(178,142,0)" width="73.7266" height="1" stroke="none"/>
      <rect x="-16.7828" y="335.2383" clip-path="url(#clipPath2)" fill="rgb(178,142,0)" width="1" height="20.4062" stroke="none"/>
    </g>
    <g text-rendering="geometricPrecision" stroke-miterlimit="1.45" shape-rendering="geometricPrecision" font-family="sans-serif" transform="matrix(1,0,0,1,585,339)" stroke-linecap="butt">
      <text x="-86.5093" xml:space="preserve" y="350.1016" clip-path="url(#clipPath2)" stroke="none">quote 0.6.13</text>
    </g>
    <g fill="rgb(255,204,0)" text-rendering="geometricPrecision" shape-rendering="geometricPrecision" transform="matrix(1,0,0,1,585,339)" stroke="rgb(255,204,0)">
      <rect x="234.3957" width="68.0527" height="21.4062" y="213.9067" clip-path="url(#clipPath2)" stroke="none"/>
      <rect x="234.3957" y="213.9067" clip-path="url(#clipPath2)" fill="yellow" width="1" height="21.4062" stroke="none"/>
      <rect x="235.3957" y="213.9067" clip-path="url(#clipPath2)" fill="yellow" width="66.0527" height="1" stroke="none"/>
      <rect x="235.3957" y="234.313" clip-path="url(#clipPath2)" fill="rgb(178,142,0)" width="67.0527" height="1" stroke="none"/>
      <rect x="301.4484" y="213.9067" clip-path="url(#clipPath2)" fill="rgb(178,142,0)" width="1" height="20.4062" stroke="none"/>
    </g>
    <g text-rendering="geometricPrecision" stroke-miterlimit="1.45" shape-rendering="geometricPrecision" font-family="sans-serif" transform="matrix(1,0,0,1,585,339)" stroke-linecap="butt">
      <text x="238.3957" xml:space="preserve" y="228.77" clip-path="url(#clipPath2)" stroke="none">quote 1.0.2</text>
    </g>
    <g fill="rgb(255,204,0)" text-rendering="geometricPrecision" shape-rendering="geometricPrecision" transform="matrix(1,0,0,1,585,339)" stroke="rgb(255,204,0)">
      <rect x="407.1365" width="62.041" height="21.4062" y="-299.9149" clip-path="url(#clipPath2)" stroke="none"/>
      <rect x="407.1365" y="-299.9149" clip-path="url(#clipPath2)" fill="yellow" width="1" height="21.4062" stroke="none"/>
      <rect x="408.1365" y="-299.9149" clip-path="url(#clipPath2)" fill="yellow" width="60.041" height="1" stroke="none"/>
      <rect x="408.1365" y="-279.5087" clip-path="url(#clipPath2)" fill="rgb(178,142,0)" width="61.041" height="1" stroke="none"/>
      <rect x="468.1775" y="-299.9149" clip-path="url(#clipPath2)" fill="rgb(178,142,0)" width="1" height="20.4062" stroke="none"/>
    </g>
    <g text-rendering="geometricPrecision" stroke-miterlimit="1.45" shape-rendering="geometricPrecision" font-family="sans-serif" transform="matrix(1,0,0,1,585,339)" stroke-linecap="butt">
      <text x="411.1365" xml:space="preserve" y="-285.0516" clip-path="url(#clipPath2)" stroke="none">rand 0.4.6</text>
    </g>
    <g fill="rgb(255,204,0)" text-rendering="geometricPrecision" shape-rendering="geometricPrecision" transform="matrix(1,0,0,1,585,339)" stroke="rgb(255,204,0)">
      <rect x="-125.3659" width="116.7266" height="21.4062" y="-144.9069" clip-path="url(#clipPath2)" stroke="none"/>
      <rect x="-125.3659" y="-144.9069" clip-path="url(#clipPath2)" fill="yellow" width="1" height="21.4062" stroke="none"/>
      <rect x="-124.3659" y="-144.9069" clip-path="url(#clipPath2)" fill="yellow" width="114.7266" height="1" stroke="none"/>
      <rect x="-124.3659" y="-124.5007" clip-path="url(#clipPath2)" fill="rgb(178,142,0)" width="115.7266" height="1" stroke="none"/>
      <rect x="-9.6393" y="-144.9069" clip-path="url(#clipPath2)" fill="rgb(178,142,0)" width="1" height="20.4062" stroke="none"/>
    </g>
    <g text-rendering="geometricPrecision" stroke-miterlimit="1.45" shape-rendering="geometricPrecision" font-family="sans-serif" transform="matrix(1,0,0,1,585,339)" stroke-linecap="butt">
      <text x="-121.3659" xml:space="preserve" y="-130.0436" clip-path="url(#clipPath2)" stroke="none">remove_dir_all 0.5.2</text>
    </g>
    <g fill="rgb(255,204,0)" text-rendering="geometricPrecision" shape-rendering="geometricPrecision" transform="matrix(1,0,0,1,585,339)" stroke="rgb(255,204,0)">
      <rect x="46.3173" width="172.7246" height="21.4062" y="-80.6755" clip-path="url(#clipPath2)" stroke="none"/>
      <rect x="46.3173" y="-80.6755" clip-path="url(#clipPath2)" fill="yellow" width="1" height="21.4062" stroke="none"/>
      <rect x="47.3173" y="-80.6755" clip-path="url(#clipPath2)" fill="yellow" width="170.7246" height="1" stroke="none"/>
      <rect x="47.3173" y="-60.2692" clip-path="url(#clipPath2)" fill="rgb(178,142,0)" width="171.7246" height="1" stroke="none"/>
      <rect x="218.0419" y="-80.6755" clip-path="url(#clipPath2)" fill="rgb(178,142,0)" width="1" height="20.4062" stroke="none"/>
    </g>
    <g text-rendering="geometricPrecision" stroke-miterlimit="1.45" shape-rendering="geometricPrecision" font-family="sans-serif" transform="matrix(1,0,0,1,585,339)" stroke-linecap="butt">
      <text x="50.3173" xml:space="preserve" y="-65.8122" clip-path="url(#clipPath2)" stroke="none">rustc-std-workspace-core 1.0.0</text>
    </g>
    <g fill="rgb(255,204,0)" text-rendering="geometricPrecision" shape-rendering="geometricPrecision" transform="matrix(1,0,0,1,585,339)" stroke="rgb(255,204,0)">
      <rect x="-407.0547" width="81.3887" height="21.4062" y="365.3355" clip-path="url(#clipPath2)" stroke="none"/>
      <rect x="-407.0547" y="365.3355" clip-path="url(#clipPath2)" fill="yellow" width="1" height="21.4062" stroke="none"/>
      <rect x="-406.0547" y="365.3355" clip-path="url(#clipPath2)" fill="yellow" width="79.3887" height="1" stroke="none"/>
      <rect x="-406.0547" y="385.7418" clip-path="url(#clipPath2)" fill="rgb(178,142,0)" width="80.3887" height="1" stroke="none"/>
      <rect x="-326.6661" y="365.3355" clip-path="url(#clipPath2)" fill="rgb(178,142,0)" width="1" height="20.4062" stroke="none"/>
    </g>
    <g text-rendering="geometricPrecision" stroke-miterlimit="1.45" shape-rendering="geometricPrecision" font-family="sans-serif" transform="matrix(1,0,0,1,585,339)" stroke-linecap="butt">
      <text x="-403.0547" xml:space="preserve" y="380.1988" clip-path="url(#clipPath2)" stroke="none">serde 1.0.101</text>
    </g>
    <g fill="rgb(255,204,0)" text-rendering="geometricPrecision" shape-rendering="geometricPrecision" transform="matrix(1,0,0,1,585,339)" stroke="rgb(255,204,0)">
      <rect x="-489.6007" width="74.7148" height="21.4062" y="255.9446" clip-path="url(#clipPath2)" stroke="none"/>
      <rect x="-489.6007" y="255.9446" clip-path="url(#clipPath2)" fill="yellow" width="1" height="21.4062" stroke="none"/>
      <rect x="-488.6007" y="255.9446" clip-path="url(#clipPath2)" fill="yellow" width="72.7148" height="1" stroke="none"/>
      <rect x="-488.6007" y="276.3508" clip-path="url(#clipPath2)" fill="rgb(178,142,0)" width="73.7148" height="1" stroke="none"/>
      <rect x="-415.8859" y="255.9446" clip-path="url(#clipPath2)" fill="rgb(178,142,0)" width="1" height="20.4062" stroke="none"/>
    </g>
    <g text-rendering="geometricPrecision" stroke-miterlimit="1.45" shape-rendering="geometricPrecision" font-family="sans-serif" transform="matrix(1,0,0,1,585,339)" stroke-linecap="butt">
      <text x="-485.6007" xml:space="preserve" y="270.8079" clip-path="url(#clipPath2)" stroke="none">serde 1.0.89</text>
    </g>
    <g fill="rgb(255,204,0)" text-rendering="geometricPrecision" shape-rendering="geometricPrecision" transform="matrix(1,0,0,1,585,339)" stroke="rgb(255,204,0)">
      <rect x="-331.7337" width="114.0723" height="21.4062" y="206.1868" clip-path="url(#clipPath2)" stroke="none"/>
      <rect x="-331.7337" y="206.1868" clip-path="url(#clipPath2)" fill="yellow" width="1" height="21.4062" stroke="none"/>
      <rect x="-330.7337" y="206.1868" clip-path="url(#clipPath2)" fill="yellow" width="112.0723" height="1" stroke="none"/>
      <rect x="-330.7337" y="226.5931" clip-path="url(#clipPath2)" fill="rgb(178,142,0)" width="113.0723" height="1" stroke="none"/>
      <rect x="-218.6614" y="206.1868" clip-path="url(#clipPath2)" fill="rgb(178,142,0)" width="1" height="20.4062" stroke="none"/>
    </g>
    <g text-rendering="geometricPrecision" stroke-miterlimit="1.45" shape-rendering="geometricPrecision" font-family="sans-serif" transform="matrix(1,0,0,1,585,339)" stroke-linecap="butt">
      <text x="-327.7337" xml:space="preserve" y="221.0501" clip-path="url(#clipPath2)" stroke="none">serde_derive 1.0.89</text>
    </g>
    <g fill="rgb(255,204,0)" text-rendering="geometricPrecision" shape-rendering="geometricPrecision" transform="matrix(1,0,0,1,585,339)" stroke="rgb(255,204,0)">
      <rect x="-187.8367" width="70.0449" height="21.4062" y="304.1743" clip-path="url(#clipPath2)" stroke="none"/>
      <rect x="-187.8367" y="304.1743" clip-path="url(#clipPath2)" fill="yellow" width="1" height="21.4062" stroke="none"/>
      <rect x="-186.8367" y="304.1743" clip-path="url(#clipPath2)" fill="yellow" width="68.0449" height="1" stroke="none"/>
      <rect x="-186.8367" y="324.5806" clip-path="url(#clipPath2)" fill="rgb(178,142,0)" width="69.0449" height="1" stroke="none"/>
      <rect x="-118.7918" y="304.1743" clip-path="url(#clipPath2)" fill="rgb(178,142,0)" width="1" height="20.4062" stroke="none"/>
    </g>
    <g text-rendering="geometricPrecision" stroke-miterlimit="1.45" shape-rendering="geometricPrecision" font-family="sans-serif" transform="matrix(1,0,0,1,585,339)" stroke-linecap="butt">
      <text x="-183.8367" xml:space="preserve" y="319.0376" clip-path="url(#clipPath2)" stroke="none">syn 0.15.29</text>
    </g>
    <g fill="rgb(255,204,0)" text-rendering="geometricPrecision" shape-rendering="geometricPrecision" transform="matrix(1,0,0,1,585,339)" stroke="rgb(255,204,0)">
      <rect x="-392.0895" width="99.3945" height="21.4062" y="-83.2812" clip-path="url(#clipPath2)" stroke="none"/>
      <rect x="-392.0895" y="-83.2812" clip-path="url(#clipPath2)" fill="yellow" width="1" height="21.4062" stroke="none"/>
      <rect x="-391.0895" y="-83.2812" clip-path="url(#clipPath2)" fill="yellow" width="97.3945" height="1" stroke="none"/>
      <rect x="-391.0895" y="-62.875" clip-path="url(#clipPath2)" fill="rgb(178,142,0)" width="98.3945" height="1" stroke="none"/>
      <rect x="-293.6949" y="-83.2812" clip-path="url(#clipPath2)" fill="rgb(178,142,0)" width="1" height="20.4062" stroke="none"/>
    </g>
    <g text-rendering="geometricPrecision" stroke-miterlimit="1.45" shape-rendering="geometricPrecision" font-family="sans-serif" transform="matrix(1,0,0,1,585,339)" stroke-linecap="butt">
      <text x="-388.0895" xml:space="preserve" y="-68.4179" clip-path="url(#clipPath2)" stroke="none">unicode-xid 0.1.0</text>
    </g>
    <g fill="rgb(255,204,0)" text-rendering="geometricPrecision" shape-rendering="geometricPrecision" transform="matrix(1,0,0,1,585,339)" stroke="rgb(255,204,0)">
      <rect x="55.4587" width="99.3945" height="21.4062" y="323.1265" clip-path="url(#clipPath2)" stroke="none"/>
      <rect x="55.4587" y="323.1265" clip-path="url(#clipPath2)" fill="yellow" width="1" height="21.4062" stroke="none"/>
      <rect x="56.4587" y="323.1265" clip-path="url(#clipPath2)" fill="yellow" width="97.3945" height="1" stroke="none"/>
      <rect x="56.4587" y="343.5328" clip-path="url(#clipPath2)" fill="rgb(178,142,0)" width="98.3945" height="1" stroke="none"/>
      <rect x="153.8532" y="323.1265" clip-path="url(#clipPath2)" fill="rgb(178,142,0)" width="1" height="20.4062" stroke="none"/>
    </g>
    <g text-rendering="geometricPrecision" stroke-miterlimit="1.45" shape-rendering="geometricPrecision" font-family="sans-serif" transform="matrix(1,0,0,1,585,339)" stroke-linecap="butt">
      <text x="59.4587" xml:space="preserve" y="337.9898" clip-path="url(#clipPath2)" stroke="none">unicode-xid 0.2.0</text>
    </g>
  </g>
</svg>
